<?xml version="1.0" encoding="UTF-8"?><svg id="Layer_2" xmlns="http://www.w3.org/2000/svg" viewBox="0 0 81.49 95.24"><defs><style>.cls-1{fill:#f3e9dd;stroke-width:0px;}</style></defs><g id="_ÎÓÈ_1"><path class="cls-1" d="m.86,13.97c-.07.03-.16-.15-.22,0-.06.15-.68,1.67-.64,1.79s.18.35.22.5c.04.15.18.63.16.78-.01.15-.1.43-.09.55.01.12,1.06,1.28,1.22,1.38.16.09.4.03.58.29.18.26.22.32.25.47.03.15.01.38.07.38s.13-.12.16,0,.83.99.88,1.16c.04.17.06.41.16.5.1.09.34.09.39.26s.07.99.13,1.12c.06.12.28.32.28.41s-.03.67.03.83.15.35.13.54c-.01.18-.36.99-.36,1.05s.01.11.01.2-.12.63-.12.73.18.4.18.4l-.07.14h.12s-.09.09-.04.21c.04.12.15.29.16.38.01.09-.03.35.03.49.06.14.28.23.3.41.01.18.28.81.28.95s-.04.52-.07.64-.1.31-.15.35c-.04.05-.18.09-.18.09,0,0,.12.37.16.41.04.05.42.38.51.52.09.14.28.44.34.52.06.08.21.15.25.21.04.06.36.49.52.63.16.14.39.28.46.35s.65,1.18.76,1.33.74.69.79.73.71.41.79.52c.07.11.42.66.43.78.01.12-.06.38-.03.46.03.08.09.23.13.24.04.02.16-.09.21-.08.04.02.22.08.28.21.06.14.21.32.21.32,0,0-.07.18-.03.21.04.03.15,0,.15,0v.21s.27-.03.25,0c-.02.03-.05.23,0,.29.04.06.68,1.02.68,1.02-.07,0-.7-.81-.74-.86-.04-.05-.51-.69-.51-.69,0,0,.18.41.19.47.01.06.13.34.13.41s-.42,1.25-.42,1.25c0,0-.18.21-.12.31.06.09.42.17.4.09-.01-.08-.13-.12-.07-.18.06-.06.28-.26.28-.26l-.18-.24.13.03-.06-.18.21-.18-.06.2h.16l-.13.24.09.09c.09.09.13.12.3.2.16.08.31.08.42.2.1.12.25.23.27.34.01.11.07.15.18.26l.31.32s0,.11.07.14c.07.03.21.06.27,0s.1-.21.25-.05c.15.17.31.35.51.49.19.14.36.32.42.32s.22.05.31,0c.09-.05.16-.21.13-.28-.03-.06-.27-.29-.27-.29l.04-.09s.04-.09.12,0c.07.09.16.15.21.15s.24-.02.16-.12c-.07-.11-.4-.29-.46-.37-.06-.08-.15-.2-.07-.23.07-.03.18,0,.18,0,0,0-.06-.18-.06-.23s.28-.17.28-.23-.31-.28-.31-.34.04-.52.04-.57-.21-.4-.04-.38c.16.02.45,0,.49-.08,0,0,.09-.29.19-.29s.65.29.71.41c.06.12.28.34.31.4.03.06.12.05.12-.02s-.28-.72-.28-.72c0,0,0-.23-.06-.31-.06-.08-.19-.12-.18-.18.01-.06.1-.34.13-.38.03-.05.13-.17.13-.17,0,0-.07.28-.09.35-.01.08-.06.15,0,.21.06.06.15.02.15.11s-.01.17.01.23c.03.06.09.12.09.18s.09.28.12.38.2.34.2.34l.2.03s.09-.12.12-.06c.03.06.22.24.22.24l.19-.06s.28-.31.37-.43.21-.44.24-.5c.03-.06.09-.31.22-.32s-.18.47-.18.47c0,0,.24-.12.3-.08.06.05.18.15.15.2-.03.05-.24.15-.24.23s.04.12.09.12.21.03.3.05c.09.02.36-.02.36-.02v.18s.06.08.13.08.15-.11.34-.14c.19-.03.18-.05.31-.03.13.02.28-.02.33-.06.04-.05.25-.21.36-.29.1-.08.27-.34.31-.41.04-.08.18-.32.18-.32,0,0-.12.5-.16.63-.04.12-.04.24-.18.32-.13.08-.48.14-.49.21-.01.08-.07.18.06.21.13.03.13.14.3-.03.16-.17.33-.18.36-.29s.01-.23.13-.23.34-.03.46-.08c.12-.05.19-.11.27.02.07.12.07.18.13.23.06.05.09,0,.25.11.16.11.33.26.37.24.04-.02.46-.02.33.02-.13.03-.7.05-.7.05,0,0,.27.14.19.2-.07.06-.16.09-.24-.03-.07-.12-.04-.26-.15-.31-.1-.05-.22-.12-.21-.08.02.05-.06.31-.12.35-.06.05-.13.06-.22-.03-.09-.09-.22-.17-.09-.28.13-.11.31-.09.36-.14.04-.05.03-.14-.03-.17s-.09-.02-.28,0c-.19.02-.25.06-.36.09-.1.03-.01.18-.1.24-.09.06-.22.17-.22.17,0,0,.15.02.15.11s.06.15-.16.15-.68-.09-.85-.14c-.16-.05-.49-.15-.74-.17-.25-.02-.71-.18-.94-.17-.22.02-.45.12-.56.18-.12.06-.24.15-.28.14-.04-.02-.15-.17-.3-.2-.15-.03-.3-.08-.39-.05-.09.03-.24.12-.28.21-.04.09-.18.2-.24.21-.06.02-.19.05-.25.05s-.16-.03-.16-.03c0,0,.06.11.01.2-.04.09-.25.29-.25.29l-.24-.08s.18.32.21.38c.03.06.1.15.16.18.06.03-.04-.12.15-.03.19.09.37.14.39.24.01.11.01.34.01.41s.01.12-.04.18c-.06.06.06.05-.12.2-.18.15-.03.08,0,.18.03.11-.04.08.19.18.24.11.25.18.33.18s.21-.05.24,0c.04.05-.11.14-.11.14,0,0-.09.08-.01.21.07.14.19.26.19.26,0,0,.06-.26.16-.11.1.15.25.21.3.46.04.24.06.52.1.73.04.21.1.44.16.58.06.14.03.23.19.31.16.08.33.05.36.15.03.11-.03.17.09.18.12.02.37-.11.34,0-.03.11-.36.21-.49.23-.13.02-.4-.14-.42-.18-.01-.05-.15-.32-.18-.37s-.1.05-.1.05c0,0-.16-.15-.21-.18s-.06-.06-.13-.02c-.07.05-.01-.09-.03-.15-.01-.06-.18-.09-.22-.08-.04.02.13-.12,0-.11-.12.02-.26.18-.24.11.01-.08.1-.21.04-.26s-.18-.11-.22-.08c-.04.03-.1.05-.16-.03-.06-.08-.12-.17-.19-.17s-.22-.03-.28-.08c-.06-.05-.06-.18-.06-.23s-.04-.09-.1-.14c-.06-.05.06-.05.06-.15s-.07-.61-.07-.67.06-.06.13-.03c.07.03.09-.08.03-.17-.06-.09-.19-.15-.19-.24s.03-.37-.09-.46c-.12-.09-.59-.09-.61-.05-.01.05.06.05-.07.15-.13.11-.06-.14-.13.11-.07.24.13,1.45.1,1.59-.03.14.06.14-.07.24s-.15.14-.13.43c.01.29.16.57.21.6.04.03.15-.02.25.11s.13.44.16.55.27.6.3.67c.03.08-.01.47-.04.7-.03.23-.1.67-.03.84s.12.28.21.4c.09.12.13.03.19.24s.09.32.19.4c.1.08.3.08.45.29.15.21.36.57.62.81.27.24.48.47.65.5.18.03.31.09.46.09s.24-.15.39-.11c.15.05.28.05.33.02.05-.03.16-.2.24-.17.07.03.25.08.33.18.07.11.61.87.64.99.03.12.21.41.18.54s-.22,1.1-.24,1.31c-.01.21-.21.44-.27.55-.06.11-.13.21-.22.21s-.18-.17-.22-.2c-.04-.03-.09-.17-.21-.09-.12.08-.31.37-.25.46.06.09.18.21.25.35.07.14.16.23.07.26-.09.03-.25-.08-.19.08.06.15.25.76.33,1.09.07.32.12.55.12.69s-.18.24-.06.34c.12.09.34.2.46.43.12.23.13.29.37.44.24.15.46.11.74.43.28.32.49.6.58.78.09.18.3.6.4.7.1.11.42.21.55.35.13.14.22.58.37.87.15.29.06.34.27.55.21.21.73.67.79.8.06.12.25,1.12.4,1.18.15.06.89.23,1,.37.1.14.58.95.68,1.02.1.08.31.57.59.67s.79.09.82.18c.03.09.27.41.27.52s.04.21.04.21c0,0,.1-.06.1,0s.03.24.07.26c.04.02.12.03.07.12s-.25.18-.25.18l-.04-.37s-.12.43-.13.52c-.01.09-.13.4-.12.44.01.05.18.28.33.38.15.11.58.4.68.46.1.06.09.03.24,0,.15-.03.19-.04.34.04.15.07.45.19.48.32s.09.37.09.6.03.63-.04.8c-.07.17-.19.76-.19.86s.15.08.18.17c.03.09.07.15.13.23.06.08.13.09.13.23s-.28.69-.19.87c.09.18.3.34.28.58-.01.24-.39,1.21-.33,1.31s.31.28.36.29c.04.02.1-.08.27,0,.16.08.31.05.45.28.13.23.3.37.33.52s-.04.26.16.26.94-.21,1.1-.23c.16-.02.7-.09.94-.02.24.08,1.32,0,1.47.03.15.03.68.09.8.21.12.12.25.23.42.28.16.05.18-.06.33-.08.15-.02.36.11.45.09.09-.03.42.19.54.13.12-.06.09-.28.27-.28s.74-.02.94.05c.19.06,1.11.64,1.31.78.19.14.34.26.55.4s.39.11.43.24c.04.14.27.75.36.9s.13.18.27.31c.13.12.49.29.59.31.1.02.22-.06.31,0,.09.06.83.47,1.11.57.28.09.4.08.61.11.21.03.21-.02.36.11.15.12.24.29.33.24.09-.05.13-.21.39-.26.25-.05,1.43-.12,1.43-.12,0,0,.31-.09.48.06.16.15.45.38.55.6.1.21.28.61.36.75.07.14.21.41.22.57.01.15-.01.32-.07.41-.06.09-.16.15-.13.23.03.08.1.21.15.23.04.02.24-.14.37,0,.13.14.4.31.45.32.04.02.19-.12.19-.12,0,0,.06-.12.13-.2.07-.08.16-.06.27-.11.1-.05.06-.21.21-.2.15.02.51.12.59.15.09.03.18.12.25.17.07.05.55.55.59.6.04.05.39.35.54.43.15.08.18.26.33.18.15-.08.16-.34.27-.4.1-.06-.13.34-.06.42.07.07.4.23.61.38.21.15.33.18.48.38.15.2.39.5.48.6.09.09.18-.11.33,0,.15.11.36.4.52.54.16.14.27.28.42.37.15.09,1.19,1.25,1.32,1.41s.62.78.71.98c.09.2.48,1.1.54,1.3.06.2.24.76.25.83s0,.49,0,.49c0,0-.25.09-.22.21.03.12.06.31.15.38.09.08.15.23.24.2.09-.03.24-.24.24-.09s.12.23,0,.23-.3.17-.3.21.02.41.02.41c0,0,.28-.17.4-.18.12-.02.13-.03.31.03.18.06.33.17.34.24.02.08.03.4.1.52s.12.2.12.2c0,0,.03.24-.09.2s-.19-.31-.28-.49c-.09-.18-.16-.38-.27-.44-.1-.06-.25-.08-.25-.08,0,0-.21.15-.16.18.04.03.3.06.34.12.04.06.25.28.3.47.04.2.27.96.27.96l8.98-1.48,10.66-1.77s.09-.31.18-.29c.09.02.58.11.67.09.09-.02.73-.28.73-.35v-.43c0-.06.4-.49.4-.49v-.66s-.15-.17-.15-.21.06-.38.06-.38c0,0-.22.03-.24-.08-.01-.11-.13-.46-.19-.46s-.42-.08-.42-.08l-.42.14-.28-.18-.07.14-.28-.52-.15.02.16-1.13s-.01-.21-.01-.26-.1-.24-.1-.24l.06-.21-.51-.32.28-.47-.22-.6.64-.21s.24-.73.31-.83c.07-.09.48-.64.48-.64l-.12-.32s.13-.17.13-.21-.09-.4-.09-.4l.09-.11-.12-.12.25-.32-.13-.32v-.29l-.24-.84.15-.28-.16-.24.12-.08-.24-.26s-.04-.09.07-.2c.12-.11.52-.49.52-.49l-.12-.18.21-.12s-.03-.55.01-.61c.04-.06.01-.17.1-.2.09-.03.27-.14.37-.2.1-.06.33-.18.39-.24.06-.06.21-.29.25-.31.04-.02.33-.12.43-.21.1-.09.36-.75.45-.76.09-.02.31-.06.28-.11s-.15-.31-.21-.44c-.06-.14-.24-.43-.3-.43s-.39-.11-.39-.11c0,0-.89-.75-.95-.75s-.34-.02-.34-.02l-.06-.76s-.19-.44-.24-.44-.22-.15-.22-.15l.09-.18s-.31-.38-.33-.47c-.01-.09-.03-.41-.15-.5-.12-.09-.71-.55-.71-.55l-.31-.64-.37-.31-.12-1.31-8.65-7.58-8.89-7.78-8.01-7.03-8.52-7.48-8.56-7.51-1.16-1.02-.09-4.17-.22-8.3-.13-6.74-.18-7.11-.1-4.08H1.8v.46c0,.21-.03.58-.09.73,0,0-.12.52-.21.67-.07.2-.13.21-.07.32.06.11.09.2.24.29.15.09.27-.05.36.14.09.18.16.26.18.4s.21,1.01.25,1.15c.04.14.06.32.06.32l.13.11.21.17h-.25l.12.87s-.1.93-.18,1.18c-.07.24-.19.93-.25,1.13-.06.2-.12.66-.16.7-.04.05-.22.12-.22.18s.06.78.06.78h.16s.16.18.16.28-.01.34-.09.55c-.07.21-.21.84-.22.89,0,.02-.04.08-.07.16-.05.11-.12.23-.13.27-.03.06-.24.47-.24.47l-.13.29v.08s.22-.23.26-.32l.3-.72.27.12.15-.03.1.18s-.24.29-.31.29h-.07s-.15-.06-.21-.03c-.06.03-.42.78-.42.83s.04.24.04.24c0,0-.06.2-.11.2s-.29-.2-.29-.2l.27-.38-.07-.14-.59,1.16.19-.18-.06.18s.09.03.09.08,0,.08-.07.11Z"/></g></svg>