<?xml version="1.0" encoding="UTF-8"?><svg id="Layer_2" xmlns="http://www.w3.org/2000/svg" viewBox="0 0 118.09 71.43"><defs><style>.cls-1{fill:#f3e9dd;stroke-width:0px;}</style></defs><g id="_ÎÓÈ_1"><path class="cls-1" d="m105.18,0S36.89,1.5,2.56,0C1.83,17.09,0,70.06,0,70.06c0,0,27.5,1.49,43.33,1.37h40.38s24.84-.54,24.84-.54l9.41-.42s.12-.13.13-.27c.01-.15-.42-1.68-.36-1.84.06-.16.18-.58.2-.62.02-.03.14-.42.09-.63s-.43-1.5-.43-1.53.01-.44-.01-.5c-.02-.06-.2-.23-.19-.31.01-.08.05-.48.03-.58-.02-.1-.18-.22-.19-.29-.01-.07-.05-.41-.05-.41,0,0,.23-.16.19-.21s-.22-.15-.23-.19c-.01-.04-.06-.28-.04-.31.02-.03.12-.08.1-.14-.02-.05-.09-.24-.09-.24,0,0,.09-.05.08-.08-.01-.03-.14-.1-.14-.15s.1-.4.09-.46c-.01-.06-.29-.7-.36-.72-.06-.02-.44-.1-.44-.14s.04-.15,0-.21-.37-.34-.39-.4-.18-.5-.18-.5l-.25-.2.03-.19-.2.04v-.42h-.18s-.05-.24-.05-.29.12-.21.1-.28c-.02-.07-.05-.23-.12-.26-.07-.03-.28-.18-.28-.18l.03-.29-.12-.18s.15-.08.15-.11-.18-.34-.18-.4.03-.33.02-.37-.13-.1-.12-.14c.01-.03.08-.09.06-.14-.02-.04-.13-.11-.1-.22.03-.1.04-.29.01-.35-.03-.06-.17-.17-.17-.17l.06-.09s-.19-.06-.16-.08c.03-.02.1-.13.07-.15s-.18-.02-.18-.02c0,0,.05-.18,0-.23s-.12-.19-.12-.19l-.03-.08-.08-.05-.02-.11-.14-.04-.02-.08s.09-.2.08-.23c-.01-.03-.17-.31-.17-.31l.1-.34-.08-.1s.2-.18.19-.25c-.01-.07-.02-.32-.02-.32l-.07-.07s.12-.42.12-.45-.08-.06-.08-.06c0,0,.09-.78.07-.87-.02-.08-.16-.21-.16-.21l.09-.11-.13-.03s.15-.08.09-.18c-.06-.09-.19-.2-.19-.2,0,0-.04-.32-.04-.35s.14-.37.14-.37l.1-.04-.08-.13.07-.05-.02-.1s.1-.06.1-.09.04-.18.04-.18l-.11-.02s.04-.06.04-.15-.05-.15-.04-.24c.01-.09.07-.21.08-.24,0-.03.11,0,.11-.06s-.1-.33-.09-.39.25-.43.25-.43l-.07-.13.07-.08-.13-.17-.22.16-.2-.06-.04-.39s-.15.04-.15-.03.04-.42.04-.42c0,0-.07.03-.11.02-.04-.01-.24-.08-.24-.11s-.04-.76-.04-.76l-.24-.09.28-.46-.09-.15.15-.15-.07-.15s-.12-.02-.12-.06.08-.41.08-.41l-.13-.23.14-.23-.1-.11.09-.44-.29-.27s.19-.11.19-.16-.22-.55-.22-.55l.16-.07-.05-.16.13-.09-.13-.22.04-.17-.06-.03-.04-.16-.12-.09.17-.17-.14-.34-.14-.05.12-.14-.06-.13.08-.11-.11-.13.1-.2-.11-.11s.02-.11-.02-.18c-.04-.06-.08-.2-.08-.2,0,0,.09-.17.09-.2s-.03-.21-.03-.24.06-.25.06-.29-.09-.27-.08-.3c.01-.03.13-.25.13-.25l-.14-.09.13-.16-.21-.24s.16-.13.13-.15c-.03-.02-.26-.25-.26-.25l.21-.09s-.17-.17-.15-.2c.02-.03.17-.11.17-.11l-.11-.26.1-.13-.14-.26-.18.02s-.11-.14-.11-.18.11-.25.12-.28c.01-.03-.04-.21-.04-.21,0,0,.04-.25.04-.29s-.08-.11-.08-.15.05-.09.05-.13-.05-.17-.03-.22.05-.11.05-.11l-.13-.06.08-.13s-.08-.09-.05-.13c.03-.03.1-.07.12-.13.02-.05.02-.09.02-.17s.02-.2-.02-.23c-.04-.03-.19-.08-.19-.08l-.11-.2s.22-.14.21-.19c-.01-.05-.04-.17-.03-.25.01-.08.03-.27.01-.35-.02-.08-.01-.9-.01-.9,0,0-.56-.75-.55-.78.01-.03.1-.17.1-.24s-.08-.59-.09-.63c-.01-.03-.54-.62-.54-.62l-.05-.38h-.1s.12-.2.12-.24-.18-.22-.18-.22l.02-.32-.13-.09.12-.06-.12-.25s-.3-.14-.31-.17c-.01-.03-.05-.35-.05-.35l-.47-.34.15-.23.02-.23-.13-.08-.34-.89s-.2-.1-.22-.15c-.02-.04-.04-.15-.04-.18s.07-.17.07-.21-.06-.27-.05-.32.11-.08.1-.13c-.01-.04-.27-.49-.3-.54s-.22-.19-.22-.19c0,0-.11-.01-.12-.07-.01-.06-.13-.54-.13-.54,0,0,.13-.42.11-.45-.02-.03-.23-.4-.23-.4l-.1-.9s-.52-.55-.51-.62-.04-.46-.03-.53c.01-.07-.15-.19-.15-.19,0,0-.11.07-.13-.04-.02-.11-.15-.58-.15-.58l.09-.16-.3-.08.29-.34h-.29s.01-.11.01-.15.12-.24.09-.29-.16-.15-.16-.15l.18-.46s.1-.13.1-.16-.3-.15-.3-.15l.28-.16-.21-.17.02-.15s-.06-.07-.04-.1c.02-.03.24-.13.26-.19.02-.06.02-.3.02-.3l-.28-.1s.27-.07.28-.14c.01-.06.03-.23.01-.27-.02-.04-.21-.11-.21-.11,0,0,.24-.08.24-.11s-.04-.22-.06-.26c-.02-.04-.14-.14-.14-.14,0,0,.18-.21.17-.24s-.32-.08-.3-.11c.02-.03.17-.18.15-.24s-.42-.64-.42-.64c0,0,.16-.07.19-.11.03-.04.06-.25.02-.27-.04-.02-.22.02-.24-.01-.02-.03-.03-.15-.03-.18s.38-.27.38-.3-.17-.24-.17-.24c0,0,.21-.03.21-.07s-.15-.24-.15-.24c0,0,.18-.06.19-.09.01-.03.04-.19.04-.19,0,0-.31.06-.3.03.01-.03.26-.24.2-.38s-.21-.28-.21-.28c0,0,.16-.07.15-.1-.01-.03-.37-.15-.37-.15,0,0,.18-.04.18-.14s.1-.14.1-.14c0,0-.26-.28-.2-.37s.36-.19.25-.23c-.1-.04-.3-.06-.31-.11-.01-.05-.01-.16-.01-.16l.12-.06-.32-.34s.3-.1.26-.16c-.04-.05-.39-.15-.39-.15,0,0,.33-.14.32-.2-.01-.06-.16-.24-.13-.25.03-.01.19-.05.19-.09s-.06-.23-.07-.26.14-.24.14-.24l-.12-.1.25-.07.06-.19s-.08-.24-.03-.25c.05-.01.24.04.24-.01s-.06-.25-.06-.25c0,0,.25-.27.22-.33-.03-.06-.15-.06-.11-.18.04-.11.23-.34.15-.46-.08-.11-.28-.18-.33-.28s.06-.22.06-.22l-.39-.42.09-.14s-.11-.07-.13-.11c-.02-.04.07-.24.02-.28-.05-.04-.24-.14-.24-.17s.1-.25.1-.25l-.12-.2s.12-.07.08-.09c-.04-.02-.38-.28-.37-.31.01-.03.07-.19.07-.19,0,0,.08-.09.03-.15-.05-.05-.36-.15-.36-.15l.13-.15-.07-.24s.13-.08.14-.14c0-.05-.04-.54-.07-.55-.03-.01-.18-.06-.18-.06l.09-.23s-.21-.1-.21-.15.02-.26.01-.3c-.01-.04-.28-.33-.28-.33,0,0-.04-.47-.07-.48-.03-.01-.15-.04-.16-.09-.01-.05-.1-.3-.08-.35.02-.05.01-.24,0-.27s-.1-.17-.1-.17l.09-.83h-.12Z"/></g></svg>