<svg width="44" height="33" viewBox="0 0 44 33" fill="none" xmlns="http://www.w3.org/2000/svg">
<path id="Vector" d="M1.95267 32.1265C1.95267 32.1265 1.82116 32.4705 1.83277 32.5447C1.84437 32.619 1.82116 32.8652 1.84437 32.9003C1.86758 32.9355 1.91399 33.0098 1.91399 33.0098C1.91399 33.0098 1.91399 32.7792 1.9372 32.7401C1.96041 32.701 2.08032 32.5838 2.10352 32.5369C2.12673 32.4861 2.15767 32.3219 2.18862 32.3219C2.21956 32.3219 2.47098 32.4118 2.50579 32.4118C2.5406 32.4118 2.61796 32.3532 2.63343 32.3298C2.6489 32.3063 2.66438 32.1969 2.66438 32.1969L2.65664 32.1305C2.65664 32.1305 2.86938 32.1539 2.939 32.1305C3.00862 32.107 3.03183 32.0484 3.03183 32.0484L3.09372 31.9507C3.09372 31.9507 3.16334 31.8842 3.17108 31.8608C3.17881 31.8373 3.23297 31.6654 3.26391 31.6654C3.29485 31.6654 3.31032 31.6967 3.33353 31.7396C3.35674 31.7787 3.36448 31.896 3.36448 31.896L3.44957 32.0171C3.44957 32.0171 3.5424 32.0327 3.58495 31.9937C3.62363 31.9546 3.6391 31.8373 3.66231 31.8217C3.68552 31.8061 3.71646 31.7631 3.75514 31.7826C3.79382 31.7983 3.84023 31.8647 3.84023 31.896C3.84023 31.9272 3.85571 32.0367 3.85571 32.0367L3.76287 32.1773C3.76287 32.1773 3.58882 32.2672 3.57334 32.2907C3.55787 32.3141 3.48825 32.4314 3.51919 32.447C3.55014 32.4626 3.6391 32.4548 3.73193 32.4392C3.82476 32.4236 3.92146 32.3415 3.9292 32.318C3.93693 32.2946 4.12646 32.0054 4.12646 32.0054C4.12646 32.0054 4.18835 31.8413 4.21156 31.8334C4.23476 31.8256 4.40882 31.767 4.40882 31.767C4.40882 31.767 4.46297 31.6029 4.46297 31.5716C4.46297 31.5403 4.43203 31.4231 4.43203 31.4231C4.43203 31.4231 4.60609 31.3918 4.63703 31.4387C4.66797 31.4895 4.7492 31.7983 4.82656 31.8139C4.90392 31.8295 4.93873 31.8217 4.96194 31.8139C4.98515 31.8061 5.02383 31.5833 5.02383 31.5833C5.02383 31.5833 4.94647 31.4778 4.94647 31.4426C4.94647 31.4075 4.90005 31.3098 4.93873 31.3098C4.97741 31.3098 5.20562 31.3097 5.22883 31.3019C5.25204 31.2941 5.29845 31.1456 5.29845 31.1456C5.29845 31.1456 5.2443 30.8017 5.29071 30.7861C5.33713 30.7704 5.5344 30.8916 5.5344 30.8916L5.62723 31.1378C5.62723 31.1378 5.58855 31.2511 5.6427 31.2042C5.69685 31.1534 5.77034 31.0088 5.79355 31.0401C5.81676 31.0714 5.85544 31.2785 5.88638 31.2785C5.91732 31.2785 6.01402 31.2472 6.00629 31.2199C5.99855 31.1925 6.08364 30.7626 6.1494 30.7431C6.21129 30.7274 6.29251 30.7274 6.29251 30.7274L6.30025 30.8681L6.50525 30.7939C6.50525 30.7939 6.52072 30.6454 6.5594 30.6532C6.59808 30.661 6.68704 30.6766 6.69478 30.704C6.70252 30.7313 6.7412 30.7861 6.7644 30.8017C6.78761 30.8173 6.86497 30.833 6.86497 30.8095C6.86497 30.7861 6.85723 30.489 6.88044 30.4969C6.90365 30.5047 6.90365 30.5868 6.95007 30.5789C6.99648 30.5711 7.12412 30.4304 7.12412 30.4304L7.19375 30.1686L7.41422 30.2428L7.50705 30.1373L7.46837 30.0709V29.938L7.39101 29.8481C7.39101 29.8481 7.33686 29.5628 7.3678 29.5628C7.39875 29.5628 7.4529 29.5941 7.4529 29.5941L7.51479 29.5706L7.5612 29.727C7.5612 29.727 7.59214 29.809 7.62309 29.8012C7.65403 29.7934 7.6695 29.6683 7.70045 29.6957C7.73139 29.7192 7.74686 29.7621 7.74686 29.809C7.74686 29.8559 7.73913 29.9654 7.73913 29.9654L7.83196 29.9146L8.01375 29.6449L8.37734 29.5628L8.40055 29.4495L8.18781 29.3518C8.18781 29.3518 8.19555 29.1564 8.22649 29.1564C8.25743 29.1564 8.60555 29.3713 8.64423 29.344C8.68291 29.3205 8.81828 29.2228 8.81828 29.2228C8.81828 29.2228 8.84149 29.0509 8.88017 29.0587C8.91885 29.0665 9.24376 29.1486 9.24376 29.1486L9.28244 29.0743C9.28244 29.0743 9.37527 29.0079 9.43329 28.9922C9.48744 28.9766 9.61508 29.0001 9.64603 28.9766C9.67697 28.9532 9.83556 28.8555 9.88197 28.8281C9.92839 28.8047 9.96707 28.6718 9.99414 28.664C10.0174 28.6561 10.1295 28.5741 10.1682 28.5741C10.2069 28.5741 10.4931 28.8594 10.4931 28.8594C10.4931 28.8594 10.5975 28.9102 10.6207 28.9102C10.644 28.9102 10.8258 28.8516 10.849 28.8125C10.8722 28.7734 11.1313 28.5663 11.1391 28.5428C11.1468 28.5194 11.3208 28.1168 11.3208 28.1168C11.3208 28.1168 11.3827 28.1481 11.4408 28.1481C11.4988 28.1481 11.5839 28.0426 11.6225 28.0152C11.6612 27.9918 11.7657 27.7846 11.7657 27.7846C11.7657 27.7846 11.932 27.6518 11.9784 27.6283C12.0248 27.6049 12.1138 27.5072 12.1215 27.5462C12.1293 27.5853 12.1525 27.6283 12.1293 27.6869C12.106 27.7456 11.9242 28.0309 11.9242 28.0309C11.9242 28.0309 11.9088 28.1051 11.932 28.1364C11.9552 28.1676 11.9784 28.2106 11.9939 28.1872C12.0093 28.1637 12.1447 27.9253 12.1834 27.8902C12.2221 27.855 12.3188 27.7573 12.3807 27.726C12.4426 27.6948 12.5625 27.644 12.5625 27.644L12.5702 27.4642L12.4774 27.3313C12.4774 27.3313 12.4387 27.2414 12.5006 27.2258C12.5625 27.2102 12.5702 27.175 12.5934 27.1867C12.6166 27.1945 12.721 27.3196 12.721 27.3196C12.721 27.3196 12.7984 27.343 12.841 27.343C12.8835 27.343 12.9531 27.3039 12.9531 27.3039C12.9531 27.3039 12.9918 27.4994 13.0073 27.5267C13.0227 27.5502 13.0537 27.6166 13.1001 27.64C13.1465 27.6635 13.2123 27.6713 13.2355 27.6713C13.2587 27.6713 13.2587 27.6557 13.3477 27.6557C13.4366 27.6557 13.4018 27.6049 13.4327 27.6557C13.4637 27.7065 13.4792 27.7456 13.4714 27.769C13.4637 27.7925 13.4173 27.8276 13.3863 27.8276H13.2742L13.251 27.8863C13.251 27.8863 13.2742 27.9371 13.3554 27.984C13.4366 28.0309 13.6532 28.0348 13.719 28.023C13.7809 28.0152 13.9627 27.9722 14.0168 27.9566C14.071 27.941 14.3262 27.8589 14.3262 27.8589L14.3495 27.769L14.2141 27.6479L14.1445 27.5814C14.1445 27.5814 14.1445 27.4173 14.1677 27.386C14.1909 27.3548 14.245 27.3118 14.3108 27.2805C14.3727 27.2492 14.5931 26.8311 14.6434 26.7646C14.6898 26.6982 14.7711 26.6239 14.8407 26.6005C14.9103 26.577 15.0225 26.5419 15.0689 26.5106C15.1153 26.4793 15.2971 26.1432 15.2971 26.1432L15.4325 26.1042C15.4325 26.1042 15.6916 26.3738 15.7071 26.3504C15.7226 26.3269 15.6994 26.2839 15.7535 26.2683C15.8077 26.2527 16.0707 26.2292 16.0707 26.2292C16.0707 26.2292 16.063 26.2878 16.1094 26.2878C16.1558 26.2878 16.268 26.2566 16.2757 26.2292C16.2834 26.2058 16.4265 26.0065 16.4343 25.983C16.442 25.9596 16.4111 25.8423 16.4884 25.8111C16.5658 25.7798 16.6857 25.729 16.7166 25.6782C16.7476 25.6274 16.8288 25.3655 16.883 25.3577C16.9371 25.3499 17.1034 25.3577 17.1034 25.3577C17.1034 25.3577 17.1576 25.2991 17.1963 25.2522C17.2349 25.2014 17.3394 24.9747 17.3781 24.9395C17.4167 24.9083 17.5831 24.7598 17.614 24.752C17.6449 24.7441 17.9621 24.6113 18.0008 24.5956C18.0395 24.58 18.2832 24.2908 18.2832 24.2674C18.2832 24.2439 18.2677 24.1462 18.2213 24.154C18.1749 24.1618 18.0008 24.1775 18.0163 24.1228C18.0317 24.068 18.0395 23.943 18.0627 23.9352C18.0859 23.9273 18.3373 23.7476 18.3373 23.7476C18.3373 23.7476 18.465 23.5092 18.4882 23.4936C18.5114 23.4779 18.6622 23.3294 18.7705 23.306C18.8827 23.2825 18.9291 23.2552 18.9678 23.2317C19.0065 23.2083 19.0451 23.1575 19.0451 23.1575C19.0451 23.1575 19.0142 23.4037 18.9601 23.4427C18.9059 23.4818 18.786 23.5248 18.7783 23.5561C18.7705 23.5873 18.7318 23.8414 18.7318 23.8687C18.7318 23.8961 18.7473 24.197 18.7473 24.2205C18.7473 24.2439 18.9136 24.5487 18.9136 24.5487L18.8982 24.6621C18.8982 24.6621 18.7783 24.7441 18.7705 24.7754C18.7628 24.8067 18.7241 24.8966 18.7396 24.9239C18.755 24.9513 18.9601 25.0881 18.9987 25.0802C19.0374 25.0724 19.0916 25.0568 19.1496 25.0724C19.2037 25.0881 19.285 25.1115 19.3314 25.0959C19.3778 25.0802 19.5596 25.0568 19.6485 25.006C19.7336 24.9552 19.9 24.6777 19.9232 24.6777C19.9464 24.6777 20.0972 24.5956 20.0972 24.6386C20.0972 24.6816 20.1591 24.8184 20.1591 24.8184L20.2442 24.8692L20.2984 24.8028C20.2984 24.8028 20.3835 24.451 20.4105 24.451C20.4376 24.451 20.4492 24.5018 20.5304 24.5018C20.6117 24.5018 20.7586 24.4628 20.7586 24.4628C20.7586 24.4628 20.7896 24.5136 20.7896 24.537C20.7896 24.5605 20.7973 24.6191 20.7741 24.6347C20.7509 24.6503 20.6155 24.791 20.6155 24.791L20.6387 24.8731C20.6387 24.8731 20.6619 24.9317 20.7006 24.9044C20.7393 24.8809 20.7857 24.8809 20.8437 24.8458C20.8979 24.8145 20.9056 24.6972 20.9056 24.6972C20.9056 24.6972 21.2035 24.5917 21.2383 24.5644C21.2692 24.5409 21.3504 24.451 21.3504 24.451C21.3504 24.451 21.4355 24.3846 21.4704 24.3924C21.5013 24.4002 21.6599 24.451 21.6754 24.451C21.6908 24.451 21.9345 24.3377 21.9732 24.3377C22.0119 24.3377 22.1008 24.3611 22.1086 24.412C22.1163 24.4628 22.124 24.5526 22.124 24.5526C22.124 24.5526 22.1704 24.6113 22.2169 24.6035C22.2633 24.5956 22.3522 24.5448 22.3832 24.5526C22.4141 24.5605 22.3987 24.6035 22.4451 24.6582C22.4915 24.7168 22.5379 24.709 22.5959 24.6738C22.6501 24.6425 22.6423 24.6152 22.7081 24.623C22.77 24.6308 22.7777 24.7129 22.8667 24.7051C22.9518 24.6972 23.1181 24.5331 23.1258 24.5917C23.1336 24.6503 23.1413 24.6972 23.1413 24.7402C23.1413 24.7832 23.0794 24.8536 23.0794 24.8536L23.0175 24.92C23.0175 24.92 23.0717 25.0607 23.1104 25.0412C23.149 25.0255 23.2922 24.9669 23.3154 24.9669C23.3386 24.9669 23.4585 25.0177 23.4817 24.9825C23.5049 24.9513 23.5861 24.7051 23.6248 24.7129C23.6635 24.7207 23.6789 24.7441 23.7022 24.7441C23.7254 24.7441 23.764 24.7207 23.7718 24.6777C23.7795 24.6386 23.7563 24.5057 23.8182 24.4393C23.8801 24.3729 23.969 24.3729 23.969 24.3729C23.969 24.3729 23.9768 24.2752 24.0155 24.283C24.0541 24.2908 24.1431 24.3729 24.174 24.3807C24.205 24.3885 24.3249 24.4041 24.4177 24.3885C24.5106 24.3729 24.6691 24.3143 24.7156 24.2986C24.762 24.283 24.82 24.24 24.8587 24.24C24.8974 24.24 25.2996 24.2791 25.3808 24.2791H25.7522C25.845 24.2791 25.9108 24.2713 25.934 24.2713C25.9572 24.2713 26.0926 24.3221 26.1158 24.3299C26.139 24.3377 26.2898 24.4784 26.3208 24.5175C26.3517 24.5566 26.5722 24.9513 26.6611 24.92C26.7501 24.8887 26.8429 24.8379 26.8429 24.8379C26.8429 24.8379 26.8816 24.5605 26.9048 24.5409C26.928 24.5253 27.0943 24.4276 27.1176 24.4002C27.1408 24.3768 27.1717 24.2517 27.2027 24.2947C27.2336 24.3338 27.2413 24.3846 27.2491 24.408C27.2568 24.4315 27.2645 24.623 27.2645 24.623L27.4695 24.7129C27.4695 24.7129 27.5314 24.5331 27.5701 24.5097C27.6088 24.4862 27.6552 24.4041 27.7055 24.3885C27.7519 24.3729 27.9801 24.24 28.0149 24.24C28.0497 24.24 28.3398 24.3533 28.363 24.3377C28.3862 24.3221 28.6609 24.0251 28.6879 24.0251C28.715 24.0251 28.8929 23.9742 28.8929 23.9742C28.8929 23.9742 29.272 24.0641 29.3107 24.0641C29.3494 24.0641 29.4538 24.0133 29.5466 24.0133C29.6395 24.0133 29.8135 24.0055 29.8445 24.0211C29.8754 24.0368 29.9798 24.1188 29.9953 24.154C30.0108 24.1853 30.0881 24.5566 30.1539 24.5409C30.2158 24.5253 30.3589 24.4354 30.3976 24.4354C30.4363 24.4354 30.4749 24.4667 30.5407 24.4589C30.6026 24.451 30.6335 24.4667 30.7148 24.408C30.796 24.3494 30.8656 24.3182 30.9352 24.3103C31.0048 24.3025 31.1093 24.2595 31.1093 24.2595C31.1093 24.2595 31.1093 24.1267 31.0706 24.1267C31.0319 24.1267 30.943 24.1188 30.8888 24.1188C30.8347 24.1188 30.7302 24.1579 30.707 24.1697C30.6838 24.1814 30.6529 24.2009 30.6297 24.1853C30.6064 24.1697 30.5678 24.1345 30.5678 24.111C30.5678 24.0876 30.5987 23.9313 30.6451 23.9313C30.6915 23.9313 30.765 23.9625 30.8269 23.9547C30.8888 23.9469 30.9275 23.9313 30.9855 23.9039C31.0397 23.8805 31.001 23.771 30.97 23.7398C30.9391 23.7085 30.9314 23.6733 30.8849 23.6733C30.8385 23.6733 30.6722 23.7398 30.6645 23.7046C30.6567 23.6733 30.6258 23.6303 30.6258 23.6069C30.6258 23.5834 30.6181 23.4662 30.6799 23.4662C30.7418 23.4662 30.7998 23.4896 30.8153 23.4662C30.8308 23.4427 30.9081 23.0402 30.9081 23.0402V22.6963C30.9081 22.5908 30.7341 22.2469 30.7031 22.2117C30.6722 22.1804 30.591 22.1062 30.591 22.1062C30.591 22.1062 30.5755 22.0749 30.5214 22.0827C30.4672 22.0905 30.3241 22.1413 30.3241 22.1413C30.3241 22.1413 30.1964 22.028 30.1964 22.0007C30.1964 21.9733 30.1964 21.7544 30.181 21.6958C30.1655 21.6372 30.1268 21.5747 30.1191 21.5473C30.1114 21.5239 30.0572 21.4652 30.0572 21.4418C30.0572 21.4184 30.0727 21.3206 30.0727 21.3206L30.1346 21.2229C30.1346 21.2229 30.1655 21.3206 30.181 21.3636C30.1964 21.4027 30.2583 21.477 30.2583 21.477C30.2583 21.477 30.328 21.5278 30.3357 21.477C30.3434 21.4262 30.3512 21.3441 30.3512 21.3441L30.4865 21.1956C30.4865 21.1956 30.4401 21.3597 30.4556 21.4105C30.4711 21.4613 30.6297 21.7779 30.6297 21.7779C30.6297 21.7779 30.6529 21.817 30.7341 21.8521C30.8115 21.8834 30.854 21.8756 30.9159 21.942C30.9778 22.0085 31.1209 22.0905 31.1364 22.157C31.1518 22.2234 31.1982 22.3446 31.1828 22.4266C31.1673 22.5087 31.1673 22.6494 31.1441 22.7315C31.1441 22.7315 31.0899 22.9191 31.0899 22.9855C31.0899 23.0519 31.0899 23.134 31.1209 23.1809C31.1518 23.2317 31.1982 23.2395 31.2137 23.2942C31.2292 23.3529 31.2524 23.3763 31.2679 23.3998C31.2833 23.4232 31.3452 23.431 31.3607 23.4584C31.3762 23.4818 31.4961 23.6225 31.5115 23.6616C31.527 23.7007 31.5193 23.9391 31.5657 23.9742C31.6121 24.0055 31.8326 24.0251 31.8906 24.0055C31.9448 23.9899 32.2465 23.9391 32.2929 23.9234C32.3393 23.9078 32.5907 23.8023 32.641 23.8023C32.6913 23.8023 32.8924 23.8257 32.9388 23.8179C32.9852 23.8101 33.198 23.5483 33.2212 23.5209C33.2444 23.4975 33.2599 23.3802 33.2599 23.3802C33.2599 23.3802 33.5035 23.3138 33.5345 23.3216C33.5654 23.3294 33.5964 23.388 33.6196 23.388C33.6428 23.388 33.7472 23.3216 33.7704 23.3294C33.7936 23.3372 33.8981 23.4936 33.8981 23.4936C33.8981 23.4936 34.018 23.5326 34.0335 23.5756C34.0489 23.6147 33.987 23.7085 34.0799 23.7085C34.1727 23.7085 34.2462 23.7007 34.2694 23.6577C34.2926 23.6186 34.2462 23.3724 34.2462 23.263C34.2462 23.1535 34.2617 22.8761 34.2617 22.8526C34.2617 22.8292 34.4202 22.6807 34.4744 22.6807C34.5285 22.6807 34.838 22.6728 34.838 22.6728C34.838 22.6728 34.9153 22.7627 34.9231 22.837C34.9308 22.9112 34.9463 22.9777 34.9695 23.0246C34.9927 23.0754 35.0894 23.1457 35.0894 23.1457L35.159 23.048C35.159 23.048 35.1358 22.9972 35.1668 22.966C35.1977 22.9347 35.1977 22.8683 35.2596 22.8683C35.3215 22.8683 35.3872 22.8683 35.4104 22.9191C35.4337 22.9699 35.4723 23.1145 35.5458 23.1653C35.6154 23.2161 35.6077 23.2552 35.7431 23.2552C35.8785 23.2552 36.2072 23.2708 36.2575 23.2473C36.3039 23.2239 36.5902 23.0676 36.6211 23.0246C36.6521 22.9855 36.6907 22.8292 36.6907 22.8292L36.6985 22.5165C36.6985 22.5165 36.4857 22.157 36.4857 22.1296C36.4857 22.1023 36.4857 22.0163 36.5012 21.9811C36.5167 21.9499 36.594 21.6958 36.6056 21.6607C36.6172 21.6255 36.6134 21.4731 36.6211 21.3832C36.6288 21.2933 36.536 20.965 36.5438 20.9142C36.5515 20.8634 36.536 20.6289 36.5438 20.5937C36.5515 20.5625 36.6559 20.3905 36.6559 20.3905C36.6559 20.3905 36.7255 20.5039 36.7333 20.5703C36.741 20.6367 36.7255 20.8829 36.7488 20.922C36.772 20.9611 36.9073 21.2581 36.9073 21.2894C36.9073 21.3206 36.9692 21.9928 36.9692 22.0671C36.9692 22.1413 36.9924 22.2703 37.0079 22.3524C37.0234 22.4345 37.0698 22.5751 37.093 22.6064C37.1162 22.6377 37.2903 22.7706 37.3135 22.7706C37.3367 22.7706 37.6461 22.54 37.6461 22.54C37.6461 22.54 37.6693 22.5908 37.6693 22.6142C37.6693 22.6377 37.6152 22.6807 37.6539 22.7041C37.6925 22.7276 37.8047 22.7197 37.8434 22.7432C37.8821 22.7666 37.9942 22.8643 38.0329 22.8565C38.0716 22.8487 38.1025 22.8487 38.1373 22.8174C38.1683 22.7862 38.2573 22.6768 38.265 22.6533C38.2727 22.6299 38.2573 22.5556 38.2727 22.5322C38.2882 22.5087 38.3269 22.4423 38.3269 22.4423C38.3269 22.4423 38.412 22.4657 38.412 22.5634C38.412 22.6611 38.412 22.7354 38.4429 22.8174C38.4739 22.8995 38.4739 22.9738 38.5048 23.0129C38.5357 23.0519 38.5744 23.0637 38.5976 23.0519C38.6208 23.0441 38.6905 22.9855 38.6905 22.9464C38.6905 22.9073 38.6363 22.8565 38.6673 22.7901C38.6982 22.7237 38.7601 22.6572 38.8026 22.6494C38.8413 22.6416 38.8955 22.626 38.9225 22.6572C38.9458 22.6885 38.9071 22.708 38.9457 22.6885C38.9844 22.6728 39.3248 21.8521 39.348 21.8287C39.3712 21.8053 39.553 21.7388 39.5762 21.7896C39.5994 21.8404 39.6768 22.1023 39.6768 22.1023C39.6768 22.1023 39.7464 22.0515 39.7619 22.0788C39.7774 22.1023 39.7928 22.1687 39.8315 22.1531C39.8702 22.1374 40.021 22.1374 40.0907 22.1531C40.1603 22.1687 40.3034 22.3993 40.3576 22.3993C40.4117 22.3993 40.4504 22.4149 40.4852 22.3758C40.5161 22.3368 40.5161 22.1296 40.5239 22.1062C40.5316 22.0827 40.6012 22.0319 40.636 22.0671C40.667 22.0984 40.7211 22.2703 40.7405 22.3133C40.7598 22.3563 40.8101 22.2742 40.841 22.2625C40.872 22.2547 40.9842 22.2312 41.0383 22.2039C41.0925 22.1804 41.2124 21.9811 41.251 22.0007C41.2897 22.0163 41.3361 22.0007 41.3439 22.0515C41.3516 22.1023 41.3748 22.2 41.3748 22.2C41.3748 22.2 41.4212 22.1609 41.487 22.1609C41.5527 22.1609 41.6533 22.2273 41.6688 22.2664C41.6843 22.3055 41.6843 22.5595 41.7461 22.5439C41.808 22.5282 41.9898 22.4384 42.013 22.4227C42.0362 22.4071 42.3534 22.1843 42.3611 22.1609C42.3689 22.1374 42.4308 21.9655 42.4308 21.9655C42.4308 21.9655 42.2335 21.4496 42.2645 21.3597C42.2954 21.2698 42.3495 20.7188 42.3495 20.7188C42.3495 20.7188 42.1678 20.4062 42.1678 20.3671C42.1678 20.328 42.1523 20.0701 42.191 19.9997C42.2296 19.9255 42.2683 19.8434 42.3186 19.8199C42.365 19.7965 42.6358 19.5972 42.7131 19.5737C42.7905 19.5503 43.0999 19.6558 43.0999 19.6558C43.0999 19.6558 43.1463 19.6245 43.1695 19.5737C43.1928 19.5229 43.2817 15.7946 43.2817 15.7946L43.3436 13.0394L43.3127 11.5465L43.274 10.7414L43.2121 7.60321L43.1193 3.92178L43.0574 1.38933L42.9878 0.850016L39.2977 0.728865H35.4646L28.8852 0.580358H27.0402L26.0461 0.717141L25.787 0.853925H25.3151L25.2339 0.717141C25.2339 0.717141 24.5841 0.59599 24.3829 0.580358C24.1818 0.568633 23.1181 0.470931 23.0446 0.470931C22.9711 0.470931 22.0041 0.53346 22.0041 0.53346V0.728865L21.8958 0.850016L21.7527 1.46359L20.6774 1.65899L20.7354 0.467023C20.7354 0.467023 17.9312 0.502195 17.908 0.467023C17.8848 0.43185 14.5467 0.259893 14.5467 0.259893L10.8103 0.0996612L7.33299 -0.00976562H5.97147L5.71232 4.28133L5.36807 9.19772L5.08571 13.5513L4.72986 18.3231L4.32759 23.3998L5.82836 25.8814L0.378418 29.3362L1.95267 32.1265Z" fill="#F3E9DD"/>
</svg>
