<?xml version="1.0" encoding="UTF-8"?><svg id="Layer_2" xmlns="http://www.w3.org/2000/svg" viewBox="0 0 464.66 580"><defs><style>.cls-1{fill:#f3e9dd;stroke-width:0px;}</style></defs><g id="_ÎÓÈ_1"><path class="cls-1" d="m0,175.75C.12,175.63,173.34,0,173.34,0l291.31,291.53-285.84,288.47s0-22.49,1.81-37.1c.71-5.71,1.69-11.38,2.89-17,.55-2.57,3.09-8.96,1.05-11.23-.67-.74-1.83-1.04-2.67-1.6-1.38-.91-1.46-1.43-1.76-3-.22-1.16-.67-2.34-.82-3.45-.19-1.37.33-2.67-.04-3.94-.4-1.39-1.66-1.57-2.31-2.76-1.01-1.86,1.3-3.47-.35-5.2-.72-.76-1.31-.48-1.72-1.76-.27-.84-.2-1.86-.15-2.73,2.73-.94,4.88-3.02,5.06-5.94.17-2.81.14-5.13,1.12-7.58,2.32-5.85-1.19-10.32-5.51-14.12-1.07-.95-4.64-3.1-4.48-.12.07,1.41,1.48,2.39,1.49,3.77,0,1.27-1.01,2.53-2.47,1.97-1.2-.46-1.58-2.44-1.81-3.61-.27-1.35-.35-2.38-1.02-3.61-.69-1.28-1.54-2.17-1.76-3.61-.23-1.44.15-2.99,0-4.44-.14-1.44-.77-2.83-.99-4.26-.19-1.2-.28-1.58-.99-2.46-.55-.68-1.65-1.13-1.45-2.27,4.64-.56-2.59-2.96-2.95-3.51-.83-1.25.87-1.52,1.94-1.45,1.38.11,2.66,1.13,3.66,1.92.83.66,1.61,1.77,2.75,1.85,1.45.1,1.56-.86,2.99.62,1.24,1.29,1.13,1.41,2.74.86,1.7-.57,1.63-.15,3.28.78,1.78,1,3.31.79,5.23.49,1.67-.26,3.38-.14,4.92-1.11,2.03-1.29,2.91-3.52,2.94-5.86.04-3.18.88-5.26,1.99-8.25,1.02-2.76,1.4-5.61,1.68-8.54.57-5.82.76-11.59-.21-17.38-.89-5.36-1.83-11.18-5.21-15.61-1.22-1.6-2.66-2.9-4.1-4.31-.83-.81-1.57-1.97-1.85-3.11-.28-1.16.24-2.68-.74-3.59-.87-.81-2.64-.68-3.79-.62-.45,1.13-.42,3.24-2.3,2.73-.51-1.07-1.23-2.23-2.5-2.6-.56-.16-3.21.34-2.63-1.15.45-1.15,6.36-.75,7.56-.81,1.21-.06,2.77.32,3.66-.61.84-.88.85-2.79.74-3.95-.26-2.73-1.1-5.81-2.47-8.26-1.95-3.5-3.24-7.21-6.03-10.2-1.61-1.73-10.04-12.96-12.52-9.2-.99,1.5.84,2.39,1.31,3.65.41,1.12.53,2.82.21,3.94-.44,1.53-1.49,1.77-2.95,2.43-.91.42-2.59,1.51-3.62,1.19-1.45-.45-3.95-4.32-4.63-5.72-1.48-3.06.49-5.2.05-8.08-.2-1.3-1.78-2.52-2.64-3.45-1.23-1.33-2.02-2.42-2.58-4.1-1.1-3.26-2.44-4.46-5.95-4.11-3.09.31-5.62.32-6.9-2.78-1.31-3.19-2.82-6.76-4.42-9.87-1.77-3.43-4.28-6.19-5.63-9.83-.46-1.23-1.08-2.17-.49-3.45.7-1.53,1.44-1.49.86-3.28-.43-1.32-1.17-2.62-1.6-3.95-.4-1.23-.36-2.52-.72-3.77-.67-2.36-2.68-3.24-3.09-5.91-.24-1.57-.52-2.09-1.31-3.45-1.31-2.26-.57-5.14-1.61-7.42-.82-1.82-3.83-4.9-5.78-5.22-1.25-.21-2.77.29-4.1.16-1.49-.13-2.81-.66-4.27-.82-2.1-.23-3.5-1.13-5.42-1.77-2.04-.68-4.43-.3-6.56-.52-4.94-.5-9.61-.39-14.4-1.82-4.53-1.35-8.89-3.39-12.65-6.27-5.03-3.85-10.3-6.59-14.65-11.28-1.85-2-3.6-3.9-5.38-5.92-1.62-1.83-4.02-3.18-5.33-5.21-1.35-2.1-1.13-4.85-1.93-7.26-1.15-3.43-3.06-7.34-5.08-10.34-.85-1.27-1.58-2.5-2.5-3.78-1.77-2.46-3.92-3.88-6.04-6.07-1.87-1.94-3.84-4.17-5.54-6.24-1.87-2.28-4.03-4.28-5.92-6.57-2.42-2.95-2.76-5.77-3.32-9.35-.33-2.12-1.48-4.44-2.31-6.4-.24-.56-3.45-5.1-3.82-4.72Z"/></g></svg>