<svg width="21" height="51" viewBox="0 0 21 51" fill="none" xmlns="http://www.w3.org/2000/svg">
<path id="Vector" d="M7.40696 7.11974L7.60261 6.99125C7.60261 6.99125 7.99389 6.39697 8.06263 6.32202C8.13137 6.24706 8.17896 5.80269 8.21069 5.71703C8.24241 5.63672 8.27414 5.37438 8.32173 5.28337C8.36932 5.19235 8.52266 5.02103 8.57025 4.95678C8.61784 4.89254 8.73417 4.54989 8.73417 4.54989C8.73417 4.54989 8.9774 4.57666 8.99326 4.51777C9.00912 4.45887 9.04085 4.0038 9.08844 3.90743C9.13603 3.81106 9.50088 2.89555 9.54318 2.8313C9.58019 2.76705 10.2464 2.04964 10.3099 2.00145C10.3733 1.95327 11.0184 1.59991 11.0184 1.59991C11.0184 1.59991 10.7911 1.29474 10.6642 1.25191C10.5373 1.20908 9.53789 0.64157 9.38984 0.577323C9.24178 0.513077 8.46978 0.229322 8.32702 0.165076C8.17896 0.10083 6.65612 -0.0758479 6.05332 0.0365832C5.45053 0.143661 4.34012 0.480954 3.75848 0.802186C3.09223 1.30009 2.32023 2.21025 2.12988 2.40834C1.93952 2.60644 1.5641 3.3185 1.46363 3.60226C1.35788 3.88601 1.25741 4.27684 1.25741 4.27684H0.86084V7.1251L1.0512 11.4082L1.53237 19.9904L1.92895 27.8124L2.36782 35.3988L2.74325 43.874L2.8913 46.2618L3.01821 48.216L3.14511 50.6306L11.6794 50.9143L18.2097 51H20.7319C20.7319 51 20.8799 50.652 20.8588 50.5021C20.8376 50.3522 20.6684 49.6562 20.6896 49.4581C20.7107 49.26 20.6473 48.8049 20.6684 48.655C20.6896 48.5051 20.7742 48.1999 20.7319 48.0661C20.6896 47.9376 20.5415 47.1292 20.5627 47.0649C20.5838 47.0007 20.4358 45.3677 20.4358 45.3677C20.4358 45.3677 20.5204 44.7788 20.3935 44.8484C20.2666 44.9127 19.9969 44.9769 19.9969 44.9769C19.9969 44.9769 19.9969 45.0626 20.0392 45.1268C20.0815 45.1911 20.1238 45.3249 20.1026 45.4106C20.0815 45.4962 20.0815 45.6943 20.0815 45.6943C20.0815 45.6943 20.2084 45.9138 20.1449 45.9781C20.0815 46.0423 20.1872 46.0852 20.0815 46.0423C19.9757 45.9995 19.8541 45.8924 19.8541 45.8924L19.7061 45.9352C19.7061 45.9352 19.7484 46.0637 19.7061 46.1333C19.6638 46.1976 19.5792 46.2832 19.5792 46.2832V46.6527L19.6003 46.824C19.6003 46.824 19.6426 47.0221 19.5157 46.9525C19.3888 46.8882 19.3888 46.7812 19.3465 46.7116L19.3042 46.6473C19.3042 46.6473 19.098 46.7758 19.135 46.6473C19.1773 46.5188 19.283 46.1708 19.1984 46.1708C19.1138 46.1708 19.0504 46.3207 18.9922 46.2779C18.9341 46.2351 18.8442 46.1494 18.8653 46.0584C18.8865 45.9727 18.9499 45.7532 18.9499 45.7532C18.9499 45.7532 18.9711 45.6461 18.823 45.6676C18.675 45.689 18.4264 45.6676 18.3418 45.6676C18.2572 45.6676 18.2149 45.7318 18.1515 45.7746C18.088 45.8175 18.0457 45.7532 17.9823 45.8603C17.9188 45.9674 17.9823 46.0316 17.8342 46.1441C17.6862 46.2511 17.5434 46.2297 17.48 46.2297C17.4165 46.2297 17.2896 46.2725 17.2314 46.3368C17.168 46.401 17.1891 46.4653 17.1468 46.5563C17.1045 46.642 17.0199 46.7276 16.9565 46.7276C16.893 46.7276 16.8084 46.7919 16.8084 46.8775C16.8084 46.9632 16.7238 47.2469 16.7238 47.3112C16.7238 47.3754 16.6604 47.5307 16.6604 47.5307C16.6604 47.5307 16.5123 47.5949 16.5123 47.4236C16.5123 47.2523 16.5758 46.8347 16.5758 46.8347C16.5758 46.8347 16.4489 46.7705 16.4912 46.6634C16.5335 46.5563 16.6181 46.4439 16.6181 46.4439L16.8454 46.4224C16.8454 46.4224 16.9935 46.3796 16.9935 46.294C16.9935 46.2083 16.93 45.946 16.93 45.946H16.7397C16.7397 45.946 16.5916 46.0102 16.4912 46.0102H16.2003L16.01 45.8603C16.01 45.8603 15.7826 45.796 15.6346 45.8603C15.4865 45.9245 15.3649 45.946 15.2591 45.946H15.0318L14.926 46.0745C14.926 46.0745 14.8203 45.9888 14.6986 45.9674C14.5717 45.946 14.429 45.9031 14.429 45.9031C14.429 45.9031 14.2228 45.598 14.3655 45.6194C14.5136 45.6408 14.7198 45.7479 14.8467 45.7264C14.9736 45.705 14.9948 45.6836 15.1164 45.6836C15.238 45.6836 15.2644 45.705 15.386 45.705H16.2215C16.3061 45.705 16.3272 45.6408 16.4118 45.6194C16.4965 45.598 16.7238 45.6194 16.7238 45.6194C16.7238 45.6194 16.8719 45.6408 17.0146 45.6408C17.1574 45.6408 17.2209 45.5551 17.2843 45.5123C17.3478 45.4695 17.3055 45.25 17.4324 45.25H17.5593L17.6439 45.2928C17.6439 45.2928 17.7073 45.0947 17.7073 45.0304C17.7073 44.9662 17.665 44.8324 17.7708 44.8591C17.8765 44.8805 17.8554 44.9662 17.9611 44.9662C18.0669 44.9662 18.5428 44.7681 18.5428 44.7681C18.5428 44.7681 18.6274 44.7681 18.7913 44.8109C18.9552 44.8538 18.9817 44.6824 18.9817 44.6824C18.9817 44.6824 19.0874 44.7253 19.1509 44.7467C19.2143 44.7681 19.2989 44.7253 19.2566 44.661L19.2143 44.5968C19.2143 44.5968 19.632 44.5754 19.5474 44.4897C19.4628 44.404 19.3412 44.2702 19.2143 44.2059C19.0874 44.1417 19.0451 44.0989 18.9658 44.1203L18.8072 44.1899C18.8072 44.1899 18.8019 44.2863 18.7701 44.3023C18.7384 44.3184 18.6591 44.3773 18.6538 44.3184C18.6485 44.2595 18.6855 44.1471 18.6168 44.1417C18.5481 44.131 18.5163 44.1417 18.4899 44.1256C18.4687 44.1096 18.3894 44.0293 18.3313 44.0293C18.2731 44.0293 18.1832 44.1042 18.1568 44.0935C18.1356 44.0828 18.088 44.0614 18.088 44.0186C18.088 43.9757 18.1832 43.9061 18.1409 43.8633C18.1039 43.8205 17.977 43.7883 17.977 43.7509C17.977 43.7134 17.977 43.5956 17.9294 43.5742C17.8818 43.5474 17.1415 43.4136 17.1627 43.3707C17.1838 43.3279 17.2314 43.2262 17.242 43.1673C17.2473 43.1084 17.0622 42.9317 17.1415 42.9371C17.2209 42.9478 17.2737 42.8728 17.2896 42.905C17.3055 42.9371 17.3901 43.0763 17.4165 43.0924C17.4377 43.1084 17.6121 43.1727 17.6968 43.1887C17.7814 43.2048 17.8712 43.3279 17.8977 43.3493C17.9294 43.3761 17.977 43.3922 18.014 43.3975C18.051 43.4029 18.289 43.2744 18.3101 43.3011C18.3313 43.3279 18.326 43.5795 18.363 43.6331C18.4 43.692 18.5216 43.7134 18.5798 43.7241C18.6432 43.7348 18.6591 43.7509 18.6432 43.6599C18.6274 43.5688 18.5798 43.4725 18.5798 43.4243C18.5798 43.3761 18.6432 43.3493 18.6591 43.3279C18.675 43.3011 18.4635 43.1566 18.4476 43.0816C18.4317 43.0067 18.4688 42.5677 18.4 42.4874C18.3313 42.4071 18.0933 42.3267 18.0722 42.2839C18.051 42.2411 17.9611 42.1875 17.977 42.1447C17.9929 42.1019 17.94 42.0644 18.0246 42.0483C18.1092 42.0323 18.1251 42.0483 18.1885 42.0323C18.252 42.0162 18.2995 41.8931 18.3154 41.9359C18.3313 41.9787 18.3101 42.1661 18.3524 42.1822C18.4 42.1982 18.6327 42.2786 18.6908 42.2571C18.7437 42.2304 18.7067 41.9573 18.7701 42.0055C18.8336 42.0537 18.9552 42.209 18.9975 42.1929C19.0345 42.1768 19.0504 42.0858 19.1244 42.0805C19.1932 42.0698 19.2196 42.0323 19.2566 42.0698C19.2936 42.1072 19.4364 42.2571 19.4998 42.2571C19.5633 42.2571 19.5844 42.1768 19.5844 42.1768C19.5844 42.1768 19.5051 41.9091 19.5633 41.9145C19.6162 41.9252 19.6796 41.9145 19.7431 41.9787C19.8065 42.043 19.8911 42.209 19.8911 42.2464V42.6962C19.8911 42.7711 19.9599 43.1834 19.9599 43.2423C19.9599 43.3011 19.833 43.4885 19.8277 43.5688C19.8224 43.6492 19.7907 43.8847 19.796 43.9436C19.8012 44.0025 19.796 44.1578 19.8277 44.1952C19.8594 44.2381 19.8911 44.2274 19.9387 44.2381C19.9863 44.2488 20.0339 44.2488 20.0392 44.2809C20.0445 44.313 20.0921 44.4201 20.0603 44.4201C20.0286 44.4201 19.8806 44.4362 19.8647 44.5004C19.8488 44.5647 19.8171 44.6075 19.8488 44.6128C19.8806 44.6236 20.1555 44.6021 20.2031 44.5807C20.2507 44.554 20.3194 44.4683 20.3353 44.4094C20.3512 44.3505 20.2243 43.4725 20.2348 43.4403C20.2401 43.4082 20.2877 43.2262 20.2877 43.1566C20.2877 43.087 20.2718 42.8568 20.2718 42.8568L20.0445 41.5879L19.9334 41.015L19.8647 39.2001L19.8488 38.7825C19.8488 38.7825 19.8012 38.4077 19.7642 38.3328C19.7272 38.2578 19.7008 38.1454 19.6796 38.1347C19.6585 38.124 19.5474 38.0276 19.5157 38.0597C19.484 38.0918 19.3359 38.6968 19.2989 38.7129C19.2619 38.729 19.2037 38.7397 19.1403 38.7022C19.0768 38.6647 18.9975 38.5737 18.9394 38.5897C18.8759 38.6058 18.5851 38.7182 18.5111 38.729C18.4317 38.7397 18.0246 38.6058 17.9876 38.5844C17.9506 38.563 17.1415 37.9098 17.0781 37.8937C17.0146 37.8777 16.8613 37.8456 16.7978 37.8188C16.7344 37.792 16.4277 37.1977 16.3907 37.1603C16.3537 37.1174 16.1951 37.0639 16.158 36.9996C16.121 36.9354 15.9783 36.6516 15.9783 36.6516C15.9783 36.6516 15.8778 36.6249 15.8143 36.5874C15.7509 36.5499 15.164 35.2329 15.1111 35.1526C15.0582 35.0723 14.4766 34.4298 14.3761 34.3548C14.2756 34.2799 13.842 34.0068 13.8103 33.9372C13.7786 33.873 13.5142 33.1716 13.5301 33.1235C13.5459 33.0753 13.805 32.0955 13.805 32.058C13.805 32.0206 13.7574 31.7261 13.7363 31.6351C13.7151 31.5441 13.6728 31.4905 13.6041 31.4049C13.5354 31.3246 13.2498 30.9551 13.2128 30.8909C13.1758 30.8266 13.2498 30.4894 13.1917 30.3609C13.1282 30.2324 12.8797 29.8308 12.8162 29.7398C12.7528 29.6488 12.3562 29.2205 12.2769 29.1455C12.1976 29.0706 11.4467 28.5994 11.4256 28.5245C11.4044 28.4495 11.2088 28.3264 11.2247 28.1979C11.2405 28.0694 11.1612 27.4644 11.1559 27.3734C11.1506 27.2824 11.2194 26.8862 11.2035 26.8113C11.1876 26.7363 11.0766 26.6881 11.1083 26.6346C11.1401 26.5757 11.1876 26.49 11.1876 26.4311C11.1876 26.3722 11.1559 26.2437 11.103 26.1688C11.0502 26.0938 10.9708 26.0403 10.9761 25.9707C10.9814 25.9064 10.992 25.7726 10.9761 25.6923C10.9603 25.612 10.8757 25.1783 10.8651 25.1301C10.8545 25.082 10.9867 24.4074 11.0131 24.3538C11.0343 24.3056 11.2141 23.9523 11.2722 23.8077C11.3251 23.6632 11.4467 23.3045 11.4309 23.1974C11.415 23.0903 11.3516 22.9029 11.3304 22.8547C11.3093 22.8066 11.1136 22.6567 11.0978 22.6192C11.0819 22.5763 11.0766 22.5121 11.0819 22.4907V22.4639C11.0819 22.4639 11.2775 22.2498 11.2987 22.1802C11.3198 22.1052 11.3304 22.1052 11.2934 22.0249C11.2564 21.9446 11.1453 21.8857 11.1348 21.8482C11.1295 21.8054 11.0978 21.7358 11.0978 21.6769C11.0978 21.618 11.103 21.3931 11.0978 21.361C11.0925 21.3289 10.5214 20.5044 10.495 20.4134C10.4738 20.3224 10.22 19.712 10.2041 19.6478C10.1883 19.5835 10.109 19.2141 10.0772 19.182C10.0455 19.1499 9.97677 19.0696 9.90274 19.0589C9.834 19.0481 9.80227 19.0589 9.74411 19.0267C9.69123 18.9946 9.54847 18.6091 9.48501 18.5717C9.42156 18.5288 9.23649 18.5288 9.17833 18.4806C9.12545 18.4325 8.96682 18.2772 8.96682 18.2772C8.96682 18.2772 8.89808 18.2451 8.88751 18.2879C8.88222 18.3307 8.92452 18.5395 8.92452 18.5717C8.92452 18.6038 8.88751 18.7269 8.88751 18.7269C8.88751 18.7269 8.80819 18.759 8.80291 18.7269C8.79762 18.6948 8.68658 18.4753 8.63899 18.4646C8.5914 18.4539 8.37461 18.4753 8.37461 18.4378C8.37461 18.4003 8.48565 18.2344 8.47507 18.1755C8.46978 18.1166 8.3323 17.9399 8.39047 17.9399C8.44863 17.9399 8.65485 17.9881 8.6337 17.9399C8.61255 17.8917 8.59669 17.7846 8.51737 17.6883C8.43806 17.5919 8.36932 17.4366 8.34288 17.4259C8.32173 17.4152 8.1631 17.4527 8.09965 17.3992C8.03619 17.3456 8.00447 17.3081 8.03091 17.2278C8.05206 17.1475 8.14724 17.0137 8.14724 16.9816C8.14724 16.9494 8.15252 16.9013 8.09965 16.7835C8.04677 16.671 7.88814 16.3819 7.85113 16.3605C7.81411 16.3337 7.78767 16.3284 7.72422 16.3284C7.66077 16.3284 7.62376 16.3712 7.56559 16.3552C7.51272 16.3391 7.36995 16.2267 7.36995 16.2267C7.36995 16.2267 7.42283 16.1785 7.48099 16.1678C7.53387 16.1571 7.62376 16.2106 7.68192 16.1838C7.74537 16.1571 7.79825 16.1249 7.81411 16.0768C7.82998 16.0286 7.79825 15.9054 7.7771 15.8787C7.75595 15.8519 7.518 15.7341 7.51272 15.6484C7.50743 15.5681 7.4757 15.3968 7.45984 15.3379C7.44398 15.279 7.3488 15.1505 7.31179 15.1024C7.27477 15.0542 7.06855 15.006 7.05269 14.9739C7.03683 14.9417 6.93636 14.8347 6.93636 14.7865V14.6098L7.36466 14.2618L6.86233 13.5711C6.86233 13.5711 6.67198 13.2874 6.67198 13.1696C6.67198 13.0518 6.80417 12.7681 6.82003 12.7199C6.8359 12.6717 6.84118 12.5807 6.88348 12.5807C6.92579 12.5807 7.11614 12.5486 7.21132 12.5486C7.3065 12.5486 7.62376 12.5057 7.6502 12.5004C7.67135 12.4897 7.76124 12.4094 7.76124 12.4094C7.76124 12.4094 7.67663 12.147 7.68192 12.0988C7.68721 12.0507 7.7348 11.8686 7.76124 11.7669C7.78239 11.6598 7.79825 11.2047 7.7771 11.1619C7.75595 11.1191 7.58146 11.0334 7.62905 10.9156C7.67663 10.8032 7.71365 10.6961 7.8194 10.6212C7.91987 10.5462 7.99389 10.4231 8.04677 10.2946C8.09965 10.1661 8.21069 9.87698 8.21069 9.80738C8.21069 9.73778 8.09436 9.47544 8.09436 9.47544C8.09436 9.47544 7.74009 9.33089 7.71894 9.30412C7.69778 9.27735 7.518 8.98824 7.49157 8.97218C7.47042 8.95612 7.12143 8.73661 7.10557 8.70449C7.0897 8.67236 6.89406 7.92818 6.90464 7.8907C6.90992 7.84787 7.03683 7.4731 7.10028 7.42491C7.16373 7.37673 7.39639 7.14116 7.42283 7.11439L7.40696 7.11974Z" fill="#F3E9DD"/>
</svg>
