<?xml version="1.0" encoding="UTF-8"?><svg id="Layer_2" xmlns="http://www.w3.org/2000/svg" viewBox="0 0 59.44 95.25"><defs><style>.cls-1{fill:#f3e9dd;stroke-width:0px;}</style></defs><g id="_ÎÓÈ_1"><path class="cls-1" d="m.9,93.95c-.11,0-.29.1-.41,0-.11-.1-.53-.33-.49-.2.04.13.1.48.13.53.03.05.26.18.31.18s.37-.13.44-.12c.06.02.08.17.19.23s.26-.07.37,0c.11.07.83.73.88.63.05-.1.39-.48.49-.58.1-.1.36-.12.37-.23.02-.12.16-.3.06-.48-.1-.18-.1-.45-.21-.58-.11-.13-.53-.38-.39-.63.15-.25.34-.7.44-.77.1-.07.28-.33.41-.32.13.02.39.15.45.27.06.12.47.77.53.82.07.05.41.15.52.15s.26-.03.52-.13.45-.27.52-.27h.62c.15,0,.62-.22.71-.17.1.05.21.35.21.4s-.23.62-.23.7,0,.43.03.48c.03.05.24.25.41.25s.57-.07.65-.13c.08-.07.55-.8.55-.8,0,0-.06-.52-.13-.65-.06-.13-.39-.33-.42-.42-.03-.08-.15-.33-.11-.42.03-.08.37-.45.39-.57.02-.12-.08-.43.13-.47.21-.03.34.08.37.18.03.1.26.58.32.7.06.12.88.63.88.63,0,0,.78-.52.88-.57.1-.05.21-.18.31-.23.1-.05.52-.02.58-.02s.49.3.86.43c.37.13,1.51,1.02,1.59,1.08.08.07.84.77.94.8.1.03.91.1,1.05.23.15.13.31.32.36.52.05.2.15.67.28.72.13.05.4.14.52.08.11-.06.68-.41.7-.54.02-.13.39-1.42.39-1.48s-.05-.43.02-.57c.06-.13.24-.37.41-.47.16-.1.53-.32.78-.4.24-.08,1.07-.22,1.23-.3.16-.08.75-.9.94-1,.19-.1.52-.3.7-.25.18.05.41.18.45.28.05.1.65,1.58.75,1.77.1.18.28.38.41.42.13.03.29,0,.47-.12.18-.12.53-.28.63-.28s.32,0,.32.25-.41,1.12-.26,1.25c.15.13.31.13.49.1.18-.03.65-.35.71-.53.07-.18.07-.95.07-1s.11-.27.28-.27.7.08.91.03c.21-.05.41-.13.42-.27.02-.13,0-.48-.1-.6-.1-.12-.29-.38-.23-.58.06-.2.11-1.3.21-1.4.1-.1.31-.22.47-.22s.53.02.7-.1.37-.43.36-.58c-.02-.15-.08-.35-.18-.42-.1-.07-.34-.25-.37-.4-.03-.15.07-.37.18-.38.11-.02.36-.02.42.08.06.1.41.43.53.35.13-.08.26-.48.42-.48s.66,0,.73-.07c.06-.07.41-.43.21-.57-.19-.13-.91-.32-.91-.47s-.1-.35.05-.43.32-.12.41-.02c.08.1.99.73,1.05.78.07.05.28.45.29.65.02.2-.05.78-.1.97-.05.18.16.7.21.78.05.08.89.8,1.12.93.23.13.66.28.73.28s.65-.13.75-.12c.1.02.57.1.6.2.03.1.84,1.07.84,1.07,0,0,.19,0,.18-.1-.02-.1-.08-.45.03-.55.11-.1,1.51-.4,1.64-.48.13-.08.44-.53.45-.6.02-.07.28-1.53.26-1.65-.02-.12-.21-1.38-.08-1.53.13-.15.37-.63.47-.77.1-.13.55-.55.66-.72.11-.17.21-1,.29-1.07.08-.07.26-.23.44-.27.18-.03.34-.08.45-.03.11.05.31.25.37.3s.19.12.37.03c.18-.08.79-.38.83-.43.03-.05.7-.93.76-1.07.07-.13.26-.88.28-1.05.02-.17.1-.75.19-.95.1-.2.39-.65.71-.77.32-.12,1.09-.27,1.3-.37.21-.1.41-.35.49-.52.08-.17.28-.57.32-.62.05-.05.63-.37.7-.5.06-.13.32-.55.18-.77-.15-.22-.37-.85-.37-.95s-.02-1.17-.05-1.3c-.03-.13-.34-.68-.31-.92.03-.23.26-.78.36-.83.1-.05.23-.13.39-.1.16.03.83.13,1.05.1.23-.03.81-.22.92-.23.11-.02.73,0,.84.12.11.12.68.92.76.97.08.05.42.18.62.13.19-.05.71-.22.79-.3.08-.08.92-.97,1.17-1.1.24-.13,1.18-.77,1.41-.77s.66.03.94-.03c.28-.07.83-.32.99-.32s.86.15.96.15.31-.13.26-.27c-.05-.13-.36-.72-.32-.82.03-.1.36-.5.44-.55,0,0,.21-.18.21-.25s.23-.4.08-.57c-.15-.17-.63-.35-.71-.35s-.63,0-.7-.08c-.06-.08-.15-.2-.15-.35s.42-.67.52-.77c.1-.1.21-.35.21-.5s-.36-.92-.5-1.1c-.15-.18-.66-.78-.65-.9s.34-.45.5-.58l.88-.67-.06-9.65-.06-12.45-.02-11.84-.19-14.85-.29-14.71-17.07.22-12.4-.22-5.06.11s-1.45.66-1.47.71-.08.2-.16.27c-.08.07-2.14,1.05-2.19,1.07-.05.02-1.04.47-1.06.48-.01.02-1.08.4-1.31.45-.23.05-1.49.22-1.56.23-.06.02-.76,0-.76,0,0,0-1.38-.45-1.43-.5-.05-.05-.34-.08-.39-.1-.05-.02-.36-.18-.34-.28.02-.1.37-.42.39-.47s-.13-.08-.13-.08l-.26.33-.16-.23s-.13.12-.18.07c-.05-.05-.88-.7-.88-.7l-.21-.3-.16,10.32-.18,11.55-.26,11.79-.21,12.35-.15,10.47h-.13s.05-.05-.05,0c-.1.05-.07.15-.16.18-.1.03-.53.05-.6.13-.06.08-.36.53-.39.58-.03.05-.32.07-.23.15.1.08.39.1.34.2-.05.1-.15.17-.13.35.02.18-.03.35.02.52.05.17.11.3.18.3h.33s0,0,0,0c0,0,0,0,0,0,0,0-.03.04-.06.18-.05.23.03.75.02.8-.02.05-.5.53-.5.53,0,0-.17-.1-.21,0-.05.1.02.23-.09.32s-.36.15-.31.2c.05.05.21.2.16.2s-.28-.1-.28,0-.19.37-.18.45c.02.08.08.12.18.18.1.07.16.25.11.27-.05.02-.29.15-.29.15,0,0,.24.2.33.2s.36-.02.34.1-.11.35-.02.38c.1.03.32.08.39.13.06.05.37.5.37.57s-.08.27-.08.4.16.38.16.47-.15.47-.15.47c0,0,.19.17.15.18-.05.02-.24.08-.13.13.11.05.73.37.73.37,0,0,.31.38.31.43s-.13.25-.11.32c.02.07.06.3.05.35-.02.05-.16.25-.16.25,0,0,.18.22.15.28-.03.07-.37.18-.39.23-.02.05.11.33.06.33s-.13.12-.13.12c0,0,.03.12-.02.18-.05.07-.21.15-.13.18.08.03.36.25.39.32.03.07.15.4.15.47s-.13.23-.1.28c.03.05.45.58.45.63s.06.18,0,.25c-.06.07-.21.22-.21.22,0,0,.29.1.24.15-.05.05-.13.27-.11.32.02.05.23.15.11.25-.11.1-.32.48-.34.55s-.13.58-.23.68c-.1.1-.23.17-.36.22-.13.05-.78.25-.81.3-.03.05-.11.33-.24.43s-.19.1-.24.2c-.05.1-.16.78-.13.83.03.05.23.25.19.3-.03.05-.44,0-.44,0,0,0,0,.3-.05.4-.05.1-.18.43-.24.5s-.28.13-.26.2c.02.07.34.63.34.7s-.05.25-.05.25c0,0-.28-.03-.29,0,0,.02-.05.02-.08.01.03.03-.17.23-.26.34-.1.12-.24.2-.37.25-.13.05-.47.05-.55.08-.08.03-.11-.02-.23.15-.11.17,0,.33,0,.33l.26.12s.13.08.05.18c-.08.1-.11.08-.15.22-.03.13.02.35-.05.5-.06.15-.44.88-.68,1.02-.24.13-.42.07-.53.23-.11.17-.19.25-.26.43-.06.18-.15,1.07-.21,1.17-.06.1-.18.37-.26.38-.08.02-.24.02-.28-.15s-.02-.7-.1-.65c-.08.05-.76,1-.76,1,0,0-.13-.08-.13-.18s.11-.45.11-.45c0,0-.1-.18-.24-.1-.15.08-.37.32-.41.42-.03.1.03.12,0,.17-.03.05,0,.25,0,.32,0,.07-.12.02-.15.13-.03.12,0,.38-.08.32-.08-.07-.28-.67-.44-.42s.11,1.43.11,1.43c0,0,.08.25.18.32s.49.22.49.28.07.28.07.28c0,0,.23-.17.26-.12.03.05.19.13.08.23-.11.1-.55.67-.55.67,0,0-.36-.07-.41,0-.05.07-.1.35-.18.4-.08.05-.45.13-.52.17-.06.03-.18.22-.18.22l.16.27s.84-.37.84-.32.13.18.08.32c-.05.13-.03.28-.16.38-.13.1-.78.45-.83.45s-.31.02-.37,0c-.06-.02-.24.03-.21.15.03.12.1.28.15.3.05.02.41.07.37.12-.03.05-.29.27-.24.45.05.18.37.7.21.85s-.36.38-.36.38c0,0,.03.53-.03.58-.06.05-.15.12-.24.1-.1-.02-.21-.17-.24-.12-.03.05-.1.13-.1.22s.32.13.49.18c.16.05.32,0,.36.12.03.12.02.42.02.42,0,0-.21-.08-.29-.08s-.39.18-.44.08c-.05-.1-.47-.43-.52-.33-.05.1.37,1.13.44,1.18.06.05.7.37.63.53-.06.17-.06.23-.18.23Z"/></g></svg>