<?xml version="1.0" encoding="UTF-8"?><svg id="Layer_2" xmlns="http://www.w3.org/2000/svg" viewBox="0 0 114.11 66.67"><defs><style>.cls-1{fill:#f3e9dd;stroke-width:0px;}</style></defs><g id="_ÎÓÈ_1"><path class="cls-1" d="m45.21,65.07c.08.09.68.26.68.26l.14-7.33,8.39.12.54-.14,19.97-.17,18.03-.49,15.07-.81,6.08-.43-1.01-16.43-1.07-16.75-1.27-19.44-.23-3.45-6.68.43-4.17.23-5.18.2-13.41.52-15.75.29h-26.23l-12.08-.43-13.92-.58L.87,0,.14,11.91l-.14,2.46.23.14,1.04,1.77h.2s.23.12.23.29.08,1.04.08,1.04h.45s.08.41.14.49c.06.09.45.26.42.38-.03.12-.23.52-.14.61.08.09.23.12.28.32.06.2.17.35.06.46-.11.12-.45.26-.45.35s-.11.35-.11.35l.42.26-.06.17.14.43h.25l.25.2-.08.17s-.59-.06-.7,0c-.11.06-.39.38-.39.38l.82.35.14.29s.42-.2.48,0,.51.87.51.87c0,0,.31.61.39.64.08.03.45.17.45.17h.25c.2.12.9.26.9.26,0,0,.06.2.06.29s.11.32.11.32c0,0,.03.32.06.41.03.09.34.2.34.2l.23.32.37.35.2.38h.31s.03.43.03.52.45.46.45.46l.25.93h.34s.25.43.34.55c.08.12.37.29.37.29v.52l-.2.17.25.26-.08.26.25.17.03.2h.31s.14.23.23.29c.08.06.28.06.39.14.11.09.25.23.25.32s-.14.7-.14.7h.42l.23-.17.14-.23h.25l.39.41-.11.64.25.41.65-.2.28.2h.39s.11-.2.28-.23c.17-.03.62-.06.7-.03.08.03.42.26.42.26l-.03.55-.2.17.08.26-.14.26-.06.44s-.51.2-.51.31.23.72.17.84c-.06.12-.39.64-.39.72v.67l-.28.41.08.41h-.34l-.08.41.23.38-.08.75h-.65s-.08.32-.03.46l.06.14.48.32s0,.61-.08.64-.31.14-.31.14l-.08.29.28.14-.06.29s.11.09.28.17c.17.09.37.26.37.26l-.06.35s-.2.12-.14.2.31.67.31.67l-.17.46s-.11-.14-.28-.14-.65-.12-.76.14c-.11.26-.51,1.04-.51,1.04,0,0,.23.12.23.2s-.11.23-.03.32c.08.09.37.38.37.38,0,0,0,.2-.03.35-.03.14.17.32-.03.38-.2.06-.56.26-.56.35s.2.43.2.43l-.23.64h.93s-.08.2,0,.26c.08.06.2.06.23.14.03.09.14.35.14.35l.51.26.25.46.68-.32s.23-.87.31-.84c.08.03.48.12.48.12,0,0,.11-.14.2-.14s.39-.06.39-.06l.14-.32.23-.09.39-.64.39-.32-.06-.43s.14-.17.23-.2c.08-.03.28-.14.28-.06s.11.26.11.26l.31-.03s-.03.17,0,.26c.03.09.31.38.31.38l-.03.43.42-.06.11.14.2.06.14.29-.28.99.56.06.14.38-.2.52.11.32-.08.32s.34.2.34.32-.17.7-.08.81c.08.12.54.7.54.7,0,0-.11.17-.08.29.03.12.85,1.04.85,1.04l-.03.41.28.26-.03.23.2.14s.37-.12.37,0-.2.38-.08.43c.11.06.39-.2.37,0-.03.2-.06.35-.06.35l.34.17s-.08.2,0,.32c.08.12.14.96,0,1.01-.14.06-.54.06-.51.2.03.14.34.96.34.96l.34.26v.23s.39-.2.45,0c.06.2.23.58.23.58l.11.17.99-.41.99.7.14.35s.08.46.14.58c.06.12.34.26.37.46.03.2.11.61.11.61l-.31.43.45.58-.08.26s.28.17.28.32-.06.41-.06.55.28.61.42.75c.14.14.48.41.48.41h.34s.14.58.25.61c.11.03.45-.12.42-.32-.03-.2-.11-.7-.06-.81.06-.12.42-.49.62-.58.2-.09.54-.2.54-.2,0,0,.25.14.45.17.2.03.99,0,1.1.03.11.03.62.35.62.35,0,0,.08-.26.2-.17.11.09.17.32.31.35.14.03.48.29.51.09.03-.2.25-.7.25-.7,0,0-.03-.55.11-.55s.42.06.56-.03c.14-.09.31-.32.42-.29.11.03.08.14.2.2.11.06.73.09.82.09s.37.23.37.23l.37-.2.34.14.11-.23.45.12s.11-.26.31-.26.59-.2.7-.06c.11.14.48.75.48.75l.23-.2s.54.03.59-.06c.06-.09.17-.35.37-.35s.7.09.79.09.34-.12.51-.12.45.12.48.2c.03.09.56-.12.56-.12,0,0-.17-.09-.34-.23-.17-.14-.28-.52-.28-.52l.28-.29v-.26s.03.03.11-.03c.08-.06.23-.46.23-.46,0,0-.11-.32-.11-.41s.23-.32.42-.23l.2.09.2-.41s.2-.2.23-.09c.03.12.17.29.17.29,0,0,.25-.06.31.03.06.09.48.84.48.84l-.03.35.2.03.34.32s-.14.12-.14.23.14.41.14.41l.25.17.28.35s.31.12.34.2c.03.09-.03.38.06.46Z"/></g></svg>