<svg width="44" height="27" viewBox="0 0 44 27" fill="none" xmlns="http://www.w3.org/2000/svg">
<path d="M38.6599 0.00755701C38.6599 0.00755701 13.7935 0.574332 1.29301 0.00755701C1.0272 6.46502 0.36084 26.4797 0.36084 26.4797C0.36084 26.4797 10.3744 27.0427 16.1385 26.9974H30.842L39.887 26.7934L43.3134 26.6347C43.3134 26.6347 43.3571 26.5855 43.3608 26.5326C43.3644 26.476 43.2078 25.8979 43.2297 25.8374C43.2515 25.7769 43.2952 25.6182 43.3025 25.6031C43.3098 25.5918 43.3535 25.4444 43.3353 25.3651C43.3171 25.2857 43.1787 24.7983 43.1787 24.787C43.1787 24.7756 43.1824 24.6207 43.1751 24.5981C43.1678 24.5754 43.1022 24.5111 43.1059 24.4809C43.1095 24.4507 43.1241 24.2996 43.1168 24.2618C43.1095 24.224 43.0513 24.1786 43.0476 24.1522C43.044 24.1257 43.0294 23.9973 43.0294 23.9973C43.0294 23.9973 43.1132 23.9368 43.0986 23.9179C43.084 23.899 43.0185 23.8612 43.0149 23.8461C43.0112 23.831 42.993 23.7403 43.0003 23.729C43.0076 23.7177 43.044 23.6988 43.0367 23.6761C43.0294 23.6572 43.0039 23.5854 43.0039 23.5854C43.0039 23.5854 43.0367 23.5665 43.0331 23.5552C43.0294 23.5438 42.9821 23.5174 42.9821 23.4985C42.9821 23.4796 43.0185 23.3474 43.0149 23.3247C43.0112 23.302 42.9093 23.0602 42.8838 23.0526C42.8619 23.0451 42.7236 23.0149 42.7236 22.9997C42.7236 22.9846 42.7381 22.9431 42.7236 22.9204C42.709 22.8977 42.5888 22.7919 42.5815 22.7693C42.5743 22.7466 42.516 22.5803 42.516 22.5803L42.425 22.5048L42.4359 22.433L42.3631 22.4481V22.2894H42.2975C42.2975 22.2894 42.2793 22.1987 42.2793 22.1798C42.2793 22.1609 42.323 22.1005 42.3157 22.074C42.3084 22.0476 42.2975 21.9871 42.272 21.9758C42.2465 21.9644 42.1701 21.9078 42.1701 21.9078L42.181 21.7982L42.1373 21.7302C42.1373 21.7302 42.1919 21.6999 42.1919 21.6886C42.1919 21.6773 42.1264 21.5601 42.1264 21.5375C42.1264 21.5148 42.1373 21.4128 42.1337 21.3977C42.13 21.3825 42.0863 21.3599 42.09 21.3448C42.0936 21.3334 42.1191 21.3108 42.1118 21.2919C42.1045 21.2767 42.0645 21.2503 42.0754 21.2087C42.0863 21.1709 42.09 21.0992 42.079 21.0765C42.0681 21.0538 42.0171 21.0123 42.0171 21.0123L42.039 20.9782C42.039 20.9782 41.9698 20.9556 41.9807 20.948C41.9917 20.9405 42.0171 20.8989 42.0062 20.8913C41.9953 20.8838 41.9407 20.8838 41.9407 20.8838C41.9407 20.8838 41.9589 20.8158 41.9407 20.7969C41.9225 20.778 41.897 20.7251 41.897 20.7251L41.8861 20.6949L41.8569 20.676L41.8496 20.6344L41.7987 20.6193L41.7914 20.5891C41.7914 20.5891 41.8242 20.5135 41.8205 20.5022C41.8169 20.4908 41.7586 20.385 41.7586 20.385L41.795 20.2566L41.7659 20.2188C41.7659 20.2188 41.8387 20.1508 41.8351 20.1243C41.8314 20.0979 41.8278 20.0034 41.8278 20.0034L41.8023 19.9769C41.8023 19.9769 41.846 19.8182 41.846 19.8069C41.846 19.7956 41.8169 19.7842 41.8169 19.7842C41.8169 19.7842 41.8496 19.4895 41.8424 19.4555C41.8351 19.4253 41.7841 19.3762 41.7841 19.3762L41.8169 19.3346L41.7695 19.3233C41.7695 19.3233 41.8242 19.293 41.8023 19.2552C41.7805 19.2212 41.7331 19.1797 41.7331 19.1797C41.7331 19.1797 41.7186 19.0588 41.7186 19.0474C41.7186 19.0361 41.7695 18.9076 41.7695 18.9076L41.806 18.8925L41.7768 18.8434L41.8023 18.8245L41.795 18.7867C41.795 18.7867 41.8314 18.764 41.8314 18.7527C41.8314 18.7414 41.846 18.6847 41.846 18.6847L41.806 18.6771C41.806 18.6771 41.8205 18.6545 41.8205 18.6205C41.8205 18.5865 41.8023 18.5638 41.806 18.5298C41.8096 18.4958 41.8314 18.4504 41.8351 18.4391C41.8351 18.4278 41.8751 18.4391 41.8751 18.4164C41.8751 18.3938 41.8387 18.2917 41.8424 18.2691C41.846 18.2464 41.9334 18.1066 41.9334 18.1066L41.9079 18.0575L41.9334 18.0272L41.8861 17.963L41.806 18.0235L41.7331 18.0008L41.7186 17.8534C41.7186 17.8534 41.6639 17.8685 41.6639 17.8421C41.6639 17.8156 41.6785 17.6834 41.6785 17.6834C41.6785 17.6834 41.653 17.6947 41.6385 17.6909C41.6239 17.6872 41.5511 17.6607 41.5511 17.6494C41.5511 17.6381 41.5365 17.3622 41.5365 17.3622L41.4491 17.3282L41.5511 17.1544L41.5183 17.0977L41.5729 17.041L41.5474 16.9844C41.5474 16.9844 41.5037 16.9768 41.5037 16.9617C41.5037 16.9466 41.5329 16.8068 41.5329 16.8068L41.4855 16.7199L41.5365 16.633L41.5001 16.5914L41.5329 16.4252L41.4273 16.3231C41.4273 16.3231 41.4964 16.2816 41.4964 16.2627C41.4964 16.2438 41.4163 16.0549 41.4163 16.0549L41.4746 16.0284L41.4564 15.968L41.5037 15.9339L41.4564 15.8508L41.471 15.7866L41.4491 15.7752L41.4345 15.7148L41.3908 15.6808L41.4527 15.6166L41.4018 15.4881L41.3508 15.4692L41.3945 15.4163L41.3726 15.3672L41.4018 15.3256L41.3617 15.2765L41.3981 15.2009L41.3581 15.1594C41.3581 15.1594 41.3654 15.1178 41.3508 15.0913C41.3362 15.0687 41.3217 15.0158 41.3217 15.0158C41.3217 15.0158 41.3544 14.9515 41.3544 14.9402C41.3544 14.9289 41.3435 14.8609 41.3435 14.8495C41.3435 14.8382 41.3654 14.7551 41.3654 14.7399C41.3654 14.7248 41.3326 14.6379 41.3362 14.6266C41.3399 14.6152 41.3836 14.5321 41.3836 14.5321L41.3326 14.4981L41.3799 14.4377L41.3035 14.347C41.3035 14.347 41.3617 14.2979 41.3508 14.2903C41.3399 14.2827 41.2561 14.1958 41.2561 14.1958L41.3326 14.1618C41.3326 14.1618 41.2707 14.0976 41.278 14.0863C41.2852 14.0749 41.3399 14.0447 41.3399 14.0447L41.2998 13.9465L41.3362 13.8973L41.2852 13.7991L41.2197 13.8066C41.2197 13.8066 41.1796 13.7537 41.1796 13.7386C41.1796 13.7235 41.2197 13.6442 41.2233 13.6328C41.227 13.6215 41.2088 13.5535 41.2088 13.5535C41.2088 13.5535 41.2233 13.459 41.2233 13.4439C41.2233 13.4288 41.1942 13.4023 41.1942 13.3872C41.1942 13.3721 41.2124 13.3532 41.2124 13.3381C41.2124 13.323 41.1942 13.2739 41.2015 13.255C41.2088 13.2361 41.2197 13.2134 41.2197 13.2134L41.1724 13.1908L41.2015 13.1416C41.2015 13.1416 41.1724 13.1076 41.1833 13.0925C41.1942 13.0812 41.2197 13.0661 41.227 13.0434C41.2343 13.0245 41.2343 13.0094 41.2343 12.9792C41.2343 12.9489 41.2416 12.9036 41.227 12.8923C41.2124 12.8809 41.1578 12.862 41.1578 12.862L41.1177 12.7865C41.1177 12.7865 41.1979 12.7336 41.1942 12.7147C41.1906 12.6958 41.1796 12.6504 41.1833 12.6202C41.1869 12.59 41.1942 12.5182 41.1869 12.488C41.1796 12.4577 41.1833 12.1479 41.1833 12.1479C41.1833 12.1479 40.9794 11.8645 40.983 11.8532C40.9867 11.8418 41.0194 11.7889 41.0194 11.7625C41.0194 11.736 40.9903 11.5395 40.9867 11.5244C40.983 11.5131 40.79 11.2902 40.79 11.2902L40.7718 11.1466H40.7354C40.7354 11.1466 40.7791 11.071 40.7791 11.0559C40.7791 11.0408 40.7136 10.9728 40.7136 10.9728L40.7208 10.8519L40.6735 10.8179L40.7172 10.7952L40.6735 10.7007C40.6735 10.7007 40.5643 10.6478 40.5606 10.6365C40.557 10.6251 40.5424 10.5042 40.5424 10.5042L40.3713 10.3758L40.4259 10.2889L40.4332 10.202L40.3858 10.1717L40.262 9.83544C40.262 9.83544 40.1892 9.79766 40.1819 9.77877C40.1747 9.76365 40.1674 9.72209 40.1674 9.71075C40.1674 9.69942 40.1929 9.64652 40.1929 9.6314C40.1929 9.61629 40.171 9.52938 40.1747 9.51049C40.1783 9.4916 40.2147 9.48026 40.2111 9.46137C40.2074 9.44626 40.1128 9.27622 40.1018 9.25733C40.0909 9.23844 40.0217 9.18554 40.0217 9.18554C40.0217 9.18554 39.9817 9.18176 39.978 9.15909C39.9744 9.13642 39.9307 8.95505 39.9307 8.95505C39.9307 8.95505 39.978 8.79635 39.9707 8.78502C39.9635 8.77368 39.887 8.63388 39.887 8.63388L39.8506 8.29381C39.8506 8.29381 39.6612 8.086 39.6649 8.05955C39.6685 8.0331 39.6503 7.88574 39.6539 7.85929C39.6576 7.83284 39.5993 7.78749 39.5993 7.78749C39.5993 7.78749 39.5593 7.81394 39.552 7.77238C39.5447 7.73082 39.4974 7.55323 39.4974 7.55323L39.5301 7.49277L39.4209 7.46254L39.5265 7.33407H39.4209C39.4209 7.33407 39.4245 7.29251 39.4245 7.2774C39.4245 7.26228 39.4682 7.18671 39.4573 7.16782C39.4464 7.14893 39.3991 7.11114 39.3991 7.11114L39.4646 6.93733C39.4646 6.93733 39.501 6.88821 39.501 6.87687C39.501 6.86554 39.3918 6.8202 39.3918 6.8202L39.4937 6.75974L39.4173 6.69551L39.4245 6.63883C39.4245 6.63883 39.4027 6.61238 39.41 6.60104C39.4173 6.58971 39.4974 6.55192 39.5047 6.52925C39.5119 6.50658 39.5119 6.4159 39.5119 6.4159L39.41 6.37811C39.41 6.37811 39.5083 6.35166 39.5119 6.32521C39.5156 6.30254 39.5229 6.23831 39.5156 6.22319C39.5083 6.20808 39.4391 6.18163 39.4391 6.18163C39.4391 6.18163 39.5265 6.1514 39.5265 6.14007C39.5265 6.12873 39.5119 6.05694 39.5047 6.04183C39.4974 6.02671 39.4537 5.98893 39.4537 5.98893C39.4537 5.98893 39.5192 5.90958 39.5156 5.89824C39.5119 5.88691 39.3991 5.86801 39.4063 5.85668C39.4136 5.84534 39.4682 5.78867 39.461 5.766C39.4537 5.74332 39.308 5.52417 39.308 5.52417C39.308 5.52417 39.3663 5.49772 39.3772 5.48261C39.3881 5.46749 39.3991 5.38814 39.3845 5.38059C39.3699 5.37303 39.3044 5.38814 39.2971 5.37681C39.2898 5.36547 39.2862 5.32013 39.2862 5.3088C39.2862 5.29746 39.4245 5.20678 39.4245 5.19544C39.4245 5.18411 39.3626 5.10476 39.3626 5.10476C39.3626 5.10476 39.4391 5.09342 39.4391 5.07831C39.4391 5.06319 39.3845 4.98762 39.3845 4.98762C39.3845 4.98762 39.45 4.96495 39.4537 4.95362C39.4573 4.94228 39.4682 4.88183 39.4682 4.88183C39.4682 4.88183 39.3554 4.9045 39.359 4.89316C39.3626 4.88183 39.4537 4.80248 39.4318 4.74958C39.41 4.69668 39.3554 4.64378 39.3554 4.64378C39.3554 4.64378 39.4136 4.61733 39.41 4.60599C39.4063 4.59466 39.2753 4.54932 39.2753 4.54932C39.2753 4.54932 39.3408 4.5342 39.3408 4.49642C39.3408 4.45863 39.3772 4.44352 39.3772 4.44352C39.3772 4.44352 39.2825 4.33772 39.3044 4.30371C39.3262 4.26971 39.4355 4.23192 39.3954 4.21681C39.359 4.2017 39.2862 4.19414 39.2825 4.17525C39.2789 4.15635 39.2789 4.11479 39.2789 4.11479L39.3226 4.09212L39.2061 3.96365C39.2061 3.96365 39.3153 3.92586 39.3007 3.90319C39.2862 3.8843 39.1587 3.84652 39.1587 3.84652C39.1587 3.84652 39.2789 3.79362 39.2753 3.77095C39.2716 3.74827 39.217 3.68026 39.2279 3.67648C39.2388 3.6727 39.2971 3.65759 39.2971 3.64248C39.2971 3.62736 39.2753 3.55557 39.2716 3.54424C39.268 3.5329 39.3226 3.45355 39.3226 3.45355L39.2789 3.41577L39.3699 3.38932L39.3918 3.31753C39.3918 3.31753 39.3626 3.22684 39.3809 3.22306C39.3991 3.21928 39.4682 3.23818 39.4682 3.21928C39.4682 3.20039 39.4464 3.12482 39.4464 3.12482C39.4464 3.12482 39.5374 3.0228 39.5265 3.00013C39.5156 2.97746 39.4719 2.97746 39.4865 2.93212C39.501 2.89055 39.5702 2.80365 39.5411 2.75831C39.5119 2.71674 39.4391 2.69029 39.4209 2.65251C39.4027 2.61472 39.4428 2.56938 39.4428 2.56938L39.3007 2.41068L39.3335 2.35779C39.3335 2.35779 39.2935 2.33134 39.2862 2.31622C39.2789 2.30111 39.3117 2.22554 39.2935 2.21042C39.2753 2.19531 39.2061 2.15753 39.2061 2.14619C39.2061 2.13485 39.2425 2.05173 39.2425 2.05173L39.1988 1.97616C39.1988 1.97616 39.2425 1.94971 39.2279 1.94215C39.2134 1.93459 39.0896 1.83635 39.0932 1.82502C39.0968 1.81368 39.1187 1.75323 39.1187 1.75323C39.1187 1.75323 39.1478 1.71922 39.1296 1.69655C39.1114 1.67766 38.9985 1.63987 38.9985 1.63987L39.0459 1.58319L39.0204 1.49251C39.0204 1.49251 39.0677 1.46228 39.0713 1.43961C39.0713 1.42072 39.0568 1.23557 39.0459 1.23179C39.0349 1.22801 38.9803 1.20912 38.9803 1.20912L39.0131 1.12222C39.0131 1.12222 38.9366 1.08443 38.9366 1.06554C38.9366 1.04665 38.9439 0.967297 38.9403 0.952183C38.9366 0.937069 38.8383 0.827492 38.8383 0.827492C38.8383 0.827492 38.8237 0.649902 38.8128 0.646124C38.8019 0.642345 38.7582 0.63101 38.7546 0.612117C38.7509 0.593225 38.7181 0.498762 38.7254 0.47987C38.7327 0.460977 38.7291 0.389186 38.7254 0.37785C38.7218 0.366515 38.689 0.313616 38.689 0.313616L38.7218 0H38.6781L38.6599 0.00755701Z" fill="#F3E9DD"/>
</svg>
