<?xml version="1.0" encoding="UTF-8"?><svg id="Layer_2" xmlns="http://www.w3.org/2000/svg" viewBox="0 0 61.55 95.24"><defs><style>.cls-1{fill:#f3e9dd;stroke-width:0px;}</style></defs><g id="_ÎÓÈ_1"><path class="cls-1" d="m59.23,80.98l.23.35h.37s.73-.16.76-.24c.03-.08.31-.88.31-.88v-.24c0-.05.18-.24.18-.24l.26-.7.21-.21L59.23,0S4.8.86,1.15,0c-.1,3.97-1.15,40.54-1.15,40.54l55.58,54.7s.16-.38.23-.48c.08-.11.31-.32.23-.43-.08-.11-.44-.38-.42-.46.03-.08-.13-.21.13-.21s.57-.19.57-.19c0,0,.05-.59.05-.67s-.39-2.12-.36-2.2c.03-.08-.89-2.06-.89-2.15s.18-.54.18-.54c0,0-.23-.48-.16-.54s.18-.24.18-.24c0,0,.1-.13,0-.24-.1-.11-.36-.35-.36-.48s.05-.35.03-.43c-.03-.08-.21-.21-.21-.32s.1-.7.1-.78-.21-.56-.21-.56l.16-.38-.08-.27s.47-.16.37-.27c-.1-.11-.39-.51-.39-.51,0,0-.44-.67-.47-.83-.03-.16.05-.54.05-.54l.13-.21s-.18-.11-.16-.19c.03-.08.08-.27.08-.27l-.21-.32.16-.19s.57-.16.68-.21c.1-.05.44-.35.44-.35,0,0,.16.19.23.13.08-.05.16-.21.29-.24.13-.03.76,0,.76,0,0,0,.03.19.1.19s.23-.16.34-.11.23.11.23.11c0,0,.34-.21.44-.21h.37l.65.8-.05.35.42.16Z"/></g></svg>