<?xml version="1.0" encoding="UTF-8"?><svg id="Layer_2" xmlns="http://www.w3.org/2000/svg" viewBox="0 0 48.25 95.25"><defs><style>.cls-1{fill:#f3e9dd;stroke-width:0px;}</style></defs><g id="_ÎÓÈ_1"><path class="cls-1" d="m0,73.28s.19.48.19.53.54.76.54.76c0,0,.05-.17.24-.17s.48-.01.55,0c.07.01.61.4.79.57.19.17.69.69.7.75.01.06.26.61.28.65s.44.33.5.42c.05.08.07.21.11.22l.23.15s.54-.22.54-.18-.01.3-.01.3c0,0,.16.08.16.12s.2.94.23,1c.03.06.7.69.7.69,0,0,.15-.01.23,0,.08.01.23-.32.23-.32,0,0,.51.08.51.17s.16.54.16.58.28.55.28.55c0,0-.03.35-.01.39.01.04.84.72.84.72l.34-.46s.66-.07.66-.03.05.3.05.3l.4.18v.15l-.2.21s.03.12.07.19c.04.07.36.29.49.36.12.07.75.28.75.36s.11.47.11.47c0,0,.23-.19.28-.17.05.03.42.17.42.17,0,0,.16.36.16.4s-.13.64-.11.68c.03.04.2.19.2.19l-.04.1s-.23.04-.24.12c-.01.08-.09.22.01.22s.35.07.4.15c.05.08.55.66.55.66,0,0,.39-.15.42-.19.03-.04.11-.65.2-.72.09-.07.46-.24.51-.24s.62.11.81.11.63-.04.65-.08c.01-.04.05-.24.09-.25s.2-.04.24-.03c.04.01-.07-.08.04.01.11.1.4.58.34.64-.07.06-.18.14-.18.21s.09.22.15.22.58-.03.65-.03.44.11.44.11c0,0,.5-.22.7-.12.2.1,1.62.61,1.64.69.03.08.47.78.47.78,0,0,.08,1.26.07,1.34-.01.08-.65,1.37-.69,1.44-.04.07-.24,1.05-.27,1.11-.03.06-.62.71-.65.76-.03.06-.16.79-.22.93-.05.14-.39.8-.4.84-.01.04-.03,1.15-.05,1.19-.03.04-.24.36-.24.4s.15.26.15.32-.2.32-.08.32.78-.06.88,0c.09.06,1.35-.21,1.45-.29.11-.08.48-.29.48-.29,0,0,.11-.15.09-.21-.01-.06-.01-.1-.11-.07-.09.03-.66.18-.74.14-.08-.04-.13-.06-.11-.14.03-.08,0-.12.18-.17.17-.04.73-.14.73-.14,0,0-.03-.19-.04-.24-.01-.04-.24-.04-.28-.18l-.04-.14s.19-.07.26-.03c.07.04.2-.01.2-.01l-.05-.5.28-.04s.04.11.08.11.4-.11.4-.11c0,0,.13.03.16.12.03.1-.07.36-.13.4-.07.04-.3.1-.3.1,0,0-.11-.08-.19-.06-.08.03-.09-.01-.11.12-.01.14,0,.66.01.71.01.04.08.21.11.17.03-.04,2.14-1.94,2.14-1.94,0,0,.12-.32.12-.36s-.43-.9-.39-.9.32-.17.32-.17c0,0,.11-.62.19-.66.08-.04.42-.39.42-.43s.03-.25.03-.32-.2-.72-.24-.69c-.04.03-.12.22-.2.18-.08-.04-.24-.36-.24-.36,0,0-.05-.35.04-.36.09-.01.63-.19.67-.18.04.01.16.04.18.11.01.07.09.39.09.46s-.15.39-.12.51c.03.12.26.47.26.47l-.13.22s-.32.11-.35.18-.18.36-.18.4.01.69.01.69l.81-.76s.65-1.29.67-1.36c.03-.07.5-.75.5-.75l-.09-.33s-.61.25-.59.17c.01-.08.09-.39,0-.4-.09-.01-.47-.1-.47-.1,0,0,.05-.17.13-.17s.4-.04.4-.04l.15-.57s.23-.22.23-.14-.05.66-.05.66l.09.14s.23-.08.24-.14c.01-.06.05-.44.18-.51.12-.07.24-.15.28-.22.04-.07.48-1.14.53-1.16.04-.03.57-.73.57-.73l.03-.22s-.44-.15-.38-.18c.07-.03.22-.03.23-.1.01-.07.09-.3.09-.3,0,0,.54-.07.61-.08.07-.01.26-.25.31-.3.05-.06.38-.83.38-.89s.44-.57.44-.57c0,0,.28-.28.32-.28s.77-.29.77-.29l.16-.43s-.11-.32-.2-.33c-.09-.01-.15-.04-.28.04-.13.08-.7.47-.7.47,0,0-.28-.21-.32-.17-.04.04-.17.21-.17.21,0,0,.12.28.05.39s-.58.47-.58.47c0,0,.16-.96.12-.98-.04-.03-.35-.17-.44-.18-.09-.01-.62-.08-.62-.08,0,0,.24-.25.24-.29s-.26-.37-.26-.37l.18-.15s.36.26.44.21c.08-.06.19-.19.23-.19s.36.22.4.21c.04-.01.35-.15.44-.15s.88.11.96.11.36-.35.36-.35c0,0-.15-.46-.15-.5s.27-.55.27-.55c0,0,.11-.03.15.01.04.04.24.12.24.12h.16s-.01-.25.04-.33c.05-.08.2-.24.23-.3.03-.07.05-.65.12-.69.07-.04.34-.12.43-.14s.34,0,.4.08c.07.08.09.12.09.26s-.11.39-.15.43c-.04.04-.2.12-.2.12,0,0,.11.07.12.11.01.04,0,.07-.04.15-.04.08-.59.47-.59.47,0,0,.01.26-.03.33-.04.07-.24.44-.3.55-.05.11,0,.28,0,.28,0,0,.08.06.27-.06.19-.11,1.02-.87,1.12-.93.09-.06.88-.36.97-.43.09-.07,1.16-.84,1.16-.84l-.09-.51-.36-.15-.05-.24-.3-.15s-.03-.26-.07-.28c-.04-.01-.12-.06-.24-.07-.12-.01-.48-.07-.48-.07l-.43.25s-.26-.73-.08-.82.54-.3.55-.35c.01-.04.11-.18.12-.24.01-.06,0-.58.01-.62s.13-.18.13-.18h.22s.12-.5.12-.5l.13.04s-.08.11.04.11.36.06.38.14c.01.08.04.37.07.42s.3.47.36.43c.07-.04.4-.19.38-.28-.03-.08-.34-.65-.3-.73.04-.08.22-.25.23-.29.01-.04-.12-.28-.16-.29-.04-.01-.16-.07-.16-.07,0,0-.07-.11.04-.17.11-.06.27-.11.31-.06.04.06.08.18.15.18s.2-.03.22-.07c.01-.04.04-.17-.01-.26-.05-.1-.5-.42-.5-.54s-.12-.21-.11-.25c.01-.04-.01-.36-.01-.36,0,0-.27-.12-.26-.24.01-.11.04-.51.04-.51l.12-.1-.22-.78s.09-.11.18-.04c.08.07.3.17.32.28.03.11.09.35.15.39.05.04.86.08.86.08v-.25s.12-.12.16-.1c.04.03.09.17.12.22.03.06.18.1.26.06.08-.04.26-.11.3-.08.04.03.36.32.36.32l-.04.22.08.17s-.05.01-.09.12c-.04.11-.09.44-.09.44l.12.06s.09-.11.18-.12c.08-.01.36,0,.36,0,0,0-.04-.17,0-.24.04-.07.32-.33.32-.37s-.07-.37-.07-.37l-.81-.65-.08-.26-.22-.19.03-.47s.31.18.31.12.15-.32.15-.32c0,0,.3-.1.3-.14s.03-.51.09-.55c.07-.04.28-.19.28-.19l.28.19.03-.33.19-.1.19.14.3-.06s-.07-.32-.04-.37c.03-.06.16-.22.16-.26s-.03-.24.01-.24.27-.01.27-.01c0,0-.16-.53-.07-.5.09.03.28.08.31.04.03-.04.27-.18.27-.18,0,0,.2.12.22.08.01-.04.28-.4.3-.46.01-.06-.01-.17.03-.25s.09-.26.24-.32c.15-.06.54-.3.54-.3l-.24-.18s.09-.32.13-.35c.04-.03.31-.15.31-.15l.03-.3.42-.04.16-.37s-.43-.08-.47-.08-.11-.12-.11-.12c0,0,.42-.08.42-.15s-.07-.6-.07-.6c0,0-.71-.15-.7-.19.01-.04-.05-.62-.01-.66.04-.04.26-.47.26-.51s-.19-.47-.19-.47c0,0,.4-.36.4-.4s.13-.73.13-.73c0,0,.39-.15.39-.19s-.01-.15-.01-.15c0,0-.46-.1-.38-.15.08-.06.48-.28.48-.28l.3-.71.4-.28s-.13-.17-.18-.17-.66-.01-.66-.01c0,0,0-.15.05-.18s.5-.11.5-.11c0,0,.16-.87.16-.93s.34-.62.34-.62c0,0,.47-.37.47-.42s-.03-.12-.09-.17c-.07-.04-1.12-.04-1.16-.07-.04-.03-.47-.35-.51-.36-.04-.01-.53.01-.53-.03s-.08-.28-.04-.29c.04-.01.65-.07.65-.07,0,0,.31.32.39.32s.42.08.47.08.57-.29.59-.33c.03-.04.12-.24.09-.32s-.08-.17-.05-.24c.03-.07.16-.4.15-.44-.01-.04-.23-.28-.23-.32s.07-.32.07-.32c0,0-.01-.14-.12-.06-.11.08-.4.15-.4.15,0,0-.24-.18-.24-.22s.09-.35.18-.35.47.06.47.06l.18-.19s.19.08.2.04c.01-.04.08-.19-.01-.26-.09-.07-.75-.14-.75-.19s.13-.24.12-.28c-.01-.04-.23-.37-.23-.37,0,0,.16-.12.2-.07.04.06.34.37.38.39.04.01.31-.01.38.08.07.1.23.3.23.3l.26-.04s.07-.33.09-.4c.03-.07.27-.29.27-.36s-.03-.47-.03-.47c0,0-.18-.01-.28.04-.11.06-.47.12-.47.12,0,0-.04-.08-.09-.08s-.2,0-.28-.03-.22-.14-.22-.14c0,0-.09-.03-.13-.07-.04-.04-.15-.19-.08-.24.07-.04.32-.08.28-.03-.04.06.63.19.71.21.08.01.74-.44.86-.4.12.04.31-.01.3.07-.01.08-.19.61-.16.71.03.1-.03,1.12-.03,1.21s-.51,1.95-.51,1.95l-.23.22s.28.5.23.65c-.05.15-.24.84-.24.84,0,0-.24,3.63-.28,3.77-.04.14-.24.55-.24.66s.08.66.08.71-.07.17-.07.17h-.23l-.15.19s.28-.01.28.04.09.15.09.15c0,0,.09.03.13-.04.04-.07.17-.44.2-.54.03-.1.08-1.33.08-1.37s.36-1.94.38-1.98c.01-.04-.03-1.52.03-1.69.05-.17.66-3.48.66-3.48,0,0-.08-.43-.03-.51.05-.08.57-2.16.58-2.27.01-.11.01-.53-.05-.62-.07-.1-.34-.19-.38-.21-.04-.01-.57.1-.61.12-.04.03-.18.15-.26.15s-.5-.15-.54-.25c-.04-.1-.12-.82-.12-.82,0,0,.04-.19.08-.11.04.08.16.46.22.51.05.06.26.3.38.3s.62-.28.67-.28.34.08.39.04c.05-.04.22-.1.22-.21s0-1.16.04-1.26c.04-.1.3-1.4.3-1.4,0,0-.11-.14-.16-.11-.05.03-.39.15-.44.15s-.39-.11-.42-.15c-.03-.04-.32-.42-.32-.42,0,0,.11-.12.15-.1.04.03.28.25.32.24.04-.01.16.03.16-.01s.03-.21.12-.21.2.03.24.07c.04.04.15.15.23.15s.17.03.23-.06c.05-.08.32-.82.34-.94.01-.12.03-.55.03-.64s.48-1.58.53-1.63c.04-.06.01-1.32.04-1.36.03-.04.3-1.09.31-1.14.01-.04-.04-.76-.03-.84.01-.08.11-1.16.09-1.3-.01-.14-.15-.36-.15-.4s-.12-1.25-.13-1.39c-.01-.14-.34-.83-.35-.89-.01-.06-.16-.33-.27-.39-.11-.06-.28-.21-.32-.19-.04.01-.26.07-.23.18s.24.24.24.33,0,.44.04.47c.04.03.3-.06.38.03.08.08.12.11.12.15s-.05.33-.05.44.44.96.44,1.07.13,1.4.12,1.57c-.01.17-.11.51-.11.51,0,0-.12.53-.16.53s-.35-.01-.36.06c-.01.07.07.14.01.24-.05.1-.13.19-.13.19l-.26-.14s-.09.21-.19.25c-.09.04-.17.03-.15-.04.03-.07.05-.32.01-.36-.04-.04-.09-.3-.09-.3,0,0,.13.01.26.01s.22-.12.22-.12c0,0-.05-.1.03-.17.08-.07.46-.32.47-.4.01-.08.03-.5-.01-.55-.04-.06-.7-.19-.7-.19l-.39.26s-.01.14-.07.17c-.05.03-.44.08-.44.08,0,0-.51.51-.53.43-.01-.08-.19-.14-.08-.25.11-.11,1.62-1.16,1.62-1.16,0,0,.12-.06.27.04.15.1.42.29.42.29l-.04-.76s-.23-.39-.36-.44c-.13-.06-1.74-.44-1.79-.5-.05-.06-.81-.64-.88-.67s-.74-.19-.74-.19c0,0-.44-.39-.51-.42-.07-.03-.23,0-.23,0,0,0-.12.19-.18.19s-.59-.07-.59-.07l-.35-.3-.34.58-.59.26s.11-.32.07-.36c-.04-.04-1.59-.8-1.62-.86-.03-.06-.09-.53-.19-.64-.09-.11-.54-.4-.54-.4,0,0-.28-.08-.43-.01s-.13.01-.24.24c-.11.22-.2.67-.28.67s-.32.06-.44,0c-.12-.06-.34-.17-.34-.17,0,0,.5-.32.62-.47.12-.15.44-.65.54-.65s.24-.08.43-.04c.19.04.38.06.44.17.07.11.26.37.26.37h.17s.03-.57.11-.75c.08-.18.3-.48.3-.57s-.05-.46-.03-.54c.03-.08.09-.47.19-.55.09-.08.26-.21.38-.26.12-.06.36-.14.42-.22.05-.08.3-1.09.3-1.16s-.04-.35-.03-.53c.01-.18.2-1,.24-1.08.04-.08.42-.39.51-.42.09-.03.44-.07.49-.11.04-.04.31-.35.34-.42s.15-.29.16-.36c.01-.07.04-.43.12-.47.08-.04.42-.4.49-.54.07-.14.13-.35.26-.37.12-.03.53-.26.53-.15s.04.28.03.4c-.01.12-.28.53-.44.78-.16.25-.24.35-.28.5-.04.15-.13.5-.12.57.01.07.22.08.35.07.13-.01.69-.11.69-.11,0,0-.18-.35-.13-.37.04-.03.7.14.7.14,0,0,.15-.07.12-.12-.03-.06-.49-.4-.49-.4,0,0,.43-.15.46-.21.03-.06.08-.33.12-.35.04-.01.35-.01.39-.08.04-.07.3-.46.35-.5.05-.04.36-.11.36-.11l.35-2.15,1.27-2.31,1.32-3.59.77-3.53h-.43l-8.57-5.35-3.37-1.86L25.58,0l-.85.42s-.57-.03-.7.06c-.13.08-.24.1-.3.25-.05.15-.03.35-.13.4-.11.06-.82.19-.82.26s.07.36,0,.44c-.07.08-.98.78-1,.82-.01.04-.16.32-.23.47-.07.15-.22.78-.26.84-.04.07-.35.32-.36.36-.01.04-.2.51-.2.58s.19.25.16.4-.63,1.55-.66,1.59c-.03.04-.43.39-.47.48-.04.1-.24.62-.32.75-.08.12-.12.3-.35.46s-1.7,1.15-1.72,1.23c-.03.08-.2.48-.15.55.05.07.16.08.22.06.05-.03.38-.28.39-.21.01.07-.04.15-.08.26-.04.11-.24.36-.31.4-.07.04-.74.28-.79.37-.05.1-.42.65-.44.72-.03.07-.05.32-.07.36-.01.04-.88.71-.92.72-.04.01-1.35.58-1.44.68-.09.1-.61.46-.66.57-.05.11-.15.43-.13.51.01.08.07.21.16.26.09.06.34.12.34.21s.04.35.05.39c.01.04.58,1.14.63,1.21.05.07.43.26.43.42s.13.75.2.85c.07.1.42.51.42.61s.07.32.07.47-.35.68-.35.68c0,0-.32-.18-.47-.11-.15.07-.28.03-.32.18-.04.15-.01.18.13.39.15.21.26.32.16.5-.09.18-.61,1.14-.69,1.18-.08.04-.35.15-.43.22-.08.07-.19.5-.28.47-.09-.03-1.01-.15-1.01-.15,0,0-.35.64-.36.68-.01.04-.46.24-.46.35s.12.33.18.43.27.15.2.36c-.07.21-.58,1.3-.58,1.39s.04.37.08.4c.04.03.54.15.58.24.04.08.11.24,0,.36-.11.12-.47.43-.47.55s-.13.14-.05.32c.08.18.26.58.26.68s-.07.36-.08.4c-.01.04-.22.24-.22.24,0,0,.2.78.22.9.01.12-.11.4-.05.54s.23.36.32.42c.09.06.43.14.51.11.08-.03.69-.33.73-.33s.75.07.85.12c.09.06.28.11.36.21.08.11.78.98.82,1.06.04.08.11,2.06.09,2.12-.01.06-.23,1.14-.23,1.25s.22,1.25.3,1.32c.08.07.62.54.86.55.24.01.9-.21.94-.19.04.01.73.33.79.42.07.08.44.86.44.9s.28,1.41.32,1.44c.04.03.7.82.77.85.07.03.79.3.9.42.11.11.65.9.67,1,.03.1.32.91.34.96.01.04.31.46.31.46,0,0,.9.54,1.02.62.12.08.67.42.74.6.07.18.43,1.18.54,1.21.11.03.74.55.78.65.04.1.12.42.12.53s-.11.39-.15.44c-.04.06-.31.29-.35.3s-.77.18-.81.19c-.04.01-.27.4-.48.37s-.63-.32-.83-.28c-.2.04-.3.1-.36.19-.07.1-.09.22-.13.29-.04.07-.23.48-.23.53s-.35.22-.39.28c-.04.06-.23.39-.36.44-.13.06-.84.42-.97.43-.13.01-.98.15-1.1.21-.12.06-1.02.66-1.06.71-.04.04-.98.98-1.12,1.04-.13.06-.94.4-.96.44-.01.04-.4.65-.42.72-.01.07-.36.48-.47.53-.11.04-.92.36-.98.42-.07.06-.47.28-.59.46-.12.18-.16.54-.16.66s.15.91.18,1.07-.03.5-.05.55c-.03.06-.27.51-.47.55-.2.04-1.06.06-1.13.12-.07.07-.88.71-.92.73-.04.03-1.45.48-1.5.5-.04.01-.62.12-.62.12,0,0-.78-.18-.9-.18s-.57.06-.7.18c-.13.12-.23.25-.36.33-.13.08-1.55,1.32-1.55,1.32l.23.24s-.63.32-.81.46c-.17.14-.75.86-.83.94-.08.08-.46,1.15-.46,1.15,0,0-.03.54-.11.57-.08.03-.18-.11-.28,0-.11.11-.48.8-.51.87-.03.07-.17,1-.17,1,0,0-.55.78-.59.82-.04.04-.58.42-.58.46s-.13.32-.15.42c-.01.1.19.94.19.94,0,0,.43.25.44.29.01.04.15.26.19.3.04.04.35.11.42.26.07.15.18.26.12.37-.05.11-.22.54-.24.58-.03.04-.4.4-.36.51.04.11.13.22.13.32s-.13.98-.13,1.03.09.26.09.3-.93.04-.98.15c-.05.11-.19.5-.19.54Z"/></g></svg>