<?xml version="1.0" encoding="UTF-8"?><svg id="Layer_2" xmlns="http://www.w3.org/2000/svg" viewBox="0 0 96.99 90.81"><defs><style>.cls-1{fill:#f3e9dd;stroke-width:0px;}</style></defs><g id="_ÎÓÈ_1"><path class="cls-1" d="m10.06,51.26c-.04.09-.39.58-.4.64s-.19.68-.23.69c-.04,0-1.53.42-1.55.45-.01.02-.33.42-.43.45-.11.03-.61.15-.63.17-.01.02-.11.26-.2.25-.09,0-.28-.09-.33-.04-.04.04-.4.55-.43.57-.02.01-.28.22-.34.24-.06.01-.2-.05-.22,0-.02.05-.2.51-.25.62-.04.1-2.13,1.43-2.13,1.43,0,0-1.59,1.09-1.62,1.11-.03.01-1.21.59-1.21.59l-.12,5.64,11.79.25,15.05.17h8.97l10.67-.04,19.81-.28s.21.16.22.22c.01.07-.03.25.01.31s.35.4.38.41.27-.04.31,0c.04.04.26.22.28.43.02.21.14.42.12.49-.01.07-.08.28-.04.33.04.05.15.16.17.19s.05.39.05.39c0,0,.3-.07.32-.04.02.02.17.1.19.1s.27-.24.35-.2.12.1.21.11c.09.01.16-.15.21-.12.05.03.1.3.2.35.1.04.66.1.68.2.02.1.04.4.12.44.08.04.5.19.51.23s-.01.16-.06.21c-.04.04-.27.16-.27.22,0,.07-.12.24-.06.3.06.07.19.14.27.13.08,0,.27-.07.32.04.05.12.12.39.14.45.01.06.07.54.06.59-.01.06-.24.16-.22.22.02.05.17.38.18.45.01.07-.06.35-.06.35l.22,1.06s-.15-.06-.17,0c-.02.06-.24.25-.2.3.04.04.8,1.03.8,1.05,0,0-.05.31-.02.34.03.03.3.25.3.3,0,.05-.04.23,0,.25.03.01.32.08.31.16,0,.08-.04.39-.01.42.03.02.33.1.35.1s.46-.14.49-.11c.03.03.53.57.53.57l.04.31s.43-.14.45-.12c.02.02.45.22.45.22,0,0,.31-.22.35-.19.04.03.27.4.29.4s.76-.15.76-.15c0,0-.01.48.07.54.09.06.35.22.38.25.03.02.38.51.38.51l-.05.19,5.74,3.53,6.64,3.64-.33,1.88-.68,1.97-.64,1.2-.14,1.2s.17-.01.22,0c.05.01.56-.33.57-.36,0-.02.13-.68.15-.73.02-.04.72-1.15.74-1.18.03-.04.25-.15.34-.16.09,0,.28.02.28.02,0,0,.01-.18.08-.15.07.03.22.12.25.09s.22-.24.22-.24l.2.22.41.17s-.25-.49-.25-.51c0-.02.09-.42.09-.42l-.09-.35.29.1s.14-.19.14-.22-.06-.22-.02-.25c.04-.03.35-.36.35-.39,0-.02,0-.28,0-.28,0,0,.18.01.2-.01.02-.03.2-.26.22-.27.02,0,.14.07.14.04s.02-.53.09-.52c.07,0,.59.02.59.02,0,0,.21-.75.21-.77s0-.55-.04-.6c-.03-.04-1.19-1.77-1.14-1.8.04-.03,3.59-2.54,3.59-2.54l-1.07-1.63.23-12.72.06-3.23s-.15.04-.15-.04-.17-.62-.15-.71c.02-.09,1.97-9.16,1.97-9.16l1.05-4.83s-.09.02-.13-.06-.22-1.15-.25-1.2c-.03-.04.07-.6.07-.6,0,0,.09-.03.09-.09s-.09-6.68-.09-6.68l-.08-7.97s-.2-.54-.21-.57c-.01-.02-.6-.34-.59-.39s.05-.32.04-.39c0-.07-.22-.54-.22-.54l-.95.13s-.07.31-.08.36c-.01.04-.11.17-.11.19s.04.3.04.3c0,0-.13.22-.16.22s-.42-.13-.44-.17c-.02-.04-.09-.16-.09-.26s.09-.45.09-.57c0-.12-.1-.48-.1-.52s.48-1.43.48-1.43c0,0,.26-.25.27-.3s-.01-.3,0-.33c0-.02.25-.53.24-.62,0-.1-.14-.31-.17-.39-.02-.07-.44-.57-.42-.64.02-.07.22-.45.22-.51,0-.05-.12-.2-.12-.25s.09-.39.07-.43c-.01-.04-.54-1.18-.54-1.26s-.04-1.64-.07-1.7-.5-.56-.49-.66c0-.1.33-1.17.35-1.23.01-.05-.02-.5,0-.52.01-.02.23-.35.23-.39s-.01-.77.01-.83l1.17-1.62-.06-.36s-.46-1.65-.44-1.71c.02-.06.52-1.43.54-1.53.02-.1-.19-1.19-.21-1.25-.02-.06-.25-.61-.33-.71s-.75-.87-.77-.97c-.02-.1-.25-.69-.23-.81.02-.12.33-1.65.33-1.65,0,0-.06-.08-.06-.18s0-.61.04-.73c.04-.12.33-1.01.33-1.11s-.1-.32-.13-.38c-.04-.06-.56-.59-.56-.59,0,0,.19-1.17.25-1.29.06-.12.23-.36.25-.48.02-.12.06-.71.02-.81-.04-.1-.23-.48-.23-.48l.02-.5-5,.3s-4.69.39-4.77.42c-.09.03-4.45.24-4.54.24h-4.31l-.69.34s-.27-.22-.3-.21c-.03,0-.73.17-.75.14-.02-.03.06-.32,0-.32s-.37.03-.46.07c-.1.04-.27.11-.27.11l-.15.13s-.03-.19-.15-.16c-.13.03-.4.09-.43.14-.04.05-.1.17-.1.17,0,0,.31-.07.28,0-.03.07-.21.34-.28.32-.07-.02-.24-.08-.29-.07-.05,0-.26.07-.26.07,0,0-.03.19-.1.23-.07.04-.45.19-.45.19l-.09-.1.06-.1s-.14,0-.19.05c-.06.04-.33.27-.36.33s-.08.24-.11.29c-.03.05-.24.27-.3.28-.06,0-1.01.12-1.03.16-.02.04-.24.26-.24.26l-.62.43h-.2s-1,.65-1.06.66c-.06.01-.44.06-.44.06l-.26.21v.34s-.78.54-.78.57-.08.31-.1.34c-.02.03-1.2.89-1.21.93-.02.04-.26.39-.35.43-.09.04-.44.19-.48.21-.04.02-1.49,1.6-1.49,1.6,0,0-1.42,1.44-1.42,1.47s-.36.63-.36.63c0,0-.4.21-.4.26s-.34.99-.34.99c0,0-.21.18-.18.18s.25.04.27.07c.02.03.21.28.21.28l-.67,1.01-.11-.18-.37.33-.25.18v.1s.2-.08.21,0c0,.08,0,.25,0,.25l-.32.28-.06-.3s-.6.4-.61.43c0,.03-.34.49-.34.49,0,0-.62.45-.65.48-.03.03-.41.57-.41.57v.31s-.18-.15-.21-.15-.18.15-.18.15c0,0,.08.08.05.1-.03.02-.59.34-.59.34l-.19-.06s.04.17,0,.17-.29-.09-.32-.05c-.03.04-.23.29-.23.29l-1.16.48v.16s-.51.48-.52.51c0,.03-.63.25-.66.29-.03.04-1.24,1.13-1.2,1.14.05.01.16.1.16.1l.02.19s.15-.02.14,0c0,.02-.2.37-.14.37s.36.05.36.05l.28-.19s-.26.3-.21.3.51.12.51.12v.35s-.15.35-.15.35l.12.32s.25.03.28.06c.03.03.13.23.14.26,0,.03-.05.35-.05.35,0,0-.23.38-.17.38s.54-.19.54-.19l.37-.51s-.03-.21,0-.25c.02-.04.3-.44.3-.44,0,0-.24-.06-.27-.06s-.79.36-.79.36c0,0-.12-.1-.11-.14,0-.04.27-.6.27-.6,0,0-.08-.04-.05-.06s.94-.58.94-.58l-.09.38s.1.08.13.08.87-.32.87-.32l-.07.2h.14l-.35.59h.14s.56-.29.57-.26c0,.03-.34.59-.34.59l-.78.43s-.23.15-.24.21c0,.06-.02.23,0,.26,0,.03.09.13.12.13s.32-.08.32-.08l.13.25s.13-.04.15,0c.03.04.25-.05.33-.1.08-.05.66-.54.66-.54v-.28s.19-.23.19-.18-.04.3-.04.3c0,0,.19.05.19.02s.26-.27.3-.27.42.12.42.12l-.54.05-.11.6-.2.15v-.18s-.14-.12-.19,0c-.06.12-.39.59-.41.59s-.22-.04-.22-.04c0,0-.09.12-.09.17s.16.47.16.53-.05.4-.05.4c0,0-.96.57-.96.59s-.08.31-.08.31l-.17-.17s-.29,0-.28-.04c0-.03.09-.51.09-.51l-.66.23s-.4.43-.4.49,0,.29.05.31c.04.02.38.01.4.05.02.04,0,.23.03.23s.26.02.27.05c0,.03,0,.14,0,.14,0,0,.22-.11.2-.06-.02.05-.02.26-.02.26,0,0,.1.02.13.13.04.11.35,1.85.35,1.88s.14,1.57.14,1.57l.03-.82s.14-.04.17,0c.04.04.38.44.38.44v.1s-.13.08-.13.08c0,0,.09.17.04.21-.05.04-.2-.05-.24,0s-.15.19-.15.19c0,0,.18.06.18.09s.04.1,0,.13c-.05.03-.11.11-.15.09-.05-.02-.13-.19-.14-.1,0,.09-.05.84-.05.84l.35.18s-.24.09-.27.08c-.03,0-.13-.08-.13-.08,0,0-.12.46-.15.52s-.25.33-.25.33c0,0-.87.39-.91.39s-.67-.05-.74-.06-.35-.2-.41-.2-.67.09-.67.09c0,0,.02.14-.05.17-.07.03-.58.29-.64.34-.06.05-.36.47-.38.5-.02.03-.95.48-.95.53s-1.02.73-1.06.84-.62,1.15-.67,1.18c-.05.03-.34.19-.34.22s.07.23.05.28c-.02.05-.16.29-.16.29,0,0-.13-.22-.13-.25s.13-.41.13-.41c0,0-.23.02-.23.05s-.08.27-.08.27c0,0-.05-.22-.1-.17-.05.05-.65.61-.73.63-.09.02-.74.1-.74.1l.22.35-.06.4-.08-.47s-.14-.22-.19-.21c-.05,0-.27.2-.34.2s-.4-.05-.43-.03c-.03.02-.74.51-.74.51,0,0-.25,0-.24,0,0,0,.36.14.36.19s0,.31,0,.34c0,.03.27.32.27.37s-.08.29-.08.29c0,0-.04-.33-.07-.34-.03,0-.27-.24-.27-.24l-.14.08-.47-.41s-.05-.14,0-.16c.05-.02.19-.2.19-.2l-.84.07s-1-.36-1.05-.36-.59-.02-.62,0c-.03,0-.36.17-.42.18s-3.02.13-3.06.13-.59.1-.74.17c-.15.07-1.56.72-1.65.68-.09-.04-.62-.21-.66-.25-.04-.04-.97-.63-1.05-.7s-.64-.57-.67-.59c-.04-.02-.24-.02-.24-.02l-.11-.15s.19.02.2,0c0-.03-.02-.1-.04-.15-.02-.05-.71-.38-.71-.38l-.39.05s-1.22-.23-1.28-.24c-.06-.01-1.13-.37-1.17-.37s-2.22-.22-2.26-.22-1.07.14-1.07.14c0,0-3.11-.19-3.16-.19s-2.01.09-2.04.09-1.34.27-1.39.28c-.05,0-.88.31-.96.34-.09.03-.42.02-.48.03-.06,0-4.19,1.3-4.22,1.31-.03,0-.82.29-.82.29,0,0,.15.26.18.3.03.04,0,.85,0,.92,0,.07-.05.59-.03.62.02.03.21.64.2.69,0,0-.37.44-.36.47.02.02.12.18.13.23,0,.05-.11.35-.13.37-.01.02-.11.1.1.13.2.03,1.48.25,1.55.28.07.02.3.07.38.11.09.04.41.19.43.28.01.08.17.61.17.61,0,0-.31.23-.36.28-.05.04-.33.14-.35.24-.02.1-.14.36-.11.41.03.05.35.53.38.57.02.04.08.27.09.35s0,.52.08.71c.08.19.55,1.23.56,1.27s.07.36.07.36l-.11-.04s0,.1,0,.13c.01.04.14.41.12.51-.01.1,0,.25-.03.33s-.93.91-.96.93-.43.13-.53.19c-.09.05-.48.4-.58.45-.09.04-.8.25-.86.32-.06.07-.17.39-.22.52-.06.13.07.38,0,.42-.07.04-.59.44-.64.53Z"/></g></svg>