<?xml version="1.0" encoding="UTF-8"?><svg id="Layer_2" xmlns="http://www.w3.org/2000/svg" viewBox="0 0 106.38 80.96"><defs><style>.cls-1{fill:#f3e9dd;stroke-width:0px;}</style></defs><g id="_ÎÓÈ_1"><path class="cls-1" d="m1.01,62.26c-.03.1-.56.85-.56.85,0,0,0,.4-.08.47-.07.08-.44.23-.37.27.08.04.2.19.32.34.12.15.14.27.15.39,0,.12.15,1.29.15,1.29,0,0,.19-.2.24-.17.06.03.24.16.29.23.05.07.28.78.28.81s-.05.23-.05.23c0,0,.42.24.47.3.05.06.16.54.17.65,0,.11,0,.46,0,.46,0,0-.14.1-.1.13.04.03.16.13.17.18,0,.06.02.37.02.41s-.43,1.23-.44,1.3c0,.07-.03.55-.03.55,0,0-.18.58-.18.61s.07.15.07.15c0,0,.21-.02.27-.06.07-.04.41-.41.42-.35,0,.06,0,.27-.04.28s-.65.26-.65.26l-.07,1.38-.09.45s.13-.02.19.1c.06.12.08.16.09.29s-.02.89-.02.95.33.43.35.48c.02.06.08.49.08.57s.17.27.17.3-.1.45-.08.51c.02.07.15.27.17.37.02.1,0,.65,0,.65l.62.8s0,.12.06.17c.05.06.24.17.24.17h.15l.74.86,5.93.29,1.61.06.43-.1,3.94.17,2.67-.12,1.19.17,10.3.06,9.05.28,8.47.24,13.18-.08,11.92-.1,8.96-.18,9.12-.34,10.68-.38-.7-19.34-.54-14.88s.26-.74.28-.77c.02-.04.27-.29.27-.36s.07-.53.07-.53l.19-.44s0-.19-.02-.23c0-.04-.09-.19-.09-.19,0,0,.09-.25.07-.28-.03-.03-.26-.19-.24-.2s.55-.52.55-.52c0,0-.08-.2-.08-.24,0-.04.08-.22.08-.24s.04-.11-.05-.18c-.08-.08-.4-.33-.42-.44-.02-.11-.08-.58-.07-.61,0-.03.68-.45.68-.48s.28-1.14.26-1.17-.56-.42-.56-.42c0,0-.41-.04-.41-.08s-.09-.69-.12-.73c-.03-.04-.08-.12-.15-.15s-.56-.09-.56-.09c0,0-.25.31-.29.31s-.28-.17-.33-.22c-.05-.05-.22-.44-.26-.49-.05-.06-.2-.14-.25-.14s-.15.03-.19.08c-.04.05-.2.41-.24.39s-.63-.23-.63-.26-.32-.57-.32-.57c0,0,.23-.32.26-.41.04-.09.04-.33.04-.33l-.64-.89s.28-.69.3-.78c.02-.1-.17-1.01-.14-1.04.03-.04.26-.15.28-.17s.15-.44.2-.48c.05-.05.42-.27.46-.34.04-.07.07-.58.08-.61s.18-.21.18-.26.04-.61.04-.61c0,0,.69-1.8.71-1.84.02-.04,0-.31.05-.4.06-.09.36-.43.39-.44.03,0,.39-.09.44-.13.06-.04.24-.27.3-.29.07-.02.37-.18.39-.21.03-.03.1-.44.13-.48.03-.05.86-1.4.86-1.4l.26-1-.21-.61s.23-.28.21-.31c-.02-.03-.17.06-.22.06s-.02.06-.05,0c-.03-.06.06-.9.08-.93.02-.03.57-.58.58-.61s.19-.38.19-.41,0-.32.04-.41c.03-.09.28-.31.34-.41.06-.1.25-.49.27-.59.02-.1.38-2,.38-2.06s.23-.32.25-.44c.03-.12-.03-.7,0-.81.03-.12.6-1.33.62-1.35.02-.03.24-.23.24-.28,0-.05.05-.53.07-.56.02-.03.44-.44.44-.56s-.07-.63-.06-.67c0-.04.24-.37.27-.47.04-.11.05-.4.1-.49.06-.1.44-.36.48-.42s.22-.64.22-.73-.36-.68-.39-.74c-.03-.06-.52-.57-.55-.65-.03-.08-.19-1.06-.23-1.16-.04-.1-.68-.52-.71-.52s-.81-.06-.84-.08c-.03-.02-.51-.69-.56-.72-.05-.03-.3-.1-.4-.06-.1.04-.25.18-.31.17-.06,0-.26-.12-.27-.17,0-.06-.11-.56-.19-.65-.08-.09-.75-.69-.77-.74-.02-.06-.24-.84-.26-.87-.02-.03-.28-.15-.29-.21s0-.24,0-.24l-.39-.36-26.41.66s-.34.54-.53.66-.68.46-1.02.62c-.34.15-.94.19-1.05.19,0,0-.57-.18-.76-.18s-.65-.03-.75.02c-.1.05-.73.31-.84.31s-1.03.06-1.07.07c-.04,0-.4.26-.55.27-.16,0-.33.07-.41,0-.08-.07-.48-.34-.56-.34s-.3.04-.4.15c-.1.11-.63,1.07-.78,1.09s-2.05.24-2.09.25c-.04,0-.85.33-.96.36-.11.03-.89.08-.93.09-.04,0-.81.54-.84.57-.03.03-.96.24-1.01.26-.05.02-.5.22-.59.35-.09.13-.32.55-.4.6-.08.05-.14.09-.25.1-.11,0-.83.03-.88.06-.06.03-.43.17-.6.21-.17.04-1.79.3-1.84.28-.06-.02-.56-.31-.61-.37s-.39-.44-.47-.49c-.08-.06-.47-.15-.59-.13-.12.03-.29.05-.38.12-.08.07-.65.46-.7.49-.05.03-1.98.74-2.02.78-.04.05-.65.59-.74.59s-.38-.33-.5-.3-.41.18-.46.16-.28-.18-.32-.18-.77.03-.86.09c-.08.06-.6.69-.67.74-.07.05-.41.18-.51.19-.09,0-.26-.06-.29-.15-.03-.09-.13-.68-.18-.81-.05-.14-.17-.33-.22-.34-.05,0-.69-.15-.73-.18-.05-.03-.34-.27-.4-.3-.07-.03-.67-.12-.71-.12s-.68.26-.74.25c-.07,0-1.03-.6-1.09-.61-.07,0-.32-.12-.4-.1-.08.02-1.16.36-1.25.36s-.39.03-.46.06c-.08.03-.45.17-.48.18-.03,0-1.39-.26-1.46-.25-.07,0-.94.42-.99.49-.05.08-.12.44-.15.46-.03.02-.37.17-.37.17,0,0,.08.14,0,.17-.08.04-1.5.74-1.59.79-.08.06-1.2.34-1.28.4-.08.06-.32.28-.36.31-.04.03-.24.07-.24.07,0,0,.23-.16.24-.19.02-.03.07-.12.07-.12,0,0-.48.29-.53.31-.05.02-.44.17-.57.21-.13.04-.79,0-.79,0,0,0-.52-.63-.61-.61-.09.02-1.12.21-1.12.21,0,0-.58-.08-.72-.13-.14-.05-.71-.44-.77-.46-.07-.03-.17-.21-.32-.21s-1.04-.13-1.04-.13c0,0-.73-.55-.78-.59-.05-.04-.23-.29-.23-.29,0,0-.25.25-.26.35,0,.1,0,.54,0,.54,0,0-.19-.32-.18-.43,0-.11.04-.25.08-.3.04-.05.33-.26.33-.26,0,0-.16-.63-.16-.68s.23-1.22.19-1.35c-.04-.14-.39-.86-.39-.89s.14-.76.14-.76l-.18.34-.13.05s.08-.25-.07-.06c-.15.19-.38.64-.43.66-.06.02-.22.03-.22.03,0,0,.38-.61.41-.64.04-.03.14-.09.14-.09,0,0-.08-.11-.06-.11s.34-.05.34-.05c0,0,.08-.12.08-.15s-.06-.07-.06-.07c0,0,.15.02.15-.11s-.27-.92-.27-.97,0-.32,0-.32l-.1.07s.05-.67,0-.71c-.04-.04-.5-.64-.5-.64,0,0-.38-1.33-.41-1.4-.04-.08-.1-.23-.17-.27-.07-.04-1.03-.72-1.08-.74-.05-.03-.41-.14-.47-.17-.06-.04-.38-.47-.4-.51-.03-.04-.32-.21-.35-.22-.03,0-.62.09-.65,0-.03-.09-.3-.32-.34-.31-.04,0-.43.39-.46.43-.03.04-.18.3-.21.32-.03.02-.49.18-.52.18s-1.42-.28-1.49-.31c-.07-.03-.64-.58-.65-.62,0-.04-.08-.47-.1-.5-.02-.03-.32-.18-.32-.18,0,0-.1-.22-.15-.27-.05-.05-.36-.19-.41-.19s-.33-.07-.33,0,.05.15,0,.19c-.05.05-.5.28-.53.38-.03.1-.08.39-.1.39s-.17-.08-.22-.05c-.05.03-.55.26-.59.26s-.23-.13-.29-.12c-.07,0-.59.13-.62.09-.03-.04-.14-.16-.22-.16s-.02.1-.08,0c-.06-.1-.19-.54-.19-.54l.08-.13s-.29.36-.39.37c-.09,0-.71-.02-.77,0-.06.02-.2.09-.2.12s.22.27.22.27l.36.03.08.37s.11,0,.15,0c.04.02.21.15.21.17s.02.16,0,.16-.24-.25-.29-.25-.11-.03-.09.04.07.45.08.48c.02.03.18.07.19.14,0,.07.15.38.12.38s-.19-.28-.26-.33c-.08-.05-.15-.06-.16-.09,0-.03-.09-1-.09-1l-.13.08s-.03-.1-.11-.04c-.08.06-.38.47-.38.47,0,0,.14-.3.08-.36s-.23-.15-.27-.16c-.05,0-.17.07-.18-.03,0-.1-.05-.36-.05-.36,0,0-.06.27-.11.31-.06.04-.17.08-.17.08,0,0,.25-.38.21-.37-.05,0-.21.13-.21.13v-.28s-.39-.37-.42-.37-.15.17-.15.17c0,0,0-.16-.05-.13-.05.04-.09.17-.13.08-.04-.1-.19-.35-.19-.35,0,0,.08-.05.11-.02.04.03.02-.02-.06-.07-.08-.05-.22-.15-.22-.09s.54,1.35.55,1.42c.02.07.29.76.29.79s.18,1.84.18,1.84h.08s.06.07.06.1-.12.26-.12.26l-.03-.18s-.11.55-.16.58c-.05.03-.33.06-.39.13-.06.07-.04.23-.1.29s-.28.13-.26.15.35.78.35.78l.14.09s-.11.05-.14.13c-.03.08,0,.35-.05.44-.04.09-.07,1.62-.08,1.65s-.19.3-.19.33.03.08.03.08c0,0,.17-.03.18.02,0,.05-.04.25,0,.3.05.05.21.19.23.24.02.05.03,1.27.03,1.27,0,0,.14-.12.14-.15s-.05-.24-.02-.31c.03-.07.15-.31.2-.33.05-.02.24-.04.24-.04l.07.11.05-.3s.05-.05.05.02.2.51.04.55c-.16.04-.54,0-.55.04-.02.03.03.26,0,.32-.03.06-.2.31-.24.42s-.29,1.3-.25,1.37.42.32.42.32l.41-.07s-.24.18-.24.26.21.52.21.55-.05.2-.05.2h.16l-.05.11h.45s-.39.23-.4.27c0,.04-.13.31-.13.31,0,0-.57-.64-.6-.65-.03,0-.2.02-.2.02,0,0-.02-.33-.05-.28-.03.05.02.43-.08.47-.1.05-.23.13-.21.15.02.03.14.13.13.2,0,.08-.08.25-.05.3.04.05.38.55.4.61.03.06.08.42.08.45s-.38.47-.38.47l.07-.72.13-.04s-.14-.36-.15-.26-.24,1.42-.24,1.42l-.42.33.08.09s.25.02.28,0c.03-.02.04,0,.07.05.03.04.12,1.05.12,1.05l.12-.13v-.12l.24-.14s0,.15,0,.17c0,.03-.32.44-.32.44l-.08-.09-.25.94h.1s.03.28.03.31-.08.69-.08.69c0,0,.2-.29.2-.34s-.08-.4-.08-.4c0,0,.12-.31.12-.21s0,.5.02.55c.02.05.24.24.24.28s-.04.25-.07.23c-.03-.02-.14-.38-.17-.35s-.04.17-.08.21c-.05.04-.19.16-.22.23-.03.07-.21,1.06-.23,1.1-.02.04-.26.25-.28.32-.02.07-.11.34-.09.38.02.04,0,.15,0,.15,0,0,.17,0,.24.05.07.04.29.37.29.37l-.48-.32-.24,2.11s.15.03.14.09c0,.06-.08.18-.05.2.03.02.15.02.15.08s-.02.2-.02.2l-.27.18v-.51s-.39,1.45-.4,1.48c-.02.03-.15.14-.15.16s.11.3.06.38c-.06.08-.16.24-.16.24,0,0,.05.15.05.19s-.05.26-.05.26c0,0,.16.63.16.67s-.12,1-.16,1.02c-.04.02-.15.18-.15.18,0,0,.14-.06.21.07.07.13.11.2.09.26s-.15.63-.15.63c0,0,.2-.16.25-.15.06,0,.4.15.44.15s.08.24.08.24c0,0-.17.44-.12.49.05.05.5.23.5.23,0,0,.15-.15.2-.18.05-.03.16-.07.16-.04s-.16.38-.25.39c-.09,0-.52-.17-.56-.19-.05-.02-.19-.08-.19-.12s.11-.3.11-.3c0,0-.04-.23-.05-.19,0,.04-.16.29-.16.29,0,0-.17.03-.14-.05s.24-.36.24-.36l-.17.03s-.07-.22-.11-.19c-.05.03-.25.05-.27.14-.02.09-.2,1.4-.2,1.4,0,0-.08.61-.09.64,0,.03,0,1.48,0,1.48,0,0,.45-.45.45-.42s.14.16.14.16c0,0,.12-.08.12-.05s-.03.39-.03.39l.34.19h-.34s-.09.15-.09.12-.2-.46-.2-.46l-.11.26s0-.29-.04-.27-.3.28-.3.28c0,0-.19,1.18-.22,1.25-.03.07-.07.25-.07.28s-.14.33-.14.36.08.11.08.16-.18.49-.18.56.08.17.08.25-.07,1.33-.08,1.38c0,.06-.03.27-.07.41-.04.14-.17.48-.17.59s.08.59.07.64c0,.05-.29,1.51-.29,1.51l.12.17.12-.1s-.03.55-.03.61-.02.25.02.3c.04.05.07.1.1.09.04,0,.35-.09.37-.13.02-.04.24-.35.24-.35l.08.08-.16.18-.02.1.69-.21-.43.24s-.02.37-.05.4c-.03.03-.08.08-.08,0,0-.08.04-.15-.07-.19-.1-.04-.32-.03-.43-.02-.11,0-.2.04-.25-.02-.06-.06-.08-.05-.08-.12,0-.07,0-.41,0-.48,0-.08-.13-.3-.13-.3,0,0-.31,2.33-.3,2.38,0,.05,0,.15,0,.15,0,0,.12.05.11.08,0,.03-.07.09-.11.12-.05.03-.19.89-.19.89l.1.1-.1.14-.6,2.51s.51-.4.51-.51.05-.63.08-.67c.04-.04.32-.24.4-.21.08.03.14.11.16.21.02.11.06.4.06.4,0,0,.25.06.31.05.06,0,.18-.13.18-.13l-.08.32s.24.14.38.15c.13,0,.83.02.87.02s.52.16.52.16l.37.32.07.31s-.19-.33-.26-.37c-.08-.04-.57-.3-.67-.31-.09,0-.98.03-1.02.02-.04,0-.39-.32-.41-.32s-.16.09-.19.04c-.03-.05-.24-.28-.25-.34,0-.06-.05-.25-.05-.25,0,0-.05.03-.11.14-.07.11-.18.33-.19.37,0,.04.04.1.03.15,0,.05-.3.19-.34.25-.04.06-.03.21-.03.21,0,0-.11,0-.15.02-.04.02-.19.19-.22.28-.03.09-.16.7-.16.7,0,0-.27,1.27-.36,1.56-.08.29-.54,1.54-.61,1.66-.08.13-.49,1.04-.53,1.09-.04.05-.28.58-.28.58l.17.07s0-.36.13-.43c.13-.07.38-.31.39-.36,0-.05,0-.21.06-.28.06-.07.24-.22.3-.24.07-.02.19-.05.19-.05v-.12s.13.13.14.1c0-.03.11-.46.11-.46,0,0,.15.06.19.04.04-.02.24-.27.24-.24s.03.22-.04.27c-.07.05-.34.37-.31.37s.21.03.21.07.08.18.08.18c0,0,.18-.04.17.02,0,.06-.21.31-.15.38.06.07.28.24.3.3.02.06.1.45.1.45l-.18-.09-.05-.19-.35.13s-.13-.28-.13-.31.09-.73.07-.73-.2-.14-.29-.07c-.09.07-.56.54-.56.54l-.3.67s-.19-.02-.2.05c0,.07-.07.34-.07.34,0,0,.2-.11.23-.09.04.02.2.13.2.13l-.06.14-.18-.17-.22.17.07.14-.08.09.08.08.08.58-.15-.36-.08.31s.03-.69,0-.69-.09.11-.12.08c-.03-.03.16-.49.16-.49l-.12-.15-.14-.02s-.06.16-.12.17c-.07,0-.26.02-.31.07-.05.05-.33.49-.33.57s.19.68.19.76-.25,1.46-.27,1.51c-.02.05-.53,1.32-.54,1.34,0,.03.06.3.06.35s-.26,1.29-.31,1.37c-.05.09-.68,1.8-.71,1.9Z"/></g></svg>