<?xml version="1.0" encoding="UTF-8"?><svg id="Layer_2" xmlns="http://www.w3.org/2000/svg" viewBox="0 0 97.87 95.25"><defs><style>.cls-1{fill:#f3e9dd;stroke-width:0px;}</style></defs><g id="_ÎÓÈ_1"><path class="cls-1" d="m97.66,47.07c.09-.04.21-.19.21-.19,0,0-.27-.16-.21-.2s.12-.1.09-.12c-.03-.02-.37-.18-.29-.26.08-.08.15-.17.14-.23,0-.06-.08-.2-.08-.24s.1-.28.05-.29c-.05-.01-.14-.02-.28.07-.15.09-.25-.1-.25-.17s0-.24,0-.27-.17-.24-.18-.3c0-.06-.03-.04-.14-.09s-.41-.28-.38-.33c.03-.05.21-.5.21-.5,0,0-.16.08-.16-.05s-.05-.27-.11-.29c-.06-.02-.14-.1-.12-.19.02-.09-.09-.19-.09-.19,0,0-.42-.12-.35-.19.07-.07.23-.15.24-.2,0-.05,0-.13,0-.13,0,0-.26-.16-.27-.18,0-.02-.17.14-.21.06-.04-.08-.46-.5-.47-.58,0-.08.12-.13.13-.22,0-.09.06-.27.03-.3-.03-.03-.17-.07-.12-.15.06-.08.21-.32.18-.33-.03,0-.21-.04-.21-.09s-.13-.27-.1-.35c.03-.08.08-.14.03-.2-.05-.06-.35-.29-.35-.35s-.1-.32-.12-.37c-.02-.05-.14-.12-.14-.12l-.03-.14s-.15.09-.15.05-.04-.21-.07-.22-.3-.05-.34-.11c-.04-.06-.34-.51-.39-.53-.05-.02-.13,0-.15-.06-.02-.06-.74-9.46-.74-9.46l-.37-4.51-.18-.03s.06-.24-.06-.18c-.12.06-.33.24-.33.24l-.19-.09.06-.13s-.19-.08-.23-.08-.31.09-.29.12c.02.03.14.17.11.17s-.12-.09-.15-.03c-.04.06-.07.15-.13.11-.06-.04-.04-.33-.06-.3-.02.03-.14.25-.19.27-.06.02-.08-.3-.12-.19-.04.11-.15.28-.17.28s-.23-.17-.23-.11,0,.19-.08.19-.19,0-.24-.03c-.05-.04.13-.31.02-.27s-.22.14-.25.09c-.03-.05-.11-.19-.14-.2-.03-.01-.21.05-.21-.02s.13-.37.08-.37-.2-.03-.22.05c-.02.08-.05.16-.1.16s-.18.04-.18.01-.05-.18-.05-.18c0,0-.2.15-.2.11s.21-.32.04-.25c-.17.07-.24.15-.24.09v-.27s-.14.11-.16.08c-.02-.03-.11-.19-.16-.12-.05.07-.02.2-.13.21-.11.01-.04-.2-.14-.23-.1-.03-.42.02-.42.02,0,0-.07-.3-.1-.29-.03.01-.17.01-.17.01,0,0-.16-.02-.16-.05s.08-.3.02-.24c-.06.06-.16.2-.25.2s-.39-.06-.47-.11c-.08-.05-.35-.27-.35-.27,0,0,.03-.21,0-.21s-.23.03-.23-.02.05-.18.03-.21c-.02-.03-.16-.23-.19-.21-.03.02-.14.13-.16.1-.02-.03-.07-.12-.14-.13-.07-.01-.26.09-.28.04-.02-.05-.2-.49-.2-.45s.03.31-.09.24c-.12-.07-.06-.34-.12-.28-.06.06-.19.15-.2.12,0-.03.1-.2-.08-.23-.17-.03-.69-.22-.71-.16-.02.06-.11.25-.12.34,0,.09-.03.23-.03.23l-.13-.09s0,.2-.03.24c-.04.04-.11.09-.16.05s-.21-.11-.23-.08l-.02.03s0,.08-.05.1c-.05.02-.44.07-.54.07s-.31-.03-.31-.03c0,0-.03-.14-.06-.11-.03.03-.18.11-.18.11,0,0-.12-.16-.15-.15-.03.01-.13.21-.16.13-.04-.08-.06-.33-.19-.4-.14-.07-.32-.07-.32-.07,0,0,.12.1,0,.13-.12.03-.5.18-.5.18l-.16.17s-.41-.04-.4,0c0,.03,0,.39-.09.39s-.21-.11-.28-.09c-.07.02-.17.26-.26.23-.09-.03-.7-.39-.71-.35,0,.04,0,.18-.04.2-.03.02-.24.09-.25.06,0-.03-.08-.16-.09-.12s-.12.23-.12.23c0,0-.08-.13-.11-.1-.03.03-.08.16-.15.16s-.34-.06-.34-.06c0,0,0,.12-.04.13-.03,0-.19,0-.19,0,0,0,.03.06-.04.11-.07.05-.16.04-.16.07s-.12.51-.19.55-.3.12-.33.1c-.03-.02-.28-.16-.28-.16,0,0-.06-.01-.09.03-.03.04-.11.45-.14.49-.03.04-.19.26-.29.21-.1-.05-.09-.17-.12-.24-.03-.07-.37-.51-.49-.51s-.53.09-.55.04c-.02-.05-.15-.34-.19-.36-.05-.02-.29-.02-.34-.04-.05-.02-.37-.16-.36-.25,0-.09.21-.37.18-.37s-.33-.04-.33-.04c0,0-.13-.15-.17-.13-.05.02-.16.1-.16.13s-.04.5-.08.52c-.04.02-.42.17-.42.17,0,0-.28-.36-.31-.36s-.16-.02-.2,0c-.04.02-.2.22-.25.15-.05-.07-.42-.94-.48-.9s-.32.16-.32.16l-.14-.09s.07.5.06.53c0,.03-.3.47-.33.47s-.26-.13-.29-.09.16.14.14.22c-.02.08-.23.13-.23.26s.03.48,0,.57c-.04.09-.13.19-.21.19s-.32-.12-.4-.21c-.08-.09-.23-.66-.2-.71.03-.05.22-.21.23-.29,0-.08-.2-.48-.26-.48s-.3.14-.3.14l-.2.24s-.3-.2-.31-.13c0,.07.02.22,0,.22s-.09-.18-.17-.04c-.09.14-.12.25-.19.33-.08.08-.14.13-.26.13s-.35-.05-.36-.19c0-.14-.02-.41-.06-.49-.04-.08-.18-.23-.33-.18-.15.05-.43.2-.5.12-.08-.08-.14-.06-.14-.18s.07-.38,0-.35c-.07.03-.17.06-.22,0-.05-.06-.2-.2-.28-.2h-.08s0-.06-.14.11c-.14.17-.14.32-.33.44s-.35.2-.35.2c0,0,.06.13,0,.18-.07.05-.47.34-.59.34s-.8-.29-.8-.34c0-.05.23-.22.2-.28-.03-.06-.19-.07-.16-.19.03-.12.19-.35.11-.42-.09-.07-.17-.12-.23-.13s-.28.09-.35.09-.37-.03-.41-.06c-.04-.03-.12-.17-.12-.23s.19-.14.13-.19c-.07-.05-.22-.11-.22-.18s.09-.09.14-.24c.05-.15-.09-.53-.13-.5-.04.03-.43.36-.48.35s-1.35-.21-1.37-.18c-.02.03-.23.58-.3.62-.07.04-.34.21-.37.21s-.99-.84-1.11-.85c-.13-.01-.24-.07-.34-.01s-.13.21-.23.23-.4.13-.4.13c0,0-.62-.3-.75-.31-.13,0-.37.05-.4.03-.03-.02-.26-.42-.37-.42s-.47-.01-.59-.01-.47.07-.58.06c-.12-.01-.44-.09-.49-.2s-.14-.33-.16-.43c-.02-.1.03-.51-.02-.57-.05-.06-.34-.39-.34-.42s0-.11-.06-.14c-.06-.03-.46-.24-.46-.24,0,0-.21-.33-.3-.28-.09.05-.08.17-.09.29s.04.42-.13.43c-.16.01-1.1-.36-1.16-.3-.07.06-.17.36-.3.38-.13.02-.47,0-.59-.08-.13-.09-.77-.63-.82-.7-.06-.07-.53-.65-.55-.7-.02-.05-.35-.36-.42-.36s-.16,0-.23.03c-.08.03-.24.21-.25.15,0-.06-.16-9.81-.16-9.81l-.12-7.74s-18.76.03-21.21,0c-.06,1.26-.84,40.66-.84,40.66,0,0-25.42-.78-26.21-.93,0,0-.18.13-.16.16.02.04.12.07.12.1,0,.03-.09.16-.07.17.02.01.09.07.09.07,0,0-.19.16-.14.17.05.02.12.02.1.07s-.25.08-.24.19c.01.1.05.25.12.31.07.06.2.08.21.16.01.08-.04.2.02.22.06.01.36.13.38.15.01.02.37.55.42.58s.39-.03.45,0c0,0,.23.1.31.23.08.13.25.31.3.47.05.16.34.98.36,1.02.02.04.2.14.23.21.03.07.2.59.24.65.04.06.5.42.5.42,0,0,.19.06.25.1s.15.16.2.19c.06.03.45.08.53.11s.27.18.37.27c.1.09.05.33.12.37.07.04.21.11.23.14.02.03.06.13.1.13s.16.05.21.11c.05.06.55.72.58.8.03.08.02.28.1.3.08.02.24.05.26.09.02.04.06.11.12.15.06.04.42.22.45.22s.4.31.42.36c.02.05.1.45.13.53.03.08.07.23.13.28.06.05.42.28.43.3,0,.02.08.15.09.18s.62.5.62.53-.06.23.02.26c.08.03.34.13.41.16.07.03.19.15.24.18.05.03.1-.07.16,0,.07.07.16.21.19.21s.3-.11.31-.07-.06.2,0,.2.16-.01.17,0c.02,0,.07.15.1.16.03.01.17-.06.17,0s-.03.14,0,.16c.03.02.31.07.31.1s-.03.08.04.13c.07.05.26.34.26.34,0,0,.37.06.42.09s.21.21.21.29.03.29.08.31c.05.02.27.1.33.15.06.05.13.15.16.25.04.1.37,1.31.36,1.38,0,.07-.11.23,0,.32s.24.12.25.17c0,.05,0,.21.05.31.06.1.34.32.34.36s.09.28.09.28c0,0,.04-.14.19.12.16.26.27.64.24.79s-.06.34-.06.4.07.29.04.37c-.03.08-.14.26-.14.26,0,0,.11.07.08.13-.03.06-.06.15-.06.15,0,0,.12.08.09.15-.03.07-.08.23-.06.26.02.03.12.17.12.2s-.17.14-.02.27c.16.13.06.19.06.19,0,0,.27.22.31.37.04.15.1.31.15.39.05.08.22.31.25.38.03.07.17.58.17.61s.09.18.09.18c0,0-.12.05-.08.13.04.08.16.29.22.35.06.06.22.13.31.2s.13.26.22.29.3.07.33.15c.03.08.03.18.13.22.1.04.18.04.22.08.04.04.04.15.15.15s.13-.11.2-.07c.08.04.49.27.49.27l.06.2s.18-.12.17,0c0,.12-.11.2-.05.27.06.07.3.39.34.46.04.07.15.14.19.17.05.03.2.06.29.12.09.06.41.43.41.43l.51.24s.32.04.43.07c.11.03.41.09.52.12.12.03.22.09.32.12.1.03.24.05.24.05l.02.33h.16s.28.41.31.43c.03.02.39,0,.44.1l.05.1s.62-.02.73.05c.11.07.32.24.36.31.04.07.22.38.25.44.03.06.17.05.17.05,0,0,.08.11.14.19.06.08.39.19.45.21.06.02.27-.18.3-.09.03.09.02.18.08.2.06.02.1.08.13.12s.15,0,.15.09,0,.19.04.16c.04-.03.1-.12.16-.12s.08.06.18.06.39-.06.42-.04c.03.02.04.08.12.11.08.02.24-.06.3-.08.06-.02.15-.04.15-.07s.1-.13.1-.21,0-.28,0-.31.09-.05.12-.09c.03-.04.12-.29.12-.29l.22-.08.4-.68s.13.09.28.03c.16-.06.31-.17.31-.17,0,0-.08-.09.06-.12.14-.03.25-.08.26-.14,0-.06-.11-.15-.17-.2-.07-.05-.17-.08-.11-.22.07-.14.16-.64.21-.67.05-.03.33-.1.33-.1,0,0-.02-.1,0-.13,0-.03.2-.19.2-.22s-.15-.27-.12-.38c.03-.11.16-.35.18-.39.02-.04-.06-.26-.02-.32.04-.06.11-.08.19-.17.09-.09.12-.32.15-.39.03-.07.07-.17.12-.17s.05-.25.1-.31c.05-.06.34-.29.36-.33.02-.04.02-.2.04-.24.02-.04.12-.38.15-.38s.33.08.33.08c0,0,.4-.24.48-.24s.09.06.15.07c.06.01.23-.14.23-.14,0,0-.05-.14.03-.13.08.01.43.06.49.09s.41.12.43.09c.02-.03.16-.73.24-.77.08-.04.18-.26.25-.26s.36,0,.41.05c.05.06.21.21.28.23.07.02.2.07.23.07s.17-.01.17-.01c0,0-.05.09.04.16.09.07.43.33.48.33s.3.05.4.03c.1-.02.16-.16.23-.17.08,0,.22.05.29.03.07-.02.12-.16.16-.11.04.05.34.26.34.26,0,0,.06-.09.16-.11.1-.02.39-.04.46-.03.07.01.09.04.19.07.11.03.15.06.23.06s.15-.01.3.04c.16.05.36.16.36.16h.16l.15-.02.15.14s.04-.14.15-.14.32.03.37-.02c.05-.05.08-.18.1-.23.02-.05.15-.15.16-.12,0,.03-.03.42.04.41.07,0,.58-.22.58-.22,0,0,.09.29.12.29s.35-.1.35-.1l-.12.15.1.16s-.02.12.05.18c.07.06.18.12.18.18s.05.34.05.34c0,0,.13-.13.23-.07s.2.04.2.23.03.52.03.52c0,0,.19-.07.19-.14s.06-.29.09-.29.18.03.17.16c0,.13.02.31,0,.4,0,.09-.17.37-.1.38.08,0,.54.07.58.07s.2.3.24.32c.04.02.57.09.62.18.05.09.28.46.34.57s.16.28.2.3c.05.02.18.1.44.21.25.11.35.24.39.3.04.06.07.19.13.22.06.03.36.16.47.25.11.09.31.33.31.37s-.06.32,0,.37c.07.05.8.72.8.75s.14.84.14.88-.04.31,0,.33c.03.02.19.16.19.2s-.07.12-.07.12l.27.14s.09.32.15.45c.06.13.15.14.23.19.08.05.19.35.17.4-.02.05-.03.13.02.22.05.09.12.12.16.24.04.12.03.57.1.61.07.04.35.19.36.23,0,.04-.05.13.04.19.09.06.35.27.36.3s-.08.31-.08.31c0,0,.14.17.19.21.06.04.37.2.37.2,0,0-.22.09-.21.18,0,.09.22.15.21.32,0,.17-.11.34-.04.48.07.14.42.69.42.69,0,0-.03.22.03.32.06.1.29.31.32.33.03.02.19.04.19.04,0,0,0,.23.09.3.09.07.32.21.38.24.06.03.63.21.63.24s.26.57.26.57c0,0,.26.1.26.13s.22.53.27.58c.05.05.29.14.32.17.03.03,0,.29.05.34.05.05.3.33.3.36s-.12.23-.07.3c.05.07.17.2.19.26.02.06-.06.35,0,.37.06.02.22.04.25.1.03.06,0,.17.08.18.08.01.27,0,.27.06s.07.23.1.26c.03.03.26.01.28.06.02.05.3.52.33.52s.33-.07.36,0,.08.26.13.28c.05.02.4-.09.45-.07.05.02.11.11.12.14,0,.03-.09.17,0,.18.09.01.27-.15.3-.07.03.08.26.33.26.42s-.07.58-.07.58c0,0,.31-.03.3.08,0,.11.03.38,0,.45-.03.07.04.32.01.4-.03.08-.14.46-.16.49-.02.03-.24.16-.21.19.03.03.29.09.3.16,0,.07.03.3.03.3,0,0,.36-.03.39.07.03.1.14.66.15.76,0,.1-.1.44-.08.51.02.07.1.22.08.25-.02.03-.16.35-.1.45.06.1.21.11.27.2.06.09.22.25.23.36,0,.11-.11.22,0,.27.11.05.43.14.46.25.03.11,0,.29.06.32.06.03.36.17.42.29.06.12.18.45.19.54,0,.09.03.28.09.33.06.05.1-.01.17.19.08.2.14.41.15.52.02.11,0,.21.12.32.12.11.14.17.13.29,0,.12-.07.4,0,.48.08.08.38.14.45.29.08.15.15.33.09.46-.06.13.03.34.08.4.05.06.08.14.28.06.2-.08.23-.07.27,0,.04.06.19.15.24.13.05-.02.21-.05.21-.05,0,0,.15.24.16.19,0-.05.1-.19.14-.14.04.05.18.24.24.25.06.01.06-.07.2-.1.15-.03.42-.05.48,0,.06.05.21.33.28.38.07.05.22,0,.25,0s0,.13.05.19c.05.06.3.11.3.16s-.13.08,0,.12c.13.04.37.14.37.14,0,0-.11.11,0,.09.11-.02.19-.18.3-.19.11,0,.31.06.38.09.07.03.31.04.36.1.05.06.18.14.18.14.06.06.1.12.16.16.06.04.11-.14.15-.16.04-.02.18,0,.19.04,0,.04.07.19.11.21.04.02.25.25.32.26.07.01.19-.17.23-.07.04.1.1.19.1.19,0,0,.08-.2.09-.13,0,.07,0,.22.07.3.06.08.17.25.17.21s-.07-.18.04-.2c.11-.02.21-.03.23.02.02.05.03.11,0,.14-.03.03-.11.01-.04.09.07.08.18.08.32.13.14.05.18.14.26.16.08.02.11.02.2,0,.1-.02.11,0,.23.02q.13.01.25,0c.13-.02.29-.07.29-.07,0,0,.02.26.08.25s.27-.02.3-.07c.03-.05.04-.19.07-.19s.13.09.16.07c.04-.02.22-.09.22-.09,0,0,.12.1.15.1s.31-.07.41-.09c.1-.02.2-.06.28-.06s.24.07.32.13c.08.06.16-.05.19-.05s.12.15.17.16c.06,0,.13-.13.15-.07.02.06.13.16.13.16h.16l.05-.06.12.06s.02-.13.07-.1c.05.03.08.13.1.1.02-.03,0-.11.1-.11s.17-.05.23.03.26.37.3.45c.04.08.17.15.2.15s.17.1.17.1c0,0,0,.08,0,.11,0,.03.2.01.24.07.04.06.12.33.18.34.07.01.16-.04.16-.04,0,0-.02.1.04.11.06,0,.32.05.32.05,0,0-.02.18.05.2.07.02.21.11.22.08,0-.03.11-.07.12-.04,0,.03-.05.09.07.05.12-.05.15-.07.16-.13.02-.06.1-.13.11-.17,0-.04-.2-.27-.15-.39s.2-.25.27-.19c.07.06.16.2.19.14s0-.13.09-.13.21-.02.22-.06c0-.04-.15-.12,0-.13.15,0,.08.05.24,0,.16-.05.23-.1.37-.11.14,0,.36.03.4.01.04-.02-.05-.93-.05-.93l-.56.29s.21.04.26,0c.05-.04.17-.13.17-.13l-.02.13s.12,0,.12.03.02.2.02.2c0,0-.14,0-.16.05-.02.05-.06.16-.1.15-.04,0-.07-.17-.12-.07-.05.1-.02.15-.08.15s-.24.05-.24.02.05-.29.05-.29l-.16.07s.08-.17.05-.15c-.03.02-.27.24-.32.27-.05.03-.24.22-.24.19s.03-.24.06-.26c.03-.02.65-.35.64-.4,0-.05-.04-.24-.04-.24l.14.08.07-.08.08.05s.09-.11.06-.13c-.03-.02-.55-.09-.58-.1-.03,0-.37-.29-.37-.29l.09-.11.16.09s-.22-.27-.22-.31.07-.39.07-.39l-.2-.18-.1.38-.12-.14s.08-.26.12-.34c.04-.08.24-.19.24-.19l-.24.02.14-.16s-.31.15-.28.05c.03-.1,0-.18,0-.28,0-.1-.07-.16-.05-.2.02-.04.14-.28.14-.28l-.2.18s-.07,0-.04-.11c.03-.11.13-.23.13-.23,0,0-.44.21-.42.17s.14-.24.14-.24l-.16.02.02-.16s-.31.15-.28.12c.03-.03.36-.29.28-.33-.08-.04-.16-.07-.17-.04,0,.03-.06.16-.06.16,0,0-.18.09-.18.05s.16-.41.16-.41c0,0-.44.05-.44.02s.17-.31.17-.26,0,.15.03.15.19-.02.19-.02c0,0,.06-.03.05-.06,0-.03-.16.01-.14-.04.02-.05.04-.17.04-.17l-.28.05-.17-.13s.47.05.47.02.07-.48.07-.48l.11.53s.11-.01.1-.08c0-.07-.1-.33-.1-.38s.02-.1,0-.16c-.02-.06-.12-.06-.16-.14-.04-.08-.15-.34-.15-.37s.05-.21.03-.28c-.02-.07-.31-.94-.34-1-.03-.06-.15-.26-.15-.26,0,0,.08-.02.05-.08-.03-.06-.34-.17-.34-.17,0,0-.1.08-.12.05-.02-.03-.17-.29-.17-.29,0,0,.13.01.13-.03s0-.46.03-.43c.02.03.47.42.47.42,0,0,.16-.07.16-.12s-.27-.33-.27-.33c0,0,0,.21,0,.18,0-.03-.27-.18-.27-.21s-.25-.54-.25-.54c0,0,.12.02.12-.04s-.07-.21-.03-.21.56.04.57-.01c0-.05.1-.15.06-.21-.04-.06-.2-.29-.2-.29,0,0,.06.02.11-.01.05-.03.12-.07.09-.13-.03-.06-.25-.19-.22-.21.03-.02.04-.13.09-.12.05.01.13.06.16.01.04-.05.18-.24.18-.24l.02-.27-.09.14s-.05-.04-.04-.11c0-.07.11-.46.1-.51,0-.05-.1-.22-.06-.25.04-.03.12-.01.12-.01,0,0-.02.25,0,.21.02-.04.06-.56.09-.7.03-.14,0-.14.05-.32.06-.18.27-.66.28-.76,0-.1.16-.93.17-.99,0-.06.61-1.56.6-1.59,0-.03-.78-.33-.86-.37-.09-.04-.24-.28-.24-.36s0-.27.1-.4c.1-.13.48-.33.53-.36.06-.03.3-.13.33-.12.03,0,.16.17.19.17s.16.05.16.05v.11s-.19.04-.19.04l.39.08s.03.06.11-.08c.08-.14.58-1.1.65-1.24.07-.14.28-.66.35-.66s.13.1.15.07,0-.67,0-.73c0-.06,0-.17.07-.17s.16.08.27.04c.11-.04.22-.02.32-.08.1-.06.24-.2.24-.2v.17s.02-.04.08-.06c.06-.02.17-.15.17-.19s-.11-.1-.11-.1c0,0,.75-.49.75-.55s-.22-.48-.2-.54c.02-.06.13-.26.12-.34s-.15-.58-.04-.68.26-.16.31-.15c.05.01.31.05.31.14s-.04.47,0,.5c.04.03.16.12.16.12l.26-.16-.14.18.22-.05-.14.2s.31-.19.45-.28c.14-.09.71-.4.9-.53.19-.13.77-.35.69-.48-.08-.13-.71-.5-.76-.58-.05-.08-.27-.26-.23-.32.04-.06.3-.25.42-.31.12-.06.79-.52.9-.55.12-.03.23-.09.31-.13s.07-.17.12-.16c.05.01.48.28.5.36.03.08-.11.12-.12.19,0,.07.04.26.12.22.08-.04,1.21-.68,1.29-.7.08-.02.22.03.26.01.04-.02.17-.15.17-.15,0,0,.11.01.13.05.02.04.12.25,0,.35-.12.1-1.31.83-1.39.88-.08.05-.79.47-.81.5-.03.03-.21.08-.34.23-.13.15-.39.42-.39.42,0,0,0,.1.06.06.06-.04.88-.76.98-.81.1-.05,1.92-1.11,2.01-1.17.09-.06.81-.51.92-.57.11-.06,1.07-.6,1.07-.6l-.04-.12-1.14.71s-.21.13-.27.15c-.06.02-.44.21-.44.15s.13-.46.15-.54c.02-.08,1.02-.52,1.1-.52s.29.04.42,0c.13-.03.36-.2.41-.22.05-.02.16-.03.16-.03,0,0-.3.35-.24.31s1.81-1.32,1.87-1.35c.06-.03.31-.21.31-.21l.15.15s-.14-.13-.04-.21c.1-.08.52-.32.59-.39.07-.07.28-.5.45-.61s.8-.73.8-.73l-.22.03s-.28.31-.31.35c-.03.04-.3.25-.3.22s.36-.66.36-.66l-.09-.14-.27.28-.17-.08-.13.06v-.14s.14-.09.16-.09.1.14.15.1c.05-.04.27-.32.3-.3.03.02.22.3.22.3,0,0,.17,0,.17-.05s-.23-.21-.23-.27.11-.49.08-.56c-.03-.07-.07-.15-.1-.15s-.15.04-.18.03c-.03-.01-.32-.28-.29-.29.03,0,.67.33.71.3.04-.03.15-.1.15-.1v.22s.11-.02.17-.06c.07-.04.38-.24.46-.35.08-.11.25-.37.25-.4s-.08-.25-.08-.25c0,0,.11.15.17.11.07-.04.12-.11.15-.17.03-.06.09-.14.09-.17v-.17s.13.09.16.09.23.03.25-.02c.02-.05,0-.63,0-.63,0,0,.47.19.47.16s-.48-.21-.48-.33,0-.29-.02-.31c-.03-.02-.16-.08-.18-.03-.03.05-.07.08,0,.11.07.03.2.09.1.13-.11.04-.37-.02-.37-.02,0,0,.06-.09.08-.12.02-.03-.08-.21-.08-.21,0,0-.23.07-.23.04s.25-.24.28-.24.07.17.12.07c.05-.1.1-.24.03-.26-.07-.02-.49-.11-.53-.14-.04-.03-.27-.24-.26-.28,0-.04.26-.4.23-.46-.03-.06-.28-.18-.23-.31.05-.13.18-.55.27-.58.09-.03.14-.13.16-.05.03.08.15.41.23.39.09-.02.31-.16.31-.16,0,0,.15-.36.16-.41.02-.05.18-.31.31-.39.13-.08.55-.37.58-.32.03.05.06.28.13.28s.19-.19.2-.06c0,.13-.03,1-.05,1.14-.02.14-.03.28-.1.4-.07.12-.27.31-.24.32.03,0,.11.06.05.08-.06.02-.08.04-.14.04s-.17-.04-.17-.04c0,0,.06.17.09.18.03,0,.31.03.43-.01.12-.04,1.13-.43,1.17-.45.04-.02.16-.11.22-.01.07.1.14.25.17.24.04-.01.39-.17.39-.17,0,0,.06.13,0,.13s-.18.05-.18.08v.18s-.59-.22-.63-.11c-.04.11-.2.41-.26.43-.06.02-.4.11-.51.18-.12.07-.54.6-.61.73-.07.13-.04.33-.04.33,0,0,.39-.25.45-.29s.15-.22.16-.25c.02-.03.49-.42.6-.48.11-.06,1.85-1,1.97-1.08.12-.08,2.12-1.14,2.19-1.16.07-.02,1.51-.17,1.51-.17v-.12s-.82-.91-.74-1.01c.09-.1.67-.79.7-.83.03-.04.2-.83.2-.86s.24-.3.31-.36c.07-.06.26-.42.26-.42,0,0-.19-.03-.15-.14.04-.11.2-.48.2-.54s-.14-.04-.12-.11c.02-.07.07-.14.05-.2-.02-.06-.18-.19-.16-.29.02-.1.11-.57.06-.61-.05-.04-.45-.43-.47-.48-.02-.05-.08-.42,0-.52.08-.1.11-.25.17-.29.07-.04.18-.01.2-.11.02-.1-.13-.29-.12-.4,0-.11.08-.28.04-.32-.04-.04-.2-.1-.21-.21,0-.11.02-.36.1-.41.08-.05.21-.05.22-.13,0-.08-.11-.25-.05-.32.06-.07.46-.52.44-.58-.02-.06,0-.58,0-.58,0,0,.13-.07.15-.12.02-.05.05-.26.06-.29,0-.03.1-.05.14-.14.04-.09.07-.16,0-.3-.07-.14-.18-.31-.11-.35.08-.04.17-.05.15-.1-.02-.05-.1-.11-.05-.16.05-.05.18-.16.18-.16l-.09-.25-.26-.15v-.1s-.12-.13-.08-.17c.04-.04.17-.02.26-.06Z"/></g></svg>