<?xml version="1.0" encoding="UTF-8"?><svg id="Layer_2" xmlns="http://www.w3.org/2000/svg" viewBox="0 0 330.1 329.52"><defs><style>.cls-1{fill:#f8f7f0;}.cls-1,.cls-2,.cls-3,.cls-4,.cls-5,.cls-6,.cls-7,.cls-8,.cls-9,.cls-10,.cls-11,.cls-12{stroke-width:0px;}.cls-2{fill:#5660fe;}.cls-3{fill:#9ba1ff;}.cls-4{fill:#344a63;}.cls-5{fill:#242781;}.cls-6{fill:#c3acfc;}.cls-7{fill:#d58a6d;}.cls-8{fill:#9c9085;}.cls-9{fill:#eda257;}.cls-10{fill:#e8ebfc;}.cls-11{fill:#f0e4d5;}.cls-12{fill:#030303;}</style></defs><g id="Layer_1-2"><path class="cls-9" d="m165.06,164.72L103.36,11.99C123.6,3.82,143.23,0,165.06,0v164.72Z"/><path class="cls-4" d="m165.06,164.72L68.24,31.46c11.78-8.56,21.62-14.01,35.11-19.46l61.7,152.72Z"/><path class="cls-8" d="m165.06,164.72L50.64,46.23c5.24-5.06,11.72-10.49,17.6-14.77l96.82,133.26Z"/><path class="cls-6" d="m165.06,164.72L3.37,196.15c-11.11-57.15,5.39-109.47,47.27-149.92l114.42,118.49Z"/><path class="cls-1" d="m165.06,164.72l-87.29,139.69C37.66,279.34,12.4,242.58,3.37,196.15l161.69-31.43Z"/><path class="cls-3" d="m165.06,164.72l-20.07,163.49c-25.28-3.1-45.61-10.3-67.21-23.8l87.29-139.69Z"/><path class="cls-12" d="m165.06,164.72l72.21,148.05c-29.44,14.36-59.78,19.43-92.28,15.44l20.07-163.49Z"/><path class="cls-11" d="m165.06,164.72l120.47,112.34c-14.89,15.97-28.64,26.14-48.26,35.71l-72.21-148.05Z"/><path class="cls-5" d="m165.06,164.72l153.78,59.03c-7.82,20.38-18.42,37.34-33.31,53.31l-120.47-112.34Z"/><path class="cls-10" d="m165.06,164.72l161.69-31.43c6.25,32.15,3.82,59.89-7.91,90.46l-153.78-59.03Z"/><path class="cls-7" d="m165.06,164.72l103.66-128.01c31.11,25.19,50.39,57.29,58.03,96.58l-161.69,31.43Z"/><path class="cls-2" d="m165.06,164.72V0c40.03,0,72.55,11.52,103.66,36.71l-103.66,128.01Z"/></g></svg>