<?xml version="1.0" encoding="UTF-8"?><svg id="Layer_2" xmlns="http://www.w3.org/2000/svg" viewBox="0 0 330.41 329.88"><defs><style>.cls-1{fill:#5660fe;}.cls-1,.cls-2,.cls-3,.cls-4,.cls-5,.cls-6,.cls-7{stroke-width:0px;}.cls-2{fill:#9ba1ff;}.cls-3{fill:#242781;}.cls-4{fill:#d58a6d;}.cls-5{fill:#e8ebfc;}.cls-6{fill:#f0e4d5;}.cls-7{fill:#030303;}</style></defs><g id="Layer_1-2"><path class="cls-2" d="m165.47,164.94L153.97.4c3.63-.25,7.86-.4,11.51-.4v164.94Z"/><path class="cls-7" d="m165.47,164.94L114.51,8.07c13.86-4.5,24.92-6.65,39.46-7.67l11.51,164.54Z"/><path class="cls-6" d="m165.47,164.94L103.69,12.01c3.38-1.36,7.35-2.81,10.82-3.94l50.97,156.86Z"/><path class="cls-3" d="m165.47,164.94L68.53,31.5c11.79-8.57,21.65-14.03,35.16-19.49l61.79,152.93Z"/><path class="cls-5" d="m165.47,164.94L25.6,77.53c11.59-18.54,25.24-33.18,42.93-46.03l96.95,133.44Z"/><path class="cls-4" d="m165.47,164.94l-112.49,120.63C-5.64,230.9-16.88,145.51,25.6,77.53l139.87,87.4Z"/><path class="cls-1" d="m165.47,164.94V0c91.09,0,164.94,73.85,164.94,164.94s-73.85,164.94-164.94,164.94c-43.72,0-80.51-14.49-112.49-44.31l112.49-120.63Z"/></g></svg>