<?xml version="1.0" encoding="UTF-8"?><svg id="Layer_2" xmlns="http://www.w3.org/2000/svg" viewBox="0 0 136.37 192.02"><defs><style>.cls-1{fill:#5660fe;}.cls-1,.cls-2{stroke-width:0px;}.cls-2{fill:#de9c7f;}</style></defs><g id="Layer_1-2"><path class="cls-1" d="m114.78,72.01h-6c0-26.27-21.37-47.64-47.64-47.64v-6c29.58,0,53.64,24.06,53.64,53.64Z"/><path class="cls-1" d="m136.37,72.01h-6c0-36.4-29.61-66.01-66.02-66.01V0c39.71,0,72.02,32.31,72.02,72.01Z"/><path class="cls-2" d="m77.3,51.27c-8.2-7.21-18.96-11.58-30.73-11.58-6.43,0-12.56,1.3-18.13,3.66-4.63,1.96-8.88,4.65-12.6,7.92C6.13,59.81,0,72.32,0,86.27v78.6c0,14.88,12.17,27.2,27.05,27.15,7.42-.02,14.13-3.04,18.99-7.9,4.88-4.88,7.9-11.63,7.9-19.07h0c0-13.38,6.58-25.85,17.53-33.52.68-.48,1.31-.95,1.85-1.41,12.12-10.28,19.82-25.62,19.82-42.76v-1.09c0-13.95-6.13-26.46-15.84-34.99Zm-1.82,41.02l-5.99-.3c.8-15.93-10.72-27.28-21.98-27.87-9.21-.48-18.85,6.3-22.44,15.79-2.23,5.91-1.55,11.5-.59,15.14h3.8c7.62,0,14.58,3.62,18.62,9.67,1.74,2.62,2.67,5.52,2.66,8.4,0,7.11-2.28,12.56-6.76,16.2-4.8,3.9-11.14,4.79-15.92,4.79-3.83,0-6.67-.57-6.92-.63l1.23-5.87c.11.02,11.43,2.27,17.85-2.96,3.04-2.48,4.53-6.25,4.53-11.53,0-1.71-.56-3.41-1.66-5.06-2.92-4.38-8.02-7-13.63-7h-8.15l-.7-2.01c-1.44-4.11-3.34-12.34.03-21.25,4.55-12.02,16.46-20.28,28.37-19.66,15.88.84,28.54,16.49,27.65,34.17Z"/></g></svg>