<?xml version="1.0" encoding="UTF-8"?><svg id="Layer_2" xmlns="http://www.w3.org/2000/svg" viewBox="0 0 179.03 270.31"><defs><style>.cls-1{fill:#5660fe;}.cls-1,.cls-2{stroke-width:0px;}.cls-2{fill:#de9c7f;}</style></defs><g id="Layer_1-2"><path class="cls-1" d="m89.51,61.68c-11.45,0-20.77-9.32-20.77-20.77v-20.14c0-11.45,9.32-20.77,20.77-20.77s20.77,9.32,20.77,20.77v20.14c0,11.45-9.32,20.77-20.77,20.77Zm0-55.68c-8.14,0-14.77,6.63-14.77,14.77v20.14c0,8.14,6.63,14.77,14.77,14.77s14.77-6.63,14.77-14.77v-20.14c0-8.14-6.63-14.77-14.77-14.77Z"/><path class="cls-1" d="m39.61,112.29l-5.9-1.1,5.4-28.95c1.51-5.29,5.27-9.6,10.31-11.81l21.95-9.08,2.66-8.95,5.75,1.71-3.48,11.7-24.53,10.15c-3.3,1.45-5.81,4.3-6.86,7.81l-5.31,28.52Z"/><path class="cls-1" d="m139.42,112.29l-5.31-28.52c-1.04-3.51-3.56-6.36-6.92-7.84l-24.47-10.12-3.48-11.7,5.75-1.71,2.66,8.95,21.88,9.05c5.1,2.24,8.86,6.54,10.37,11.84l.06.28,5.33,28.67-5.9,1.1Z"/><path class="cls-1" d="m79.6,87.4l-21.27-20.34,16.18-6.85,19.78,12.34-14.68,14.85Zm-10.53-18.37l10.42,9.96,5.26-5.32-10.77-6.72-4.91,2.08Z"/><path class="cls-1" d="m100.27,87.33l-15.71-14.76,20.76-12.34,16.14,6.84-21.19,20.27Zm-5.79-13.68l5.76,5.41,10.49-10.03-4.95-2.1-11.3,6.72Z"/><polygon class="cls-2" points="138.01 140.94 165.37 140.94 179.03 101.83 0 101.83 13.65 140.94 41.02 140.94 138.01 140.94"/><polygon class="cls-2" points="41.02 146.93 41.02 240.11 61.38 240.11 61.38 165.64 67.38 165.64 67.38 240.11 111.64 240.11 111.64 165.64 117.64 165.64 117.64 240.11 138.01 240.11 138.01 146.93 41.02 146.93"/><rect class="cls-2" x="25.44" y="245.85" width="128.15" height="24.46"/></g></svg>