<?xml version="1.0" encoding="UTF-8"?><svg id="Layer_2" xmlns="http://www.w3.org/2000/svg" viewBox="0 0 239.54 103.21"><defs><style>.cls-1{fill:none;stroke:#de9c7f;stroke-miterlimit:10;stroke-width:6px;}.cls-2{fill:#5660fe;}.cls-2,.cls-3{stroke-width:0px;}.cls-3{fill:#de9c7f;}</style></defs><g id="Layer_1-2"><path class="cls-1" d="m235.02,51.61h0c-73.04,64.81-157.46,64.81-230.5,0h0c73.04-64.81,157.46-64.81,230.5,0h0Z"/><path class="cls-3" d="m4.52,52.63v-1.08,1.08h0C77.56-12.18,161.98-13.32,235.02,51.49v3.15c-71.87-39.75-158.64-38.54-230.5.07v-2.08Z"/><path class="cls-2" d="m119.77,35.33c-11.62,0-21.05,9.42-21.05,21.05s9.42,21.05,21.05,21.05,21.05-9.42,21.05-21.05c0-3.01-.64-5.87-1.78-8.45l-19.27,8.45,12.04-17.25c-3.41-2.39-7.56-3.8-12.04-3.8Z"/><path class="cls-1" d="m145.9,22.11c10.48,7.92,17.26,20.49,17.26,34.64,0,23.96-19.42,43.39-43.39,43.39s-43.39-19.42-43.39-43.39c0-14.15,6.77-26.72,17.26-34.64"/></g></svg>