<?xml version="1.0" encoding="UTF-8"?><svg id="Layer_2" xmlns="http://www.w3.org/2000/svg" viewBox="0 0 199.17 199.17"><defs><style>.cls-1{stroke:#de9c7f;}.cls-1,.cls-2{fill:none;stroke-miterlimit:10;stroke-width:6px;}.cls-2{stroke:#5660fe;}.cls-3{fill:#de9c7f;stroke-width:0px;}</style></defs><g id="Layer_1-2"><polyline class="cls-3" points="152.28 98.16 169.55 98.16 169.55 72.8 38.61 72.8 29.62 108.43 45.59 108.43 36.42 154.21 65.26 158.14 75.25 108.21 152.31 108.21 152.31 90.91 34.04 90.91"/><polyline class="cls-3" points="151.31 72.8 157.79 58.51 169.55 58.51 169.55 72.8"/><line class="cls-1" x1="54.13" y1="72.8" x2="54.13" y2="62.4"/><path class="cls-1" d="m75.25,107.21c-.09,1.38,1.17,11.59,9.59,17.01"/><path class="cls-1" d="m67.01,134.43h25.57c3.92,0,7.1-3.18,7.1-7.1v-19.12"/><path class="cls-3" d="m87.69,72.8v13.7c0,2.43,1.97,4.4,4.4,4.4h20.38c2.43,0,4.4-1.97,4.4-4.4v-13.7"/><path class="cls-2" d="m196.17,99.59c0,28.24-12.12,53.64-31.44,71.31-17.18,15.7-40.05,25.28-65.15,25.28-53.34,0-96.59-43.24-96.59-96.59,0-31.12,14.72-58.8,37.57-76.47C56.89,10.51,77.36,3,99.59,3c53.34,0,96.59,43.24,96.59,96.59Z"/><line class="cls-2" x1="37.5" y1="25.7" x2="161.67" y2="173.47"/></g></svg>