<svg width="107" height="32" viewBox="0 0 107 32" fill="none" xmlns="http://www.w3.org/2000/svg">
<g id="Group 323">
<path id="Vector" d="M3.23626 18.5688H7.97692C8.97196 18.5688 9.79643 18.6798 10.4527 18.9041C11.1089 19.1285 11.6301 19.4331 12.014 19.8156C12.3978 20.1981 12.6678 20.6444 12.8218 21.1521C12.9758 21.6597 13.0516 22.2028 13.0516 22.7813C13.0516 23.3599 12.9711 23.9289 12.8124 24.4555C12.6536 24.9797 12.3764 25.4401 11.9879 25.8368C11.597 26.2312 11.0805 26.5429 10.4337 26.7672C9.78932 26.9915 8.98144 27.1025 8.01009 27.1025H6.53648V31.2111H3.23389V18.5688H3.23626ZM6.53885 24.3941H7.99351C8.70425 24.3941 9.19703 24.2619 9.47659 23.995C9.75378 23.7306 9.89356 23.3315 9.89356 22.8002C9.89356 22.269 9.75141 21.8793 9.46712 21.6314C9.18282 21.3835 8.6853 21.2607 7.97692 21.2607H6.53885V24.3941Z" fill="black"/>
<path id="Vector_2" d="M24.407 22.5712C24.407 23.374 24.253 24.08 23.945 24.6869C23.637 25.2937 23.1632 25.7872 22.5259 26.165L25.1177 31.2111H21.5142L19.4365 26.8545H17.5909V31.2111H14.3428V18.5688H19.3488C20.332 18.5688 21.147 18.6798 21.7985 18.9041C22.4501 19.1285 22.9665 19.426 23.3527 19.7991C23.7365 20.1698 24.009 20.5995 24.1701 21.0836C24.3288 21.5677 24.4093 22.0635 24.4093 22.5712H24.407ZM17.5886 24.217H19.2564C19.9435 24.217 20.4244 24.0848 20.704 23.8179C20.9812 23.5535 21.121 23.171 21.121 22.6751C21.121 22.1792 20.9741 21.8368 20.6779 21.5771C20.3818 21.3174 19.8724 21.1875 19.1522 21.1875H17.5909V24.2146L17.5886 24.217Z" fill="black"/>
<path id="Vector_3" d="M79.4755 21.4567H75.8199V18.5688H86.5427V21.4567H82.8847V31.2111H79.4755V21.4567Z" fill="black"/>
<path id="Vector_4" d="M8.23041 0.791504H11.2132L15.7738 8.03115V0.791504H19.0053V13.4314H16.0581L11.4596 6.20825V13.4314H8.23041V0.791504Z" fill="black"/>
<path id="Vector_5" d="M20.7632 0.791504H23.746L28.309 8.03115V0.791504H31.5381V13.4314H28.5909L23.9948 6.20825V13.4314H20.7632V0.791504Z" fill="black"/>
<path id="Vector_6" d="M79.5489 13.4314H82.4961V0.791504H79.2646V8.03115L74.7016 0.791504H71.7189V13.4314H74.9504V6.20825L79.5489 13.4314H82.4961H79.5489Z" fill="black"/>
<path id="Vector_7" d="M61.0245 0.810059H69.961V3.59872H64.3721V5.61052H69.961V8.39917H64.3721V10.6235H69.961V13.4121H61.0245V0.810059Z" fill="black"/>
<path id="Vector_8" d="M97.5615 0.810059H106.5V3.59872H100.909V5.61052H106.5V8.39917H100.909V10.6235H106.5V13.4121H97.5615V0.810059Z" fill="black"/>
<path id="Vector_9" d="M6.47252 4.01709H3.23627V13.4315H6.47252V4.01709Z" fill="black"/>
<path id="Vector_10" d="M3.23626 0.791504H0V4.01936H3.23626V0.791504Z" fill="black"/>
<path id="Vector_11" d="M39.4534 13.7242C35.7931 13.7242 32.8269 10.7655 32.8269 7.11497C32.8269 3.46445 35.7931 0.503418 39.4534 0.503418C43.1137 0.503418 46.0799 3.46209 46.0799 7.11261C46.0799 10.7631 43.1137 13.7218 39.4534 13.7218V13.7242ZM39.4534 10.3428C41.2398 10.3428 42.6897 8.89773 42.6897 7.11497C42.6897 5.33221 41.2398 3.88712 39.4534 3.88712C37.6671 3.88712 36.2172 5.33221 36.2172 7.11497C36.2172 8.89773 37.6671 10.3428 39.4534 10.3428Z" fill="black"/>
<path id="Vector_12" d="M32.327 31.4996C28.6667 31.4996 25.7005 28.541 25.7005 24.8904C25.7005 21.2399 28.6667 18.2812 32.327 18.2812C35.9873 18.2812 38.9535 21.2399 38.9535 24.8904C38.9535 28.541 35.9873 31.4996 32.327 31.4996ZM32.327 28.1183C34.1133 28.1183 35.5633 26.6732 35.5633 24.8904C35.5633 23.1077 34.1133 21.6626 32.327 21.6626C30.5407 21.6626 29.0908 23.1077 29.0908 24.8904C29.0908 26.6732 30.5407 28.1183 32.327 28.1183Z" fill="black"/>
<path id="Vector_13" d="M92.6811 9.37006C92.6645 9.38659 92.6456 9.40312 92.6266 9.41965C92.6077 9.43854 92.5887 9.45743 92.5698 9.47396C92.5508 9.49049 92.5319 9.50701 92.5105 9.52354C92.4892 9.54007 92.4703 9.55896 92.4489 9.57549C92.43 9.59202 92.4087 9.60619 92.3897 9.62272C92.3684 9.63924 92.3471 9.65577 92.3281 9.66994C92.3068 9.68411 92.2855 9.69828 92.2665 9.7148C92.2452 9.72897 92.2239 9.7455 92.2025 9.75967C92.1812 9.77384 92.1599 9.78564 92.1386 9.79981C92.1173 9.81398 92.0936 9.82815 92.0722 9.84231C92.0509 9.85412 92.0296 9.86593 92.0059 9.88009C91.9822 9.8919 91.9609 9.90607 91.9372 9.91787C91.9159 9.92968 91.8922 9.93913 91.8709 9.95093C91.8472 9.96274 91.8235 9.97454 91.7998 9.98635C91.7761 9.99816 91.7548 10.0076 91.7311 10.017C91.7074 10.0265 91.6837 10.0383 91.66 10.0477C91.6363 10.0572 91.6126 10.0666 91.5889 10.0761C91.5652 10.0855 91.5415 10.095 91.5155 10.1044C91.4918 10.1139 91.4657 10.1209 91.442 10.128C91.4184 10.1351 91.3947 10.1446 91.371 10.1516C91.3449 10.1587 91.3188 10.1658 91.2952 10.1729C91.2715 10.18 91.2478 10.1871 91.2241 10.1918C91.198 10.1989 91.172 10.2036 91.1435 10.2107C91.1198 10.2154 91.0961 10.2225 91.0725 10.2272C91.044 10.2319 91.0156 10.2366 90.9872 10.2414C90.9635 10.2461 90.9422 10.2508 90.9185 10.2532C90.8877 10.2579 90.8592 10.2603 90.8284 10.265C90.8071 10.2673 90.7858 10.2697 90.7621 10.2721C90.7266 10.2744 90.691 10.2768 90.6555 10.2791C90.6389 10.2791 90.6223 10.2815 90.6057 10.2839C90.5536 10.2862 90.5015 10.2886 90.447 10.2886C89.5988 10.2886 88.8004 9.96038 88.201 9.36061C87.6017 8.76321 87.27 7.96747 87.27 7.12213C87.27 6.2768 87.5993 5.48105 88.201 4.88365C88.8004 4.28625 89.5988 3.95567 90.447 3.95567C90.4991 3.95567 90.5536 3.95567 90.6057 3.96039C90.6223 3.96039 90.6389 3.96276 90.6555 3.96512C90.691 3.96512 90.7266 3.96984 90.7621 3.9722C90.7834 3.9722 90.8047 3.97692 90.8284 3.97928C90.8592 3.98165 90.8877 3.98637 90.9185 3.99109C90.9422 3.99345 90.9635 3.99817 90.9872 4.0029C91.0156 4.00762 91.044 4.01234 91.0725 4.01707C91.0961 4.02179 91.1198 4.02651 91.1435 4.03359C91.1696 4.03832 91.198 4.0454 91.2241 4.05248C91.2478 4.05957 91.2715 4.06665 91.2952 4.07137C91.3212 4.07846 91.3473 4.08554 91.371 4.09263C91.3947 4.09971 91.4184 4.10915 91.442 4.11624C91.4657 4.12332 91.4918 4.13277 91.5155 4.13985C91.5392 4.1493 91.5629 4.15874 91.5889 4.16819C91.6126 4.17763 91.6363 4.18472 91.66 4.19652C91.6837 4.20597 91.7074 4.21777 91.7311 4.22722C91.7548 4.23666 91.7761 4.24611 91.7998 4.25791C91.8235 4.26972 91.8472 4.28153 91.8709 4.29333C91.8922 4.30514 91.9159 4.31458 91.9372 4.32639C91.9609 4.3382 91.9822 4.35237 92.0059 4.36417C92.0272 4.37598 92.0509 4.38778 92.0722 4.40195C92.0959 4.41612 92.1173 4.43029 92.1386 4.44445C92.1599 4.45862 92.1812 4.47043 92.2025 4.4846C92.2239 4.49876 92.2452 4.51529 92.2665 4.52946C92.2878 4.54363 92.3091 4.5578 92.3281 4.57432C92.3494 4.59085 92.3707 4.60738 92.3897 4.62155C92.411 4.63808 92.43 4.65225 92.4489 4.66877C92.4703 4.6853 92.4892 4.70419 92.5105 4.72072C92.5295 4.73725 92.5508 4.75378 92.5698 4.77031C92.5887 4.78684 92.6077 4.80573 92.6266 4.82462C92.6456 4.84115 92.6622 4.85768 92.6811 4.87421C92.8896 5.0938 93.0886 5.36771 93.2758 5.6912L96.2775 3.96512C95.9458 3.39369 95.5738 2.89074 95.1687 2.47043L95.1427 2.44446C93.8894 1.19535 92.2215 0.505859 90.447 0.505859C88.6725 0.505859 87.0046 1.19535 85.7514 2.44446C84.4981 3.69357 83.8063 5.3559 83.8063 7.12449C83.8063 8.89308 84.4981 10.5554 85.7514 11.8045C87.0046 13.0536 88.6725 13.7431 90.447 13.7431C92.2215 13.7431 93.8894 13.0536 95.1427 11.8045L95.1687 11.7786C95.5738 11.3582 95.9482 10.8529 96.2775 10.2839L93.2758 8.55778C93.0886 8.88128 92.8896 9.15518 92.6811 9.37478V9.37006Z" fill="black"/>
<path id="Vector_14" d="M71.3493 27.1291C71.3327 27.1456 71.3137 27.1621 71.2948 27.181C71.2758 27.1999 71.2569 27.2188 71.2379 27.2353C71.219 27.2519 71.1976 27.2684 71.1787 27.2849C71.1597 27.3014 71.1384 27.3203 71.1195 27.3369C71.1005 27.3534 71.0792 27.3676 71.0579 27.3841C71.0365 27.4006 71.0152 27.4171 70.9963 27.4313C70.9749 27.4455 70.956 27.4597 70.9347 27.4738C70.9133 27.488 70.892 27.5045 70.8707 27.5187C70.8494 27.5329 70.8281 27.5447 70.8067 27.5588C70.7854 27.573 70.7617 27.5872 70.7404 27.6013C70.7191 27.6131 70.6978 27.6249 70.6764 27.6391C70.6527 27.6533 70.6314 27.6651 70.6077 27.6769C70.5864 27.6887 70.5627 27.7005 70.539 27.7099C70.5153 27.7218 70.4916 27.7336 70.4703 27.7454C70.4466 27.7572 70.4229 27.7666 70.4016 27.7761C70.3779 27.7855 70.3542 27.7973 70.3305 27.8068C70.3068 27.8162 70.2832 27.8256 70.2595 27.8351C70.2358 27.8445 70.2121 27.854 70.186 27.8634C70.1623 27.8729 70.1363 27.88 70.1126 27.887C70.0889 27.8941 70.0652 27.9036 70.0415 27.9107C70.0154 27.9177 69.9894 27.9248 69.9657 27.9319C69.942 27.939 69.9183 27.9461 69.8946 27.9508C69.8685 27.9579 69.8425 27.9626 69.8141 27.9697C69.7904 27.9744 69.7667 27.9815 69.743 27.9862C69.7146 27.9909 69.6861 27.9957 69.6577 28.0004C69.634 28.0051 69.6127 28.0098 69.589 28.0122C69.5582 28.0169 69.5298 28.0193 69.499 28.024C69.4776 28.0264 69.4563 28.0287 69.4326 28.0311C69.3971 28.0334 69.3616 28.0358 69.326 28.0382C69.3094 28.0382 69.2929 28.0405 69.2763 28.0429C69.2241 28.0452 69.172 28.0476 69.1175 28.0476C68.2694 28.0476 67.471 27.7194 66.8716 27.1196C66.2722 26.5199 65.9405 25.7265 65.9405 24.8811C65.9405 24.0358 66.2698 23.2401 66.8716 22.6427C66.9403 22.5742 67.009 22.5128 67.0824 22.4514C67.0919 22.442 67.1038 22.4349 67.1132 22.4254C67.1464 22.3995 67.1772 22.3758 67.2104 22.3499C67.2198 22.3428 67.2293 22.3357 67.2388 22.3286C67.272 22.305 67.3028 22.2838 67.3359 22.2601C67.3478 22.2531 67.3573 22.246 67.3691 22.2365C67.4023 22.2129 67.4378 22.1917 67.4733 22.1728C67.4828 22.168 67.4923 22.161 67.5018 22.1539C67.5349 22.1326 67.5705 22.1137 67.606 22.0972C67.6179 22.0925 67.6273 22.0854 67.6392 22.0783C67.6747 22.0594 67.7079 22.0429 67.7434 22.0264C67.7553 22.0217 67.7671 22.0146 67.779 22.0098C67.8121 21.9933 67.8477 21.9791 67.8808 21.965C67.895 21.9603 67.9069 21.9532 67.9211 21.9485C67.9543 21.9343 67.9874 21.9225 68.0182 21.9107C68.0325 21.906 68.049 21.8989 68.0633 21.8941C68.0964 21.8823 68.1296 21.8729 68.1604 21.8634C68.177 21.8587 68.1936 21.8516 68.2078 21.8469C68.2409 21.8375 68.2717 21.828 68.3049 21.8209C68.3215 21.8162 68.3381 21.8115 68.3547 21.8068C68.3855 21.7997 68.4163 21.7926 68.4494 21.7855C68.4684 21.7808 68.4873 21.7761 68.5039 21.7737C68.5347 21.769 68.5655 21.7643 68.5939 21.7572C68.6129 21.7548 68.6342 21.7501 68.6532 21.7477C68.684 21.743 68.7124 21.7407 68.7432 21.7359C68.7645 21.7336 68.7835 21.7312 68.8048 21.7289C68.8332 21.7265 68.864 21.7241 68.8925 21.7218C68.9138 21.7218 68.9351 21.717 68.9564 21.717C68.9849 21.717 69.0133 21.717 69.0417 21.717C69.0654 21.717 69.0867 21.717 69.1104 21.717C69.1389 21.717 69.1649 21.717 69.1933 21.717C69.217 21.717 69.2407 21.717 69.2644 21.717C69.2905 21.717 69.3165 21.7218 69.345 21.7218C69.3687 21.7218 69.3924 21.7241 69.4184 21.7265C69.4445 21.7289 69.4705 21.7336 69.4966 21.7359C69.5203 21.7383 69.5463 21.7407 69.57 21.7454C69.5961 21.7501 69.6198 21.7548 69.6459 21.7572C69.6695 21.7619 69.6956 21.7643 69.7193 21.769C69.743 21.7737 69.769 21.7784 69.7927 21.7855C69.8188 21.7902 69.8425 21.795 69.8686 21.8021C69.8922 21.8068 69.9159 21.8139 69.9396 21.8209C69.9657 21.828 69.9917 21.8351 70.0154 21.8422C70.0391 21.8493 70.0605 21.8564 70.0841 21.8634C70.1102 21.8705 70.1363 21.88 70.1623 21.8894C70.1836 21.8965 70.2073 21.9059 70.2287 21.913C70.2547 21.9225 70.2808 21.9319 70.3068 21.9414C70.3282 21.9508 70.3495 21.9603 70.3732 21.9697C70.3992 21.9815 70.4253 21.991 70.449 22.0028C70.4703 22.0122 70.4916 22.024 70.513 22.0335C70.539 22.0453 70.5651 22.0571 70.5888 22.0712C70.6101 22.083 70.629 22.0949 70.6504 22.1043C70.6764 22.1185 70.7001 22.1326 70.7262 22.1468C70.7451 22.1586 70.7665 22.1704 70.7854 22.1822C70.8091 22.1964 70.8352 22.2129 70.8589 22.2294C70.8778 22.2413 70.8968 22.2554 70.9157 22.2696C70.9394 22.2861 70.9655 22.3026 70.9892 22.3192C71.0081 22.3333 71.0271 22.3475 71.046 22.3617C71.0697 22.3806 71.0934 22.3971 71.1171 22.416C71.136 22.4302 71.1526 22.4467 71.1692 22.4608C71.1929 22.4797 71.2166 22.501 71.2379 22.5199C71.2545 22.534 71.2711 22.5506 71.2877 22.5671C71.309 22.5884 71.3303 22.6072 71.3516 22.6285C71.5578 22.8481 71.7591 23.122 71.9463 23.4431L74.948 21.717C74.6163 21.1456 74.2444 20.6427 73.8392 20.2224L73.8132 20.1964C71.2237 17.6155 67.0114 17.6155 64.4219 20.1964C63.1686 21.4455 62.4768 23.1078 62.4768 24.8764C62.4768 26.645 63.1686 28.3073 64.4219 29.5565C65.6752 30.8056 67.343 31.4951 69.1175 31.4951C70.892 31.4951 72.5599 30.8056 73.8132 29.5565L73.8392 29.5305C74.2444 29.1102 74.6187 28.6049 74.948 28.0358L71.9463 26.3097C71.7591 26.6332 71.5601 26.9071 71.3516 27.1267L71.3493 27.1291Z" fill="black"/>
<path id="Vector_15" d="M56.1417 9.36784C56.1251 9.38437 56.1062 9.4009 56.0872 9.41979C56.0682 9.43868 56.0493 9.45757 56.0303 9.4741C56.0114 9.49063 55.9901 9.50716 55.9711 9.52369C55.9522 9.54022 55.9308 9.55911 55.9119 9.57564C55.8929 9.59216 55.8716 9.60633 55.8503 9.62286C55.829 9.63939 55.8076 9.65592 55.7887 9.67009C55.7674 9.68425 55.7484 9.69842 55.7271 9.71259C55.7058 9.72676 55.6844 9.74329 55.6631 9.75745C55.6418 9.77162 55.6205 9.78343 55.5992 9.7976C55.5778 9.81176 55.5541 9.82593 55.5328 9.8401C55.5115 9.8519 55.4902 9.86371 55.4689 9.87788C55.4452 9.89205 55.4238 9.90385 55.4001 9.91566C55.3788 9.92747 55.3551 9.93927 55.3314 9.94872C55.3077 9.96052 55.2841 9.97233 55.2627 9.98414C55.239 9.99594 55.2154 10.0054 55.194 10.0148C55.1703 10.0243 55.1466 10.0361 55.123 10.0455C55.0993 10.055 55.0756 10.0644 55.0519 10.0739C55.0282 10.0833 55.0045 10.0928 54.9784 10.1022C54.9547 10.1116 54.9287 10.1187 54.905 10.1258C54.8813 10.1329 54.8576 10.1423 54.8339 10.1494C54.8079 10.1565 54.7818 10.1636 54.7581 10.1707C54.7344 10.1778 54.7107 10.1848 54.687 10.1896C54.661 10.1966 54.6349 10.2014 54.6065 10.2085C54.5828 10.2132 54.5591 10.2203 54.5354 10.225C54.507 10.2297 54.4785 10.2344 54.4501 10.2392C54.4264 10.2439 54.4051 10.2486 54.3814 10.251C54.3506 10.2557 54.3222 10.258 54.2914 10.2628C54.2701 10.2651 54.2487 10.2675 54.225 10.2698C54.1895 10.2722 54.154 10.2746 54.1184 10.2769C54.1018 10.2769 54.0853 10.2793 54.0687 10.2817C54.0166 10.284 53.9644 10.2864 53.9099 10.2864C53.0618 10.2864 52.2634 9.95816 51.664 9.3584C51.0646 8.761 50.7329 7.96525 50.7329 7.11992C50.7329 6.27458 51.0622 5.47884 51.664 4.88144C51.7327 4.81296 51.8014 4.75156 51.8749 4.69017C51.8843 4.68073 51.8962 4.67364 51.9056 4.6642C51.9388 4.63822 51.9696 4.61461 52.0028 4.58864C52.0123 4.58155 52.0217 4.57447 52.0312 4.56739C52.0644 4.54377 52.0952 4.52252 52.1283 4.49891C52.1402 4.49183 52.1497 4.48474 52.1615 4.4753C52.1947 4.45168 52.2302 4.43043 52.2658 4.41154C52.2752 4.40682 52.2847 4.39974 52.2942 4.39265C52.3274 4.3714 52.3629 4.35251 52.3984 4.33598C52.4103 4.33126 52.4198 4.32418 52.4316 4.31709C52.4671 4.2982 52.5003 4.28167 52.5358 4.26514C52.5477 4.26042 52.5595 4.25334 52.5714 4.24862C52.6045 4.23209 52.6401 4.21792 52.6733 4.20375C52.6875 4.19903 52.6993 4.19194 52.7135 4.18722C52.7467 4.17305 52.7799 4.16125 52.8107 4.14944C52.8249 4.14472 52.8415 4.13764 52.8557 4.13291C52.8888 4.12111 52.922 4.11166 52.9528 4.10222C52.9694 4.09749 52.986 4.09041 53.0002 4.08569C53.0334 4.07624 53.0642 4.0668 53.0973 4.05971C53.1139 4.05499 53.1305 4.05027 53.1471 4.04555C53.1779 4.03846 53.2087 4.03138 53.2418 4.02429C53.2608 4.01957 53.2798 4.01485 53.2963 4.01249C53.3271 4.00777 53.3579 4.00304 53.3864 3.99596C53.4053 3.9936 53.4266 3.98888 53.4456 3.98651C53.4764 3.98179 53.5048 3.97943 53.5356 3.97471C53.5569 3.97235 53.5759 3.96999 53.5972 3.96762C53.6256 3.96526 53.6565 3.9629 53.6849 3.96054C53.7062 3.96054 53.7275 3.95582 53.7488 3.95582C53.7773 3.95582 53.8057 3.95582 53.8341 3.95582C53.8578 3.95582 53.8792 3.95582 53.9028 3.95582C53.9313 3.95582 53.9573 3.95582 53.9858 3.95582C54.0095 3.95582 54.0331 3.95582 54.0568 3.95582C54.0829 3.95582 54.109 3.96054 54.1374 3.96054C54.1611 3.96054 54.1848 3.9629 54.2108 3.96526C54.2369 3.96762 54.263 3.97235 54.289 3.97471C54.3127 3.97707 54.3388 3.97943 54.3625 3.98415C54.3885 3.98888 54.4122 3.9936 54.4383 3.99596C54.462 4.00068 54.488 4.00304 54.5117 4.00777C54.5354 4.01249 54.5615 4.01721 54.5852 4.02429C54.6112 4.02902 54.6349 4.03374 54.661 4.04082C54.6847 4.04555 54.7084 4.05263 54.732 4.05971C54.7581 4.0668 54.7842 4.07388 54.8079 4.08097C54.8315 4.08805 54.8529 4.09513 54.8766 4.10222C54.9026 4.1093 54.9287 4.11875 54.9547 4.12819C54.9761 4.13527 54.9998 4.14472 55.0211 4.1518C55.0471 4.16125 55.0732 4.17069 55.0993 4.18014C55.1206 4.18958 55.1419 4.19903 55.1656 4.20847C55.1917 4.22028 55.2177 4.22972 55.2414 4.24153C55.2627 4.25098 55.2841 4.26278 55.3054 4.27223C55.3314 4.28403 55.3575 4.29584 55.3812 4.31001C55.4025 4.32181 55.4215 4.33362 55.4428 4.34307C55.4689 4.35723 55.4925 4.3714 55.5186 4.38557C55.5376 4.39738 55.5589 4.40918 55.5778 4.42099C55.6015 4.43516 55.6276 4.45168 55.6513 4.46821C55.6702 4.48002 55.6892 4.49419 55.7081 4.50835C55.7318 4.52488 55.7579 4.54141 55.7816 4.55794C55.8005 4.57211 55.8195 4.58628 55.8384 4.60044C55.8621 4.61933 55.8858 4.63586 55.9095 4.65475C55.9285 4.66892 55.945 4.68545 55.9616 4.69962C55.9853 4.71851 56.009 4.73976 56.0303 4.75865C56.0469 4.77282 56.0635 4.78935 56.0801 4.80587C56.1014 4.82713 56.1227 4.84602 56.1441 4.86727C56.3502 5.08687 56.5516 5.36077 56.7387 5.6819L59.7404 3.95582C59.4087 3.38439 59.0368 2.88144 58.6317 2.46114L58.6056 2.43516C56.0161 -0.145705 51.8038 -0.145705 49.2143 2.43516C47.961 3.68427 47.2692 5.3466 47.2692 7.11519C47.2692 8.88378 47.961 10.5461 49.2143 11.7952C50.4676 13.0443 52.1355 13.7338 53.9099 13.7338C55.6844 13.7338 57.3523 13.0443 58.6056 11.7952L58.6317 11.7693C59.0368 11.3489 59.4111 10.8436 59.7404 10.2746L56.7387 8.54848C56.5516 8.87198 56.3525 9.14589 56.1441 9.36548L56.1417 9.36784Z" fill="black"/>
<path id="Vector_16" d="M45.1915 31.4992C43.0143 31.4992 41.1095 30.2666 39.8278 28.0281L42.8153 26.3256C43.4786 27.4826 44.277 28.0682 45.1915 28.0682C46.8689 28.0682 47.0489 26.5192 47.0489 25.8534V18.5688H50.4889V25.8534C50.4889 29.7306 47.7431 31.4968 45.1891 31.4968L45.1915 31.4992Z" fill="black"/>
<path id="Vector_17" d="M52.2492 18.5688H61.1856V21.3575H55.5944V23.3693H61.1856V26.158H55.5944V28.3823H61.1856V31.1709H52.2492V18.5688Z" fill="black"/>
</g>
</svg>
