<?xml version="1.0" encoding="UTF-8"?><svg id="Layer_2" xmlns="http://www.w3.org/2000/svg" viewBox="0 0 240.19 215.24"><defs><style>.cls-1{fill:#5660fe;}.cls-1,.cls-2{stroke-width:0px;}.cls-2{fill:#de9c7f;}</style></defs><g id="Layer_1-2"><path class="cls-1" d="m85.84,103.73c.1-5.57,2.2-11,6.94-15.25,3.43-3.07,7.49-4.68,12.12-4.55,4.93.15,8.94,2.33,12.27,5.87.99,1.05,1.88,2.19,2.64,3.42.27.43.37.35.61-.02,1.83-2.82,4.09-5.23,7.01-6.96,6.08-3.59,13.51-3.02,19.22,1.55,4.38,3.51,6.82,8.13,7.54,13.67.73,5.63-.6,10.87-3.1,15.87-2.6,5.19-6.24,9.58-10.43,13.55-5.41,5.13-11.51,9.3-17.95,13-.76.44-1.54.86-2.3,1.29-.19.11-.35.14-.56.03-8.14-4.49-15.81-9.62-22.32-16.34-3.91-4.04-7.21-8.5-9.4-13.72-1.44-3.43-2.27-6.99-2.3-11.44Z"/><path class="cls-2" d="m189.32,105.83c8.5-3.13,15.29-10.31,20.75-17.32,1.08-1.38,1.76-2.58,2.55-4.14,1.53-3,3.07-6,4.6-9.01,1.08-2.11,2.13-4.22,3.23-6.32.32-.62.67-1.22,1.07-1.8.15-.22.69-.8.06-.09.24-.27.46-.54.71-.8.16-.17.33-.34.5-.5.16-.15,1.36-1.08.45-.43.48-.34.97-.67,1.48-.96.31-.17.63-.32.94-.49.99-.52-.6.17.06-.03.63-.19,1.23-.42,1.87-.56.23-.05.47-.09.7-.14.51-.08.47-.08-.13,0,.24-.02.48-.04.72-.06.19-.01,1.24-.18,1.44,0l-.53-.07c.22.04.43.1.64.16l.31.11c-.52-.23-.64-.27-.34-.12.15.19.52.22.68.42l-.42-.3c.16.14.3.29.45.45l-.31-.42c.09.13.18.26.26.4.08.13.16.27.23.41-.23-.59-.26-.66-.1-.19l.09.31c.1.5.1.42,0-.24.06.06.02.64.02.66.06.83-.02-.1.04-.16-.05.05-.06.3-.07.37-.37,1.69-.68,3.4-1.02,5.1-2.42,12.07-4.84,24.14-7.26,36.22-.09.44-.19.89-.27,1.33-.16.87-.17,1.65-.19,2.52-.02.77-.07,1.53-.13,2.3-.03.35-.06.69-.1,1.04-.03.28-.06.55-.1.83.07-.51.06-.49-.01.04-.53,3.01-1.26,5.95-2.36,8.81-.1.26-.2.52-.31.77.36-.89-.17.37-.2.45-.29.63-.59,1.26-.9,1.87-.76,1.48-1.61,2.93-2.54,4.31-.39.58-.8,1.14-1.21,1.71-.83,1.16.71-.88.02-.02-.12.15-.24.31-.36.46-.81,1.02-1.66,2.01-2.49,3.01-1.89,2.26-3.77,4.55-5.5,6.94-2.78,3.86-4.92,8.04-5.17,12.86-.82,15.96-1.47,31.98-.56,47.96.14,2.41.32,4.82.57,7.22s1.9,4.62,4.5,4.5c2.23-.1,4.76-1.99,4.5-4.5-1.07-10.42-1.09-20.95-.92-31.41.13-7.47.4-14.94.83-22.39.03-.49.06-.98.09-1.47,0-.19.02-.4.02-.59,0-1-.25,1.03-.01.04.07-.29.13-.59.2-.88.11-.41.21-1.18.5-1.49l-.2.47c.09-.2.18-.41.27-.61.15-.31.3-.61.46-.91.61-1.16,1.31-2.27,2.06-3.35.35-.51.71-1.01,1.08-1.51.22-.3.45-.6.67-.89-.65.85.33-.41.45-.55,1.58-1.97,3.25-3.88,4.83-5.85,4.07-5.05,7.21-10.67,9.08-16.91.95-3.18,1.51-6.47,1.8-9.77.07-.83.12-1.67.15-2.51.01-.46.17-1.67-.14-.08.02-.13.05-.26.08-.39,2.34-11.74,4.71-23.48,7.06-35.22l1.27-6.36c.66-3.31.68-6.62-1.42-9.48-4.33-5.89-12.42-5.2-18.2-1.93-3.64,2.06-6.19,5.23-8.06,8.89-2.74,5.36-5.48,10.72-8.21,16.08-.18.35-.35.63-.57.94-.54.77.68-.86.29-.37-.2.25-.39.5-.59.75-.49.61-.98,1.21-1.49,1.8-1.43,1.69-2.93,3.33-4.49,4.89-.78.78-1.58,1.54-2.4,2.27-.5.45-1.01.89-1.53,1.32-.17.14-.35.29-.52.43-.17.14-.35.28-.53.42.47-.36.5-.39.11-.09-.98.7-1.96,1.39-3.01,1.99-.45.26-.92.51-1.39.74-.2.1-.61.38-.83.39l.52-.22c-.18.07-.37.14-.56.21-2.2.81-3.93,3.09-3.14,5.54.7,2.16,3.17,4.01,5.54,3.14h0Z"/><path class="cls-2" d="m129.79,157.57c.32,1.21.58,2.42.79,3.65.16.91.07.4.04.19.04.31.08.62.11.93.08.78.13,1.56.16,2.35.03.65.02,1.3.04,1.96.06,1.87.1,3.74.14,5.61.15,7.72.15,15.44-.04,23.16-.13,5.11-.34,10.22-.72,15.32-.17,2.35,2.19,4.6,4.5,4.5,2.59-.12,4.31-1.98,4.5-4.5,1.07-14.56,1.07-29.23.62-43.81-.12-3.97-.46-7.89-1.48-11.75-.6-2.28-3.24-3.89-5.54-3.14-2.34.76-3.79,3.1-3.14,5.54h0Z"/><path class="cls-2" d="m210.17,66.6v-19.86c0-6.94.09-13.88,0-20.82-.11-8.19-6.62-14.97-14.85-15.22s-15.43,6.85-15.54,15.19c-.09,6.54,0,13.1,0,19.64,0,7.57-.12,15.15,0,22.71,0,.14,0,.28,0,.42,0,2.35,2.07,4.61,4.5,4.5s4.5-1.98,4.5-4.5v-26.61c0-8.95.13-17.91,0-26.86-.08-5.43-2.99-10.65-7.81-13.28-4.91-2.68-11.24-2.55-15.87.69-4.17,2.92-6.65,7.52-6.71,12.62-.01.8,0,1.6,0,2.39,0,10.93,0,21.85,0,32.78v28.46c0,.17,0,.33,0,.5,0,2.35,2.07,4.61,4.5,4.5s4.5-1.98,4.5-4.5c0-6.89,0-13.77,0-20.66,0-9.8,0-19.59,0-29.39,0-3.77-.02-7.34-1.91-10.81-4.74-8.69-16.89-10.28-23.91-3.47-2.94,2.85-4.51,6.84-4.56,10.9-.01.86,0,1.73,0,2.59v40.52c0,2.35,2.07,4.61,4.5,4.5s4.5-1.98,4.5-4.5v-13.72c0-5.66.76-11.95-2.79-16.79-3.51-4.78-9.1-7.09-14.96-6.2-5.33.81-9.59,4.62-11.6,9.51-.96,2.34-1.03,4.8-1.03,7.28v23.09c0,2.35,2.07,4.61,4.5,4.5s4.5-1.98,4.5-4.5c0-8.28-.09-16.57,0-24.86,0-.22.06-1.48.01-.85-.05.74.07-.31.09-.4.05-.22.1-.43.17-.64s.14-.42.2-.63c.32-1-.46.78.06-.12.22-.37.44-.74.65-1.12.51-.88-.47.44-.03,0,.15-.15.28-.33.43-.48.27-.29.68-.82,1.06-.99-.77.34-.4.28-.13.13s.54-.35.83-.5c.05-.03.48-.3.58-.29l-.48.19c.15-.06.31-.12.46-.17.48-.15.95-.26,1.44-.39s.23-.25-.19.02c.1-.06.61-.04.68-.04.23,0,.46,0,.69,0,.23,0,.46.02.68.04l-.52-.08c.07.13,1.31.3,1.46.34.21.06.41.16.62.21.61.16-.91-.52-.03,0,.37.22.75.43,1.12.65.71.42-.05-.09-.13-.13.26.12.51.44.72.64.15.15.3.3.45.46.05.06.66.88.26.29s.17.29.2.34c.11.18.22.37.33.56.06.12.3.48.29.58.03-.4-.24-.68-.08-.17s.3,1.06.44,1.6c.26,1.04,0-.7,0-.02,0,.23.03.46.03.69,0,.08,0,.15,0,.23,0,.18,0,.36,0,.54v21.17c0,2.35,2.07,4.61,4.5,4.5s4.5-1.98,4.5-4.5V27.5c0-.49-.21-2.23.05-2.63-.03.04-.22,1.08-.02.19.05-.22.09-.43.15-.65.09-.36.18-.95.41-1.25-.06.07-.47.91-.05.18.11-.19.2-.38.31-.57s.24-.36.34-.55c.41-.7-.39.37-.03,0,.27-.26.5-.56.77-.83.15-.15.32-.29.48-.43.64-.6-.13.07-.15.11.12-.26.85-.55,1.1-.69.05-.03.48-.3.58-.29-.53.21-.63.26-.32.14.15-.06.31-.11.46-.16.37-.12.74-.22,1.12-.3,1.12-.23-.68,0,.48-.05.35-.02.69-.02,1.04,0,.16,0,.91.05.25,0-.7-.05.24.05.4.09.43.1.85.24,1.27.37.85.27-.13-.08-.17-.08.1,0,.53.27.58.29.24.13.97.43,1.1.69-.02-.04-.79-.7-.15-.11.2.18.4.36.59.55.15.15.29.31.44.47.11.12.5.68.16.17s.37.62.45.76.15.29.23.43c.42.73,0-.11-.05-.18.29.38.38,1.12.49,1.58.02.1.1.64.13.66-.1-.05-.06-1.1-.05-.18,0,.23.02.46.02.7,0,.05,0,.1,0,.15,0,.82,0,1.65,0,2.47,0,9.16,0,18.32,0,27.48,0,7.65-.23,15.34,0,22.98,0,.13,0,.26,0,.39h9c0-7.65,0-15.3,0-22.95,0-11.67,0-23.34,0-35.02,0-1.57,0-3.14,0-4.71,0-.39,0-.78,0-1.17,0-.09,0-.18,0-.27,0-.26.06-1.46.01-.82-.05.74.07-.31.09-.4.05-.22.1-.43.17-.64.07-.26.21-.52.26-.78.12-.6-.51.89,0,.03.23-.38.59-.85.75-1.25.21-.54-.69.73-.01.02.22-.23.43-.48.66-.7.15-.15.32-.29.48-.43.76-.73-.8.45.12-.08.37-.21.75-.43,1.12-.65.91-.55-.9.24.12-.06.21-.06.41-.14.63-.2s.43-.12.64-.17c.22-.05.44-.09.66-.13-.58.07-.7.09-.35.06.52,0,1.03-.03,1.55-.01.88.02-.09-.06-.18-.05.27-.04.72.14.98.2.38.1.93.17,1.25.41-.89-.64-.16-.04.1.1.28.16.55.34.83.5.24.14.69.26-.13-.13.22.1.43.37.61.53.29.27.82.68.99,1.06-.39-.89-.2-.28-.04,0,.13.23.29.46.42.69.06.12.3.48.29.58-.23-.58-.26-.63-.08-.17l.11.31c.14.42.44,1.17.39,1.62.1-.89-.05-.51-.05-.18,0-.57.03,1.27.02.69,0,.06,0,.12,0,.18,0,.38,0,.75,0,1.13v52.16c0,2.35,2.07,4.61,4.5,4.5s4.5-1.98,4.5-4.5V27.07c0-.32,0-.63,0-.95,0-.07,0-.13,0-.2,0-.2.06-1.45.01-.8-.04.61.11-.49.17-.72.1-.37.25-.73.35-1.1.14-.52-.13.34-.14.32,0-.1.27-.53.29-.58.15-.28.42-.96.69-1.1.02,0-.58.64-.21.27.15-.15.28-.33.43-.48.26-.27.54-.52.81-.78.56-.52-.68.39.25-.17.36-.22.79-.4,1.13-.64.42-.29-.32.12-.33.12.13-.1.48-.18.62-.22.37-.12.74-.22,1.12-.3.06-.01.47-.05.49-.09-.05.09-1.11.07-.18.05.35,0,.69-.03,1.04-.02.17,0,.34.03.51.03.52,0-.32,0-.35-.06.05.09,1.16.25,1.3.29.27.08.71.15.93.32-.69-.52-.45-.21-.18-.05.18.11.38.2.57.31s.36.24.55.34c.28.16.62.19-.13-.13.25.11.53.45.72.64.27.26.5.57.77.83.41.4-.33-.67-.12-.14.09.23.31.47.44.68.11.18.47.66.45.86.04-.37-.24-.7-.08-.17.05.16.11.31.16.47.12.37.2.75.28,1.13.21.92-.07-.17-.02-.19-.02,0,.04.63.04.68.22,6.26,0,12.57,0,18.83,0,7.27-.1,14.54,0,21.81,0,.14,0,.27,0,.41,0,2.35,2.07,4.61,4.5,4.5s4.5-1.98,4.5-4.5h0Z"/><path class="cls-2" d="m53.31,97.15l-.28-.1c-.45-.18-.37-.14.24.11-.22,0-.63-.29-.83-.39-.47-.23-.93-.48-1.39-.74-1.14-.66-2.21-1.41-3.27-2.19.96.7-.49-.4-.67-.55-.48-.39-.94-.8-1.4-1.21-.94-.84-1.86-1.71-2.75-2.61-1.54-1.55-3.01-3.17-4.42-4.85-.45-.53-.89-1.07-1.33-1.62-.2-.25-.39-.5-.59-.75s.78,1.13.24.3c-.85-1.28-1.47-2.73-2.16-4.1-1.6-3.13-3.19-6.25-4.79-9.38-1-1.97-1.91-4.06-3.1-5.92-3.5-5.47-9.63-8.97-16.16-8.97-3.58,0-6.8,1.64-8.86,4.58-1.73,2.46-2.07,5.36-1.54,8.26.23,1.3.52,2.58.78,3.87,2.47,12.34,4.95,24.68,7.42,37.02.12.61.25,1.22.37,1.84.02.11.05.22.07.33-.3-1.58-.15-.35-.14.08.03.91.08,1.81.17,2.72.62,6.69,2.52,13.15,5.76,19.05,2.75,5,6.64,9.13,10.16,13.56.09.11.85,1.1.21.26.19.25.38.49.56.74.41.55.8,1.1,1.19,1.66.77,1.13,1.5,2.29,2.13,3.5.13.25.26.5.38.76l.14.3c.2.46.18.4-.07-.17.28.31.39,1.08.5,1.49.08.29.13.59.2.88.24.99,0-1.04-.01-.04,0,.2.01.41.02.61.8,15.99,1.48,32.03.56,48.04-.14,2.41-.32,4.82-.57,7.22-.24,2.35,2.24,4.6,4.5,4.5,2.64-.12,4.24-1.98,4.5-4.5,1.06-10.3,1.09-20.72.92-31.07-.12-7.48-.39-14.97-.81-22.44-.14-2.52-.31-5-1.26-7.38-2.18-5.43-6.01-9.92-9.73-14.36-.73-.87-1.46-1.74-2.17-2.63-.15-.19-.31-.38-.46-.58-.68-.86.85,1.18.02.02-.49-.68-.98-1.36-1.44-2.06-.84-1.28-1.61-2.6-2.31-3.96-.32-.62-.62-1.24-.9-1.87.02.05-.51-1.19-.27-.61.16.39-.33-.86-.39-1.01-1.07-2.86-1.82-5.82-2.28-8.84.15,1.02-.04-.35-.05-.46-.03-.28-.06-.55-.08-.83-.07-.83-.12-1.67-.15-2.51-.02-.86-.04-1.68-.2-2.55-2.03-11.18-4.47-22.3-6.7-33.44-.49-2.46-.99-4.93-1.48-7.39-.12-.61-.23-1.23-.37-1.84-.02-.07-.01-.27-.06-.32.06.06-.02.99.04.16,0-.13-.05-.59.02-.66-.1.66-.1.74,0,.24.05-.21.12-.41.19-.61-.3.24-.36.64-.05.21l.16-.27c.28-.4.23-.35-.13.16l.22-.23c.36-.33.3-.3-.19.09.1-.15.39-.24.53-.35.75-.57-.83.13.11-.06l.32-.09c.5-.1.43-.1-.2,0,.3-.25,1.45.02,1.8.03,1.15.03-.64-.15.05,0,.29.06.59.11.88.17.58.13,1.13.33,1.7.5,1.1.33-.79-.44.23.09.31.16.63.31.94.49.2.12.41.24.61.36s1.38,1.05.52.33c.45.38.89.77,1.3,1.2.25.26.47.54.71.8-.59-.61-.19-.27-.05-.06.43.65.84,1.3,1.2,1.99.39.76.78,1.53,1.17,2.3,1.53,3,3.07,6,4.6,9.01,1.07,2.09,2.02,4.31,3.23,6.32,1.16,1.93,2.87,3.73,4.35,5.43,3.26,3.73,6.85,7.18,10.89,10.07,2.13,1.52,4.41,2.72,6.87,3.63,2.21.81,5.03-.91,5.54-3.14.58-2.54-.77-4.66-3.14-5.54h0Z"/><path class="cls-2" d="m101.77,155.17c-1.46,5.52-1.5,11.18-1.61,16.84-.15,7.73-.16,15.47.03,23.2.12,5.18.34,10.36.72,15.52.17,2.34,1.95,4.61,4.5,4.5,2.29-.1,4.69-1.99,4.5-4.5-1.07-14.5-1.06-29.12-.63-43.65.01-.48.03-.96.03-1.44.02-1.41.09-2.83.29-4.22-.1.68.02-.1.04-.19.08-.46.16-.92.26-1.38.16-.76.34-1.52.54-2.27.6-2.27-.76-4.99-3.14-5.54-2.36-.54-4.89.71-5.54,3.14h0Z"/><path class="cls-2" d="m39.07,66.6v-18.74c0-7.21-.02-14.41,0-21.62,0-.23,0-.47,0-.7,0-.17.03-.34.03-.51,0-.64-.18.81-.03.19.09-.38.15-.76.26-1.14.06-.19.51-1.25.22-.7s0,.04.05-.05c.14-.23.25-.48.39-.71.08-.14.18-.27.26-.41.43-.72-.1.05-.13.13.12-.29.55-.63.75-.84.22-.22.55-.64.84-.75,0,0-.72.44-.26.22.24-.12.45-.3.68-.44.15-.09,1.21-.66.62-.36-.55.28.53-.17.7-.22.37-.11.76-.17,1.14-.26.53-.12-.37.05-.36.05.18-.11.66-.04.86-.05.29,0,.57.01.86.02.11,0,.7.03.08-.01s.06.02.23.05c.38.08.75.18,1.12.3.15.05.31.13.46.16.52.11-.87-.48-.03,0,.28.16.57.31.85.48.05.03.49.26.54.36-.02-.04-.79-.7-.15-.11.24.22.48.43.7.66.15.15.29.32.43.48.42.46.07-.06-.11-.15.23.11.57.87.69,1.1.07.13.13.32.22.43.31.38-.11-.31-.12-.33.19.26.28.78.36,1.09.06.21.11.43.16.65.02.11.05.22.06.33.06.34.04.22-.05-.36-.06.03.05.98.05,1.26.03,6.93,0,13.86,0,20.79s-.12,14.25,0,21.37c0,.13,0,.26,0,.39,0,2.35,2.07,4.61,4.5,4.5s4.5-1.98,4.5-4.5v-25.49c0-9.28-.08-18.56,0-27.83,0-.05,0-.1,0-.15,0-.26,0-.3.01-.52.04-.84.25-.2-.04.01.2-.14.3-1.35.39-1.62l.11-.31c.18-.47.15-.41-.08.17,0-.1.27-.53.29-.58.1-.19.21-.38.33-.56.16-.26.48-1.11.05-.14.16-.35.59-.68.87-.95.19-.19.47-.53.72-.64l-.4.31c.18-.13.35-.25.54-.36.18-.11.37-.22.56-.33.05-.03,1-.54.34-.2s.3-.1.38-.13c.21-.07.42-.13.63-.19.27-.07.55-.11.82-.18.65-.15-1.1,0-.02.02.14,0,1.7.07,1.72.03-.06.12-.96-.18-.03.02.27.06.54.12.81.2.21.06.42.14.63.2.95.29-.47-.38-.02,0,.33.28.88.5,1.26.73.87.5-.4-.48,0-.03.21.24.49.43.71.65.19.19.37.39.55.59.59.64-.06-.12-.11-.15.32.17.66,1.08.84,1.38.42.72,0-.1-.05-.18.14.2.2.54.27.78.08.26.15.53.21.8.04.16.07.33.1.49.06.34.04.22-.05-.36-.05.03.05,1.07.05,1.37,0,1.07,0,2.14,0,3.21,0,11,0,22.01,0,33.01,0,9.04-.19,18.1,0,27.14,0,.15,0,.3,0,.45h9c0-6.68,0-13.37,0-20.05,0-9.8,0-19.59,0-29.39v-3.4c0-.2,0-.4,0-.6,0,0,0-.02,0-.02,0-.23.02-.46.02-.69,0-.91.05.13-.05.18.12-.07.24-1.13.29-1.3.06-.21.14-.42.2-.63.32-1-.46.78.06-.12.22-.37.44-.74.65-1.12.15-.26.22-.65-.13.13.07-.15.33-.39.42-.49.29-.32.61-.6.92-.9.36-.34.07-.31-.15.11.09-.18.51-.35.68-.44.13-.08,1.34-.74.76-.44s.06-.02.22-.07c.21-.07.42-.14.63-.19s.43-.11.65-.16c.17-.04.88-.1.23-.05-.73.05.66-.01.77-.01.23,0,.46.02.69.02.91,0-.13.05-.18-.05.07.12,1.13.24,1.3.29.21.06.42.14.63.2.85.27-.13-.08-.17-.08.37-.04,1.1.62,1.41.8.26.15.65.22-.13-.13.15.07.39.33.49.42.32.29.6.61.9.92.34.36.31.07-.11-.15.1.05.32.48.36.54.11.18.22.37.33.56.07.12.51.95.2.34-.29-.56.02.06.07.22.07.21.14.42.19.63s.11.43.16.65c.04.17.1.88.05.23-.05-.68,0,.65.01.81,0,.27,0,.53,0,.8v18.32c0,8.55-.09,17.1,0,25.65,0,.16,0,.32,0,.48,0,2.35,2.07,4.61,4.5,4.5s4.5-1.98,4.5-4.5v-23.36c0-.16,0-.33,0-.49,0-.13,0-.26,0-.4,0-.09.05-.68.04-.68-.09.58-.1.7-.05.36.03-.17.06-.33.1-.49.11-.48.33-.95.43-1.42.12-.6-.51.89,0,.03.11-.18.2-.38.31-.57s.24-.36.34-.55c.5-.87-.48.4-.03,0s.82-.86,1.24-1.26c.37-.35.05-.29-.15.11.05-.1.42-.29.54-.36.23-.14.47-.26.7-.4.27-.16.78-.61-.04-.02.32-.23.87-.31,1.25-.41.27-.07.55-.11.82-.18.34-.06.22-.04-.36.05.17-.02.34-.03.51-.04.07,0,1.54.06,1.55.04-.02.05-1.12-.22-.19-.02.22.05.43.09.65.15.27.07.53.16.79.24l.16.05c.47.18.41.15-.17-.08.39-.02,1.07.59,1.41.8.71.42-.05-.09-.13-.13.21.1.43.37.61.53.29.27.82.68.99,1.06-.34-.77-.28-.4-.13-.13.13.23.29.45.42.69.09.16.38.54.37.72l-.19-.48c.08.2.15.41.22.62.14.42.22.86.33,1.29.26,1.04,0-.7,0-.02,0,.28.03.57.04.86,0,.1,0,.19,0,.29,0,.66,0,1.33,0,1.99v22.66c0,2.35,2.07,4.61,4.5,4.5s4.5-1.98,4.5-4.5v-22.27c0-2.21.06-4.39-.5-6.55-1.36-5.27-5.8-9.69-11.14-10.89-5.43-1.22-11.46.5-15.05,4.87-2.54,3.09-3.7,6.65-3.7,10.63v23.18c0,2.35,2.07,4.61,4.5,4.5s4.5-1.98,4.5-4.5v-38.86c0-2.77.2-5.64-.17-8.4-.63-4.71-3.43-9.02-7.64-11.31-4.39-2.39-9.54-2.46-14.04-.36-4.07,1.9-7.34,5.98-8.18,10.41-.28,1.46-.35,2.87-.35,4.34,0,9,0,18,0,27,0,8.31-.11,16.62,0,24.93,0,.14,0,.29,0,.43,0,2.35,2.07,4.61,4.5,4.5s4.5-1.98,4.5-4.5c0-8.01,0-16.02,0-24.03,0-11.75,0-23.51,0-35.26,0-3.95.17-7.64-1.49-11.38C78.08,3.57,72.81.38,67.34.03c-5.54-.35-11.03,2.75-13.81,7.5-2.34,3.99-2.07,8.33-2.07,12.73v48.41c0,2.35,2.07,4.61,4.5,4.5s4.5-1.98,4.5-4.5v-19.39c0-7.64.01-15.27,0-22.91-.01-6.64-3.82-12.39-10.06-14.76-8.04-3.06-17.04,1.79-19.64,9.77-.91,2.81-.69,5.91-.69,8.83v12.81c0,7.71-.12,15.43,0,23.14,0,.15,0,.29,0,.44,0,2.35,2.07,4.61,4.5,4.5s4.5-1.98,4.5-4.5h0Z"/></g></svg>