<?xml version="1.0" encoding="UTF-8"?><svg id="Layer_2" xmlns="http://www.w3.org/2000/svg" viewBox="0 0 215.06 215.23"><defs><style>.cls-1{fill:#5660fe;}.cls-1,.cls-2{stroke-width:0px;}.cls-2{fill:#de9c7f;}</style></defs><g id="Layer_1-2"><path class="cls-2" d="m205.56,215.23H9.5c-5.24,0-9.5-4.26-9.5-9.5V29.93c0-5.24,4.26-9.5,9.5-9.5h27.32v9H9.5c-.27,0-.5.23-.5.5v175.79c0,.27.23.5.5.5h196.06c.27,0,.5-.23.5-.5V29.93c0-.27-.23-.5-.5-.5h-25.84v-9h25.84c5.24,0,9.5,4.26,9.5,9.5v175.79c0,5.24-4.26,9.5-9.5,9.5Z"/><rect class="cls-2" x="63.85" y="20.43" width="84.85" height="9"/><path class="cls-2" d="m50.34,48.87c-4.06,0-7.91-.59-10.84-1.67-6.24-2.29-7.17-6.25-7.17-8.41V10.08c0-6.21,6.9-10.08,18.01-10.08s18.02,3.86,18.02,10.08v28.72c0,6.21-6.9,10.08-18.02,10.08Zm-9.01-10.71c1.04.69,4.23,1.71,9.01,1.71s7.97-1.01,9.02-1.71V10.71c-1.04-.69-4.23-1.71-9.02-1.71s-7.97,1.01-9.01,1.71v27.45Z"/><path class="cls-2" d="m166.2,48.87c-4.06,0-7.91-.59-10.84-1.67-6.24-2.29-7.17-6.25-7.17-8.41V10.08c0-6.21,6.9-10.08,18.01-10.08s18.01,3.86,18.01,10.08v28.72c0,6.21-6.9,10.08-18.01,10.08Zm-9.01-10.71c1.04.69,4.23,1.71,9.01,1.71s7.97-1.01,9.01-1.71V10.71c-1.04-.69-4.23-1.71-9.01-1.71s-7.97,1.01-9.01,1.71v27.45Z"/><rect class="cls-1" x="49.04" y="89.6" width="16.95" height="16.95"/><rect class="cls-1" x="82.08" y="89.6" width="16.95" height="16.95"/><rect class="cls-1" x="117.37" y="89.6" width="16.95" height="16.95"/><rect class="cls-1" x="149.68" y="89.6" width="16.95" height="16.95"/><rect class="cls-1" x="48.43" y="122.64" width="16.95" height="16.95"/><rect class="cls-1" x="81.47" y="122.64" width="16.95" height="16.95"/><rect class="cls-1" x="116.76" y="122.64" width="16.95" height="16.95"/><rect class="cls-1" x="48.43" y="155.68" width="16.95" height="16.95"/><rect class="cls-1" x="81.47" y="155.68" width="16.95" height="16.95"/></g></svg>