<?xml version="1.0" encoding="UTF-8"?><svg id="Layer_2" xmlns="http://www.w3.org/2000/svg" viewBox="0 0 177.92 215.23"><defs><style>.cls-1{fill:#5660fe;}.cls-1,.cls-2{stroke-width:0px;}.cls-2{fill:#de9c7f;}</style></defs><g id="Layer_1-2"><path class="cls-2" d="m6.76,156.93c2.64-1.13,5.28-2.26,7.92-3.39,1.91-.82,3.82-1.64,5.74-2.46,1.06-.45,2.21-.84,3.23-1.38,1.16-.62,2.22-1.57,3.29-2.34,2.12-1.53,4.27-3,6.59-4.23.8-.42,1.61-.83,2.43-1.2.19-.09.38-.17.57-.26.04-.02.67-.29.23-.1s.19-.08.23-.09c.32-.13.65-.25.97-.37,1.69-.63,3.41-1.16,5.16-1.59.87-.21,1.75-.4,2.64-.57.41-.08.82-.15,1.23-.21.27-.04.55-.09.82-.12-.46.06-.36.05.04,0,1.8-.18,3.6-.3,5.4-.28,1.05,0,2.09.05,3.14.13.49.04.98.08,1.46.13.28.03.56.06.84.1-.47-.06-.32-.05.06.01.21.03.42.07.63.1s2.11.15,1.01.15c-.81,0-.22-.02.02.03.34.08.68.14,1.01.22,1.01.23,2,.52,2.99.85.46.15.91.32,1.36.49.19.07.38.15.57.23-.43-.18-.26-.11.06.04.93.44,1.85.9,2.75,1.42s1.76,1.08,2.6,1.68c.17.12.33.25.5.37.61.43-.77-.65.23.19.43.36.85.72,1.26,1.09l-1.32-3.18c0,3.81,5.15,6.22,8.28,7.18,2.95.91,6.15.94,9.15.26,1.81-.41,3.49-1.25,5.17-2.02l2.16-.99c.27-.12.53-.24.8-.36s.66-.16-.1.03c1.02-.25,1.98-.7,3.02-.91l.34-.06c.51-.08.45-.08-.17,0,0,0,.6-.06.68-.07.68-.05,1.36-.06,2.04-.03.23.01.45.04.68.05,1.14.05-.98-.2.14.01.55.11,1.1.22,1.64.36.49.13.97.29,1.44.47.27.1.94.46.01,0,.3.15.61.29.91.45.5.26.98.55,1.45.87.03.02.96.65.37.24s.31.26.34.29c.43.37.85.77,1.24,1.19.16.17.31.34.47.51.15.18.3.35.45.54-.31-.4-.37-.47-.17-.21.31.5.63,1.01.95,1.5s-.23-.96-.05.02c-.19-1-.07-.52-.06-.23.04,1.01.32-.87-.04.06.07-.18.22-.9.07-.2l-.17.27c.38-.48.4-.53.06-.17.08-.15.83-.5.09-.11-4.12,2.16-8.13,4.56-12.2,6.81-.91.51-1.84.99-2.78,1.43-.27.12-.53.24-.8.37-1.29.6.79-.29-.54.23-.75.29-1.5.57-2.26.83-1.31.44-2.65.82-3.99,1.14-.71.17-1.42.31-2.14.44-.36.07-.72.13-1.08.18-.22.03-.43.07-.65.1.47-.06.44-.06-.11,0-2.61.25-5.21.27-7.83.27h-17.1c-2.35,0-4.61,2.07-4.5,4.5.11,2.44,1.98,4.5,4.5,4.5h15.62c2.23,0,4.47.06,6.69-.06,6.67-.33,13.12-2.02,19.13-4.91,4.91-2.36,9.64-5.22,14.36-7.92,2.16-1.23,3.78-3.18,4.41-5.61.96-3.67-.79-6.83-3.03-9.59-3.58-4.41-8.92-6.96-14.5-7.53-2.99-.31-6.18.1-8.98,1.17-1.78.68-3.5,1.52-5.23,2.32-.54.24-1.07.5-1.61.74.11-.05.81-.26-.03,0-.37.11-.74.24-1.11.34s-.75.17-1.13.24c.79-.14.08-.02-.32,0-.32.01-.63.02-.95,0-.24,0-1.6-.18-.5,0-.75-.13-1.47-.35-2.2-.54-.17-.04-.82-.31.01.04-.47-.2-.92-.44-1.36-.7-.22-.13-.43-.28-.65-.41-.42-.3-.43-.29-.03.01-.2-.16-.4-.33-.6-.51l1.32,3.18c0-2.88-3.05-4.74-5.13-6.23-1.57-1.12-3.23-2.1-4.98-2.92-1.97-.93-4-1.74-6.1-2.33-.87-.24-1.74-.45-2.62-.62-.2-.04-.41-.08-.61-.11l-1.2-.16.78.09c-.61-.26-1.9-.28-2.45-.35-7.87-1.01-16.1-.1-23.53,2.69-3.9,1.46-7.64,3.3-11.07,5.66-1.59,1.09-3.14,2.25-4.71,3.38-.65.47-1.3.73-2.04,1.04-1.77.76-3.55,1.52-5.32,2.28-3.4,1.46-6.8,2.91-10.2,4.37-2.17.93-2.82,4.29-1.61,6.16,1.45,2.26,3.83,2.61,6.16,1.61h0Z"/><path class="cls-2" d="m11,197.56c4.26-2.08,8.51-4.16,12.77-6.24.21-.1.41-.2.62-.3.28-.14.56-.27.84-.4-.1.05,1.24-.54.69-.31-.26.11-.17.07.29-.11.21-.08.41-.16.62-.24,2.69-1.01,5.5-1.74,8.35-2.15-.81.12.14,0,.34-.03.37-.04.73-.07,1.1-.1.66-.05,1.32-.09,1.99-.1,1.48-.04,2.95,0,4.43.12.37.03.74.07,1.11.11.92.09.33.04.13,0,.74.1,1.47.23,2.2.38.37.07.74.16,1.1.24,5.05,1.13,10.1,2.28,15.14,3.42,6.67,1.51,13.28,2.95,20.18,2.6,10.2-.52,20.19-3.92,28.48-9.91,2.19-1.58,4.37-3.18,6.56-4.77,9.68-7.04,19.35-14.07,29.03-21.11,3.98-2.89,7.96-5.79,11.93-8.68l2.98-2.17c2.75-2,4.68-4.59,4.84-8.13.14-3.31-1.79-8.19-5.69-8.19l3.18,1.32c-3.97-4.71-10.15-7.46-16.3-7.33-5.06.11-9.42,2.04-13.36,5.1-4.96,3.85-9.92,7.7-14.87,11.56-1.76,1.36-3.51,2.73-5.27,4.09-1.87,1.45-1.64,4.86,0,6.36,1.98,1.82,4.37,1.55,6.36,0,4.14-3.21,8.28-6.43,12.41-9.64,2.31-1.8,4.62-3.59,6.93-5.39.4-.31.79-.62,1.19-.93-1.47,1.14.47-.27.87-.5.51-.3,1.03-.55,1.55-.81-1.01.49.53-.18.86-.28.65-.2,1.63-.6,2.32-.54-.1-.01-1.05.09-.19.04.45-.03.9-.06,1.35-.07.56,0,1.5-.11,2.02.1-.99-.41-.22-.03.14.04.33.06.66.14.99.22s.65.18.97.28c.12.04,1.36.5.73.25-.67-.27.35.17.39.19.41.2.81.42,1.2.66.25.15.49.3.73.46.21.14,1.16.95.34.23,1.65,1.45,3,3.58,5.44,3.58l-3.89-2.23c.17.22.31.5.49.71.36.4-.19-.94.02-.01.03.12.2.55.16.63l-.08-.55c.01.16.01.32,0,.48-.07.64.36-1.05,0-.08-.13.36.07.58.13-.16-.01.17-.23.41-.31.57-.44.88.43-.59-.14.12-.71.88.75-.52.3-.21-.09.06-.17.13-.26.19-.91.66-1.82,1.32-2.73,1.98-3.79,2.76-7.58,5.51-11.37,8.27-9.57,6.96-19.14,13.92-28.72,20.88-2.51,1.82-5.01,3.65-7.52,5.47-2.37,1.72-4.84,3.26-7.47,4.55-.62.3-1.25.59-1.88.87-.81.36-.24.1-.07.03-.32.13-.64.26-.96.38-1.28.49-2.58.93-3.9,1.32-1.19.35-2.38.65-3.59.9-.6.13-1.21.24-1.82.35-.34.06-.68.1-1.02.16-.33.05-.27.04.18-.02-.2.03-.41.05-.61.07-2.6.3-5.22.39-7.83.27-1.31-.06-2.63-.17-3.93-.34.89.12-.58-.1-.87-.15-.76-.13-1.51-.28-2.26-.45-1.51-.33-3.01-.68-4.51-1.02-5.29-1.19-10.57-2.39-15.86-3.58-9.75-2.2-19.57-1.57-28.79,2.39-4.73,2.03-9.3,4.47-13.92,6.73l-1.54.75c-2.12,1.04-2.86,4.22-1.61,6.16,1.4,2.17,3.89,2.72,6.16,1.61h0Z"/><path class="cls-2" d="m22.21,214.67c4.26-2.08,8.51-4.16,12.77-6.24.2-.1.41-.2.61-.3.22-.1.43-.21.65-.31.34-.16.68-.31,1.02-.46-.73.31.56-.22.58-.22,2.63-1.01,5.35-1.69,8.12-2.16,1.41-.24-.87.06.56-.07.29-.03.59-.06.88-.09.66-.06,1.32-.1,1.98-.13,1.55-.06,3.1-.03,4.65.09.59.05,1.18.1,1.77.18-.94-.12.51.09.57.09.29.05.59.1.88.16.5.1.99.2,1.49.31,4.92,1.1,9.84,2.22,14.76,3.33,6.54,1.48,13.03,2.96,19.8,2.73,10.45-.36,20.78-3.78,29.27-9.92,2.06-1.49,4.12-2.99,6.17-4.49,9.56-6.96,19.13-13.91,28.69-20.87,4.06-2.95,8.12-5.91,12.19-8.86,3.08-2.24,6.75-4.33,7.92-8.2.84-2.77.38-6.11-1.4-8.42l.61,2.27h0c0-2.35-2.07-4.61-4.5-4.5s-4.5,1.98-4.5,4.5c0,1.01.38,2.05,1.02,2.83.48.59.09-.04,0-.18.16.22.1.56.23.79.29.49-.06-1.04-.04-.07.01.71.1-.19.07-.23-.02-.03-.1.61-.16.63.27-.57.29-.63.07-.18-.08.15-.16.29-.26.42-.21.6.6-.85-.05-.02-.22.28-.93.57.38-.26-.01,0-.02.02-.03.02-.07.05-.14.11-.22.16-.86.61-1.71,1.24-2.56,1.86-3.69,2.69-7.38,5.37-11.08,8.06-9.65,7.02-19.31,14.04-28.96,21.06-2.6,1.89-5.19,3.78-7.79,5.66-2.27,1.65-4.63,3.13-7.14,4.39-.56.28-1.12.55-1.68.8-.31.14-.63.28-.95.42.17-.07.75-.3-.07.02-1.28.5-2.57.97-3.89,1.37-1.18.36-2.37.68-3.58.95-.67.15-1.34.29-2.02.41-.27.05-.54.09-.81.14s-1.25.18-.43.08c-2.59.34-5.21.45-7.82.37-1.31-.04-2.63-.14-3.93-.29-.22-.03-1.13-.16-.25-.03-.28-.04-.55-.08-.83-.13-.76-.12-1.51-.27-2.26-.43-1.58-.33-3.15-.71-4.72-1.06-5.32-1.2-10.63-2.4-15.95-3.6-3.58-.81-7.21-1.37-10.89-1.39-6.22-.03-12.32,1.3-18.02,3.75-4.73,2.03-9.3,4.47-13.92,6.73l-1.54.75c-2.12,1.04-2.86,4.22-1.61,6.16,1.4,2.17,3.89,2.72,6.16,1.61h0Z"/><path class="cls-2" d="m164.34,37.75H32.07c-6.06,0-12.17-.23-18.23,0-.09,0-.18,0-.26,0l4.5,4.5V4.56l-4.5,4.5h132.27c6.06,0,12.17.23,18.23,0,.09,0,.18,0,.26,0l-4.5-4.5v37.69c0,2.35,2.07,4.61,4.5,4.5s4.5-1.98,4.5-4.5V4.56c0-2.43-2.06-4.5-4.5-4.5H32.07C26,.06,19.91-.08,13.84.06c-.09,0-.18,0-.26,0-2.43,0-4.5,2.06-4.5,4.5v37.69c0,2.43,2.06,4.5,4.5,4.5h132.27c6.07,0,12.16.14,18.23,0,.09,0,.18,0,.26,0,2.35,0,4.61-2.07,4.5-4.5-.11-2.44-1.98-4.5-4.5-4.5Z"/><path class="cls-2" d="m159.41,118.03v-62.86c0-2.35-2.07-4.61-4.5-4.5s-4.5,1.98-4.5,4.5v62.86c0,2.35,2.07,4.61,4.5,4.5s4.5-1.98,4.5-4.5h0Z"/><path class="cls-2" d="m18.5,55.17v74.81c0,2.35,2.07,4.61,4.5,4.5s4.5-1.98,4.5-4.5V55.17c0-2.35-2.07-4.61-4.5-4.5s-4.5,1.98-4.5,4.5h0Z"/><rect class="cls-1" x="60.69" y="61.1" width="56.53" height="18.84" rx="9.42" ry="9.42"/></g></svg>