<?xml version="1.0" encoding="UTF-8"?><svg id="Layer_2" xmlns="http://www.w3.org/2000/svg" viewBox="0 0 243.48 244.38"><defs><style>.cls-1{fill:#5660fe;}.cls-1,.cls-2{stroke-width:0px;}.cls-2{fill:#de9c7f;}</style></defs><g id="Layer_1-2"><path class="cls-2" d="m210.3,146.28c-.7,0-1.4-.02-2.09-.08-.34-.02-.69-.06-1.03-.09-.11-.01-.7-.08-.08,0s-.13-.02-.25-.04c-1.39-.23-2.76-.55-4.1-.98-.63-.2-1.26-.44-1.88-.67-.81-.31.64.31-.14-.07-.4-.19-.8-.37-1.19-.57-1.22-.62-2.39-1.33-3.51-2.12-.13-.09-.95-.69-.46-.33s-.31-.26-.44-.36c-.54-.45-1.07-.93-1.58-1.42-.47-.45-.92-.92-1.36-1.41-.22-.24-.43-.49-.64-.74-.13-.15-.81-1.03-.47-.56s-.24-.33-.33-.46c-.19-.27-.37-.54-.55-.81-.39-.59-.76-1.2-1.1-1.82-.32-.58-.62-1.16-.9-1.76-.2-.42-.43-.82-.08-.14-.18-.34-.29-.73-.42-1.08-.5-1.37-.89-2.77-1.18-4.2-.07-.33-.13-.67-.18-1,0-.05-.04-.49-.08-.51.02.01.1.88.05.35-.06-.75-.14-1.49-.17-2.24-.05-1.46.05-2.89.17-4.35.04-.53-.03.34-.05.35.04-.02.07-.46.08-.51.05-.34.12-.67.18-1,.14-.72.31-1.43.51-2.13.18-.64.38-1.28.61-1.91.11-.31.23-.62.35-.93.04-.1.28-.61.03-.07-.26.57.06-.11.11-.22.59-1.24,1.23-2.44,1.98-3.6.36-.55.74-1.08,1.12-1.61-.53.73-.05.07.21-.24.24-.29.49-.58.75-.86.91-1.01,1.89-1.95,2.94-2.82.13-.1.93-.72.44-.36s.33-.24.46-.33c.58-.41,1.17-.8,1.78-1.16.56-.34,1.14-.66,1.72-.96.29-.15.59-.3.89-.43.15-.07.31-.13.45-.21.55-.29-.75.28-.16.06,1.31-.48,2.61-.95,3.97-1.28.66-.16,1.32-.3,1.99-.41.17-.03.34-.05.51-.08.53-.09-.34.06-.35.05.01.03,1.09-.11,1.2-.12,1.51-.12,3.02-.12,4.53,0,.34.03.69.07,1.03.1.53.04-.34-.03-.35-.05.02.04.46.07.51.08.72.12,1.45.26,2.16.44,1.36.33,2.66.8,3.97,1.28.48.18-.3-.13-.31-.13.14.03.32.14.45.2.3.14.6.28.89.43.64.32,1.26.66,1.87,1.03.56.34,1.11.69,1.65,1.07.27.19.53.39.79.58-.73-.51-.08-.06.24.21,1.04.87,2.03,1.81,2.94,2.82.22.24.43.49.64.74.14.17.81,1.03.47.56s.24.33.33.46c.22.31.44.63.64.95.75,1.15,1.39,2.36,1.98,3.6.06.13.17.31.2.45,0-.01-.31-.8-.13-.31.11.31.24.62.36.93.25.68.47,1.37.67,2.07.18.65.34,1.3.48,1.96.07.33.13.67.19,1,.03.17.05.34.08.51.11.64-.08-.83-.03-.18.12,1.45.22,2.89.17,4.35-.03.69-.08,1.38-.15,2.07-.08.9.13-.72-.02.16-.07.39-.13.78-.21,1.17-.29,1.43-.68,2.83-1.18,4.2-.11.31-.25.62-.36.93-.18.48.13-.3.13-.31-.03.14-.14.32-.2.45-.31.64-.62,1.28-.97,1.91-.32.57-.66,1.14-1.01,1.69-.18.27-.36.55-.55.81-.11.16-.77,1.07-.42.6s-.26.31-.36.44c-.21.25-.42.5-.64.74-.47.53-.96,1.04-1.47,1.53-.47.45-.95.89-1.45,1.31-.25.21-.51.41-.76.62.7-.57.06-.06-.27.18-1.12.79-2.29,1.5-3.51,2.12-.34.18-.69.34-1.04.5-.13.06-.31.17-.45.2.01,0,.8-.31.31-.13-.68.25-1.34.52-2.03.74-1.34.43-2.71.76-4.1.98-.05,0-.49.04-.51.08.01-.02.88-.1.35-.05-.34.03-.69.07-1.03.1-.75.06-1.51.08-2.27.09-2.35.01-4.61,2.06-4.5,4.5.11,2.43,1.98,4.52,4.5,4.5,13.99-.08,26.37-8.92,31.23-21.98,4.73-12.7.63-27.92-9.82-36.53-5.46-4.5-11.92-7.16-18.97-7.75s-13.7,1.13-19.47,4.6c-12.06,7.25-18.13,21.43-15.47,35.17,2.54,13.11,13.75,24.02,26.99,26.01,1.83.28,3.66.47,5.51.48,2.35.01,4.61-2.08,4.5-4.5-.11-2.45-1.98-4.48-4.5-4.5Z"/><path class="cls-2" d="m196.94,185.67c13.57-3.65,25.29-13.48,30.89-26.42,1.65-3.82,2.88-7.74,3.48-11.86.27-1.85-.04-3.51-1.61-4.73-1.45-1.12-3.39-1.23-5-.35-.75.41-1.5.79-2.27,1.15-.16.07-1.29.54-.49.22-.33.13-.66.26-1,.38-1.56.57-3.15,1.02-4.77,1.36-.36.07-.71.14-1.07.21-.16.03-1.35.2-.92.15.53-.06-.62.06-.72.07-.44.04-.89.07-1.34.09-1.66.09-3.34.05-5-.1-.35-.03-.7-.07-1.05-.11.98.12-.37-.07-.46-.08-.75-.13-1.49-.28-2.23-.46-1.53-.37-3.01-.86-4.48-1.42-.9-.34.54.27-.42-.18-.3-.14-.61-.28-.91-.43-.66-.32-1.32-.66-1.96-1.03-1.4-.79-2.73-1.69-4-2.65-2.82-2.14-6.77.79-6.77,3.89v6.66c0,.78.01,1.57,0,2.35,0,.36-.03.72-.05,1.09-.03.38-.11.53,0,.08-.14.62-.26,1.23-.45,1.84-.1.33-.22.66-.35.98.17-.43.12-.26-.05.06-.32.61-.66,1.19-1.04,1.77-1.31,1.97-.45,5.07,1.61,6.16,2.26,1.19,4.76.48,6.16-1.61,3.87-5.83,3.18-12.72,3.18-19.36l-6.77,3.89c12.12,9.2,28.92,10.06,42.19,2.83-2.2-1.69-4.41-3.39-6.61-5.08-.47,3.19-1.26,6.32-2.43,9.32-.13.33-.26.65-.39.98.34-.83-.02.03-.18.37-.34.74-.7,1.47-1.09,2.2-.74,1.38-1.55,2.73-2.43,4.02-.39.57-.8,1.13-1.22,1.69.53-.72-.04.04-.26.32-.26.31-.52.62-.78.93-1.02,1.18-2.1,2.3-3.25,3.36-.55.51-1.11,1.01-1.69,1.49-.27.22-.54.44-.81.66-.64.52-.03.02.09-.07-.19.14-.37.28-.56.41-1.26.92-2.58,1.78-3.94,2.56-.76.43-1.53.85-2.31,1.23-.37.18-.74.36-1.11.53-.21.1-.43.19-.64.29-.59.28.71-.28.1-.04-1.71.67-3.43,1.27-5.2,1.74-2.27.61-3.89,3.23-3.14,5.54s3.1,3.8,5.54,3.14h0Z"/><path class="cls-2" d="m210.3,97.73c.75,0,1.51.02,2.26.07.3.02.6.04.89.07.1,0,1.25.13.73.07-.49-.06.74.12.71.11.29.05.58.1.86.16.71.14,1.42.3,2.13.49,1.26.33,2.48.74,3.69,1.2s-.39-.2.31.12c.32.15.65.29.97.44.64.31,1.27.64,1.89.98,1.61.88,3.54.77,5-.35,1.56-1.2,1.87-2.87,1.61-4.73-1.43-10.52-6.72-20.52-14.53-27.71-8.07-7.43-18.46-11.83-29.41-12.49-3.11-.19-6.26-.06-9.37-.04-1.24,0-2.48,0-3.72.02-3,.06-5.67,1.03-8,2.9-5.48,4.4-5.8,12.7-1.24,17.86,2.17,2.46,5.36,3.85,8.6,4.04.52.03,1.04,0,1.56.03.23.01.65-.04.86.06l-.52-.08c.22.03.45.07.67.12.55.11,1.09.25,1.62.42.28.09.7.17.94.34-.93-.64,0,.02.27.16.63.33,1.22.71,1.81,1.11.66.45-.03-.01-.14-.11.32.29.66.57.97.87.23.23.46.46.67.71.15.17.75,1.03.12.1.4.59.8,1.17,1.14,1.79.13.24.25.49.37.73.2.45.18.4-.06-.16.08.21.16.42.23.63.22.64.35,1.29.51,1.95.27,1.11-.05-.99.03.16.02.35.05.69.06,1.04,0,.2,0,.4,0,.6,0,2.98,0,5.95,0,8.93,0,3.1,3.95,6.02,6.77,3.89,1.38-1.05,2.83-2.01,4.35-2.85.82-.46,1.67-.87,2.52-1.26,1.2-.55-.82.3.42-.18.44-.17.89-.34,1.34-.49,1.69-.58,3.42-1.03,5.17-1.35.19-.03,1.64-.24.66-.12.42-.05.84-.1,1.26-.13.99-.09,1.99-.12,2.98-.13,2.35-.01,4.61-2.06,4.5-4.5-.11-2.43-1.98-4.52-4.5-4.5-8.33.05-16.6,2.69-23.25,7.74l6.77,3.89c0-6.76.83-14.11-3.32-19.95-3.49-4.92-8.71-7.93-14.73-8.4-.46-.04-.93-.03-1.39-.04-.07,0-1.18.06-.43.02.68-.03-.25-.05-.4-.09-.24-.06-.75-.13-.94-.3.05.05.9.5.19.05-.18-.12-.73-.31-.83-.51l.4.31c-.17-.14-.32-.28-.48-.43-.21-.21-.99-.72-.14-.07-.12-.09-.29-.43-.36-.54-.14-.24-.41-.59-.46-.86.19.99.15.38.1.15-.05-.25-.3-.72-.23-.97-.15.62.03.62.05.18.01-.25-.11-.82.02-1.04-.1.63-.1.69,0,.18l.08-.33c.07-.27.17-1.26,0-.18.04-.25.28-.5.38-.73.12-.25.62-.84-.05-.03.17-.21.35-.41.55-.61s.4-.37.6-.55c-.86.74-.05.09.17-.04.14-.08.46-.3.59-.3-.57.23-.62.26-.15.09.21-.07.43-.13.65-.18.37-.12.48-.33-.18,0,.05-.02.66-.03.71-.03.09,0,.17,0,.26,0,.53,0,1.06,0,1.59,0,2.8-.02,5.59-.04,8.39-.05.81,0,1.62,0,2.43.05.64.03,1.29.08,1.93.14.23.02.46.05.7.07.23.03.46.05.69.08-.56-.08-.68-.09-.34-.04,2.43.4,4.82.92,7.16,1.7.53.18,1.07.37,1.59.56.23.09,1.91.8.8.3,1.12.5,2.23,1.02,3.31,1.61.98.53,1.93,1.09,2.87,1.7.47.3.93.61,1.38.93.27.19.54.39.81.58.39.29.72.56.15.1,2.07,1.67,4.01,3.47,5.76,5.47.44.5.85,1.01,1.27,1.53.72.88-.55-.78.11.14.19.27.39.54.59.81.77,1.09,1.49,2.21,2.16,3.36s1.28,2.35,1.84,3.57c.09.2.18.41.27.61.2.46.18.41-.06-.15.09.21.17.42.25.63.25.63.48,1.27.69,1.91.88,2.61,1.49,5.29,1.86,8.01l6.61-5.08c-5.84-3.2-12.33-4.9-18.99-4.94-2.35-.02-4.61,2.08-4.5,4.5.11,2.45,1.98,4.48,4.5,4.5Z"/><path class="cls-2" d="m97.37,211.2c0-.7.02-1.4.08-2.09.02-.34.06-.69.09-1.03.01-.11.08-.7,0-.08s.02-.13.04-.25c.23-1.39.55-2.76.98-4.1.2-.63.44-1.26.67-1.88.31-.81-.31.64.07-.14.19-.4.37-.8.57-1.19.62-1.22,1.33-2.39,2.12-3.51.09-.13.69-.95.33-.46s.26-.31.36-.44c.45-.54.93-1.07,1.42-1.58.45-.47.92-.92,1.41-1.36.24-.22.49-.43.74-.64.15-.13,1.03-.81.56-.47s.33-.24.46-.33c.27-.19.54-.37.81-.55.59-.39,1.2-.76,1.82-1.1.58-.32,1.16-.62,1.76-.9.42-.2.82-.43.14-.08.34-.18.73-.29,1.08-.42,1.37-.5,2.77-.89,4.2-1.18.33-.07.67-.13,1-.18.05,0,.49-.04.51-.08-.01.02-.88.1-.35.05.75-.06,1.49-.14,2.24-.17,1.46-.05,2.89.05,4.35.17.53.04-.34-.03-.35-.05.02.04.46.07.51.08.34.05.67.12,1,.18.72.14,1.43.31,2.13.51.64.18,1.28.38,1.91.61.31.11.62.23.93.35.1.04.61.28.07.03-.57-.26.11.06.22.11,1.24.59,2.44,1.23,3.6,1.98.55.36,1.08.74,1.61,1.12-.73-.53-.07-.05.24.21.29.24.58.49.86.75,1.01.91,1.95,1.89,2.82,2.94.1.13.72.93.36.44s.24.33.33.46c.41.58.8,1.17,1.16,1.78.34.56.66,1.14.96,1.72.15.29.3.59.43.89.07.15.13.31.21.45.29.55-.28-.75-.06-.16.48,1.31.95,2.61,1.28,3.97.16.66.3,1.32.41,1.99.03.17.05.34.08.51.09.53-.06-.34-.05-.35-.03.01.11,1.09.12,1.2.12,1.51.12,3.02,0,4.53-.03.34-.07.69-.1,1.03-.04.53.03-.34.05-.35-.04.02-.07.46-.08.51-.12.72-.26,1.45-.44,2.16-.33,1.36-.8,2.66-1.28,3.97-.18.48.13-.3.13-.31-.03.14-.14.32-.2.45-.14.3-.28.6-.43.89-.32.64-.66,1.26-1.03,1.87-.34.56-.69,1.11-1.07,1.65-.19.27-.39.53-.58.79.51-.73.06-.08-.21.24-.87,1.04-1.81,2.03-2.82,2.94-.24.22-.49.43-.74.64-.17.14-1.03.81-.56.47s-.33.24-.46.33c-.31.22-.63.44-.95.64-1.15.75-2.36,1.39-3.6,1.98-.13.06-.31.17-.45.2.01,0,.8-.31.31-.13-.31.11-.62.24-.93.36-.68.25-1.37.47-2.07.67-.65.18-1.3.34-1.96.48-.33.07-.67.13-1,.19-.17.03-.34.05-.51.08-.64.11.83-.08.18-.03-1.45.12-2.89.22-4.35.17-.69-.03-1.38-.08-2.07-.15-.9-.08.72.13-.16-.02-.39-.07-.78-.13-1.17-.21-1.43-.29-2.83-.68-4.2-1.18-.31-.11-.62-.25-.93-.36-.48-.18.3.13.31.13-.14-.03-.32-.14-.45-.2-.64-.31-1.28-.62-1.91-.97-.57-.32-1.14-.66-1.69-1.01-.27-.18-.55-.36-.81-.55-.16-.11-1.07-.77-.6-.42s-.31-.26-.44-.36c-.25-.21-.5-.42-.74-.64-.53-.47-1.04-.96-1.53-1.47-.45-.47-.89-.95-1.31-1.45-.21-.25-.41-.51-.62-.76.57.7.06.06-.18-.27-.79-1.12-1.5-2.29-2.12-3.51-.18-.34-.34-.69-.5-1.04-.06-.13-.17-.31-.2-.45,0,.01.31.8.13.31-.25-.68-.52-1.34-.74-2.03-.43-1.34-.76-2.71-.98-4.1,0-.05-.04-.49-.08-.51.02.01.1.88.05.35-.03-.34-.07-.69-.1-1.03-.06-.75-.08-1.51-.09-2.27-.01-2.35-2.06-4.61-4.5-4.5s-4.52,1.98-4.5,4.5c.08,13.99,8.92,26.37,21.98,31.23,12.7,4.73,27.92.63,36.53-9.82,4.5-5.46,7.16-11.92,7.75-18.97s-1.13-13.7-4.6-19.47c-7.25-12.06-21.43-18.13-35.17-15.47-13.11,2.54-24.02,13.75-26.01,26.99-.28,1.83-.47,3.66-.48,5.51-.01,2.35,2.08,4.61,4.5,4.5s4.48-1.98,4.5-4.5Z"/><path class="cls-2" d="m58.11,198.34c3.78,13.39,13.56,24.93,26.4,30.44,3.79,1.62,7.66,2.83,11.74,3.43,1.85.27,3.51-.04,4.73-1.61,1.12-1.45,1.23-3.39.35-5-.41-.75-.79-1.5-1.15-2.27-.07-.16-.54-1.29-.22-.49-.13-.33-.26-.66-.38-1-.57-1.56-1.02-3.15-1.36-4.77-.07-.36-.14-.71-.21-1.07-.03-.16-.2-1.35-.15-.92.06.53-.06-.62-.07-.72-.04-.44-.07-.89-.09-1.34-.09-1.66-.05-3.34.1-5,.03-.35.07-.7.11-1.05-.12.98.07-.37.08-.46.13-.75.28-1.49.46-2.23.37-1.53.86-3.01,1.42-4.48.34-.9-.27.54.18-.42.14-.3.28-.61.43-.91.32-.66.66-1.32,1.03-1.96.79-1.4,1.69-2.73,2.65-4,2.14-2.82-.79-6.77-3.89-6.77h-6.97c-1,0-2.01.02-3.01-.01-.24,0-.49-.02-.73-.03-.06,0-1.16-.02-.41-.01.69,0-.17-.03-.34-.07-.2-.04-.4-.09-.59-.15-.14-.04-.97-.16-.32-.07.54.07-.07-.04-.31-.17-.19-.1-.38-.22-.57-.33-.12-.08-1.05-.76-.26-.14-1.85-1.45-4.58-1.94-6.36,0-1.48,1.62-1.98,4.81,0,6.36,2.52,1.97,4.97,3.12,8.16,3.49,1.38.16,2.78.14,4.17.14h7.55l-3.89-6.77c-9.2,12.12-10.06,28.92-2.83,42.19,1.69-2.2,3.39-4.41,5.08-6.61-3.14-.46-6.22-1.24-9.19-2.38-.33-.13-.66-.26-.99-.39-.48-.19.23.09.26.11-.21-.1-.43-.19-.64-.29-.69-.32-1.38-.65-2.05-1-1.4-.73-2.75-1.54-4.06-2.42-.63-.42-1.23-.87-1.84-1.32-.41-.3.19.15.22.17-.14-.11-.27-.22-.41-.33-.32-.25-.63-.51-.94-.78-1.19-1.02-2.32-2.1-3.39-3.24-.52-.55-1.02-1.11-1.5-1.69-.22-.27-.44-.54-.66-.81-.06-.07-.43-.53-.08-.09s-.11-.15-.18-.24c-.94-1.26-1.81-2.57-2.6-3.93-.86-1.47-1.6-2.99-2.3-4.54-.27-.6.27.71.04.1-.08-.22-.18-.44-.26-.66-.15-.39-.29-.77-.43-1.16-.32-.9-.6-1.8-.85-2.72-.64-2.26-3.21-3.89-5.54-3.14s-3.83,3.11-3.14,5.54h0Z"/><path class="cls-2" d="m145.91,211.2c0,.75-.02,1.51-.07,2.26-.02.3-.04.6-.07.89,0,.1-.13,1.25-.07.73.06-.49-.12.74-.11.71-.05.29-.1.58-.16.86-.14.71-.3,1.42-.49,2.13-.33,1.26-.74,2.48-1.2,3.69-.48,1.27.2-.39-.12.31-.15.32-.29.65-.44.97-.31.64-.64,1.27-.98,1.89-.88,1.61-.77,3.54.35,5,1.2,1.56,2.87,1.87,4.73,1.61,10.52-1.43,20.52-6.72,27.71-14.53s11.83-18.46,12.49-29.41c.19-3.11.06-6.26.04-9.37,0-1.24,0-2.48-.02-3.72-.06-3-1.03-5.67-2.9-8-4.4-5.48-12.7-5.8-17.86-1.24-2.46,2.17-3.85,5.36-4.04,8.6-.03.52,0,1.04-.03,1.56-.01.23.04.65-.06.86l.08-.52c-.03.22-.07.45-.12.67-.11.55-.25,1.09-.42,1.62-.09.28-.17.7-.34.94.64-.93-.02,0-.16.27-.33.63-.71,1.22-1.11,1.81-.45.66.01-.03.11-.14-.29.32-.57.66-.87.97-.23.23-.46.46-.71.67-.17.15-1.03.75-.1.12-.59.4-1.17.8-1.79,1.14-.24.13-.49.25-.73.37-.45.2-.4.18.16-.06-.21.08-.42.16-.63.23-.64.22-1.29.35-1.95.51-1.11.27.99-.05-.16.03-.35.02-.69.05-1.04.06-.2,0-.4,0-.6,0-2.98,0-5.95,0-8.93,0s-6.02,3.95-3.89,6.77c1.05,1.38,2.01,2.83,2.85,4.35.46.82.87,1.67,1.26,2.52.55,1.2-.3-.82.18.42.17.44.34.89.49,1.34.58,1.69,1.03,3.42,1.35,5.17.03.19.24,1.64.12.66.05.42.1.84.13,1.26.09.99.12,1.99.13,2.98.01,2.35,2.06,4.61,4.5,4.5s4.52-1.98,4.5-4.5c-.05-8.33-2.69-16.6-7.74-23.25-1.3,2.26-2.59,4.51-3.89,6.77,6.76,0,14.11.83,19.95-3.32,4.92-3.49,7.93-8.71,8.4-14.73.04-.46.03-.93.04-1.39,0-.07-.06-1.18-.02-.43.03.68.05-.25.09-.4.06-.24.13-.75.3-.94-.05.05-.5.9-.05.19.12-.18.31-.73.51-.83l-.31.4c.14-.17.28-.32.43-.48.21-.21.72-.99.07-.14.09-.12.43-.29.54-.36.24-.14.59-.41.86-.46-.99.19-.38.15-.15.1.25-.05.72-.3.97-.23-.62-.15-.62.03-.18.05.25.01.82-.11,1.04.02-.63-.1-.69-.1-.18,0l.33.08c.27.07,1.26.17.18,0,.25.04.5.28.73.38.25.12.84.62.03-.05.21.17.41.35.61.55s.37.4.55.6c-.74-.86-.09-.05.04.17.08.14.3.46.3.59-.23-.57-.26-.62-.09-.15.07.21.13.43.18.65.12.37.33.48,0-.18.02.05.03.66.03.71,0,.09,0,.17,0,.26,0,.53,0,1.06,0,1.59.02,2.8.04,5.59.05,8.39,0,.81,0,1.62-.05,2.43-.03.64-.08,1.29-.14,1.93-.02.23-.05.46-.07.7-.03.23-.05.46-.08.69.08-.56.09-.68.04-.34-.4,2.43-.92,4.82-1.7,7.16-.18.53-.37,1.07-.56,1.59-.09.23-.8,1.91-.3.8-.5,1.12-1.02,2.23-1.61,3.31-.53.98-1.09,1.93-1.7,2.87-.3.47-.61.93-.93,1.38-.19.27-.39.54-.58.81-.29.39-.56.72-.1.15-1.67,2.07-3.47,4.01-5.47,5.76-.5.44-1.01.85-1.53,1.27-.88.72.78-.55-.14.11-.27.19-.54.39-.81.59-1.09.77-2.21,1.49-3.36,2.16s-2.35,1.28-3.57,1.84c-.2.09-.41.18-.61.27-.46.2-.41.18.15-.06-.21.09-.42.17-.63.25-.63.25-1.27.48-1.91.69-2.61.88-5.29,1.49-8.01,1.86,1.69,2.2,3.39,4.41,5.08,6.61,3.2-5.84,4.9-12.33,4.94-18.99.02-2.35-2.08-4.61-4.5-4.5s-4.48,1.98-4.5,4.5Z"/><path class="cls-2" d="m33.18,98.1c.7,0,1.4.02,2.09.08.34.02.69.06,1.03.09.11.01.7.08.08,0s.13.02.25.04c1.39.23,2.76.55,4.1.98.63.2,1.26.44,1.88.67.81.31-.64-.31.14.07.4.19.8.37,1.19.57,1.22.62,2.39,1.33,3.51,2.12.13.09.95.69.46.33s.31.26.44.36c.54.45,1.07.93,1.58,1.42.47.45.92.92,1.36,1.41.22.24.43.49.64.74.13.15.81,1.03.47.56s.24.33.33.46c.19.27.37.54.55.81.39.59.76,1.2,1.1,1.82.32.58.62,1.16.9,1.76.2.42.43.82.08.14.18.34.29.73.42,1.08.5,1.37.89,2.77,1.18,4.2.07.33.13.67.18,1,0,.05.04.49.08.51-.02-.01-.1-.88-.05-.35.06.75.14,1.49.17,2.24.05,1.46-.05,2.89-.17,4.35-.04.53.03-.34.05-.35-.04.02-.07.46-.08.51-.05.34-.12.67-.18,1-.14.72-.31,1.43-.51,2.13-.18.64-.38,1.28-.61,1.91-.11.31-.23.62-.35.93-.04.1-.28.61-.03.07.26-.57-.06.11-.11.22-.59,1.24-1.23,2.44-1.98,3.6-.36.55-.74,1.08-1.12,1.61.53-.73.05-.07-.21.24-.24.29-.49.58-.75.86-.91,1.01-1.89,1.95-2.94,2.82-.13.1-.93.72-.44.36s-.33.24-.46.33c-.58.41-1.17.8-1.78,1.16-.56.34-1.14.66-1.72.96-.29.15-.59.3-.89.43-.15.07-.31.13-.45.21-.55.29.75-.28.16-.06-1.31.48-2.61.95-3.97,1.28-.66.16-1.32.3-1.99.41-.17.03-.34.05-.51.08-.53.09.34-.06.35-.05-.01-.03-1.09.11-1.2.12-1.51.12-3.02.12-4.53,0-.34-.03-.69-.07-1.03-.1-.53-.04.34.03.35.05-.02-.04-.46-.07-.51-.08-.72-.12-1.45-.26-2.16-.44-1.36-.33-2.66-.8-3.97-1.28-.48-.18.3.13.31.13-.14-.03-.32-.14-.45-.2-.3-.14-.6-.28-.89-.43-.64-.32-1.26-.66-1.87-1.03-.56-.34-1.11-.69-1.65-1.07-.27-.19-.53-.39-.79-.58.73.51.08.06-.24-.21-1.04-.87-2.03-1.81-2.94-2.82-.22-.24-.43-.49-.64-.74-.14-.17-.81-1.03-.47-.56s-.24-.33-.33-.46c-.22-.31-.44-.63-.64-.95-.75-1.15-1.39-2.36-1.98-3.6-.06-.13-.17-.31-.2-.45,0,.01.31.8.13.31-.11-.31-.24-.62-.36-.93-.25-.68-.47-1.37-.67-2.07-.18-.65-.34-1.3-.48-1.96-.07-.33-.13-.67-.19-1-.03-.17-.05-.34-.08-.51-.11-.64.08.83.03.18-.12-1.45-.22-2.89-.17-4.35.03-.69.08-1.38.15-2.07.08-.9-.13.72.02-.16.07-.39.13-.78.21-1.17.29-1.43.68-2.83,1.18-4.2.11-.31.25-.62.36-.93.18-.48-.13.3-.13.31.03-.14.14-.32.2-.45.31-.64.62-1.28.97-1.91.32-.57.66-1.14,1.01-1.69.18-.27.36-.55.55-.81.11-.16.77-1.07.42-.6s.26-.31.36-.44c.21-.25.42-.5.64-.74.47-.53.96-1.04,1.47-1.53.47-.45.95-.89,1.45-1.31.25-.21.51-.41.76-.62-.7.57-.06.06.27-.18,1.12-.79,2.29-1.5,3.51-2.12.34-.18.69-.34,1.04-.5.13-.06.31-.17.45-.2-.01,0-.8.31-.31.13.68-.25,1.34-.52,2.03-.74,1.34-.43,2.71-.76,4.1-.98.05,0,.49-.04.51-.08-.01.02-.88.1-.35.05.34-.03.69-.07,1.03-.1.75-.06,1.51-.08,2.27-.09,2.35-.01,4.61-2.06,4.5-4.5-.11-2.43-1.98-4.52-4.5-4.5-13.99.08-26.37,8.92-31.23,21.98-4.73,12.7-.63,27.92,9.82,36.53,5.46,4.5,11.92,7.16,18.97,7.75,6.71.57,13.7-1.13,19.47-4.6,12.06-7.25,18.13-21.43,15.47-35.17-2.54-13.11-13.75-24.02-26.99-26.01-1.83-.28-3.66-.47-5.51-.48-2.35-.01-4.61,2.08-4.5,4.5.11,2.45,1.98,4.48,4.5,4.5Z"/><path class="cls-2" d="m69.1,82.01c2.35,0,4.61-2.07,4.5-4.5-.11-2.44-1.98-4.5-4.5-4.5-2.35,0-4.61,2.07-4.5,4.5s1.98,4.5,4.5,4.5h0Z"/><path class="cls-2" d="m46.1,58.83c-13.45,3.77-25.02,13.59-30.53,26.48-1.61,3.77-2.81,7.62-3.4,11.68-.27,1.85.04,3.51,1.61,4.73,1.45,1.12,3.39,1.23,5,.35.75-.41,1.5-.79,2.27-1.15.16-.07,1.29-.54.49-.22.33-.13.66-.26,1-.38,1.56-.57,3.15-1.02,4.77-1.36.36-.07.71-.14,1.07-.21.16-.03,1.35-.2.92-.15-.53.06.62-.06.72-.07.44-.04.89-.07,1.34-.09,1.66-.09,3.34-.05,5,.1.35.03.7.07,1.05.11-.98-.12.37.07.46.08.75.13,1.49.28,2.23.46,1.53.37,3.01.86,4.48,1.42.9.34-.54-.27.42.18.3.14.61.28.91.43.66.32,1.32.66,1.96,1.03,1.4.79,2.73,1.69,4,2.65,2.82,2.14,6.77-.79,6.77-3.89,0-2.32,0-4.65,0-6.97,0-1,0-2,0-2.99,0-.5.03-1,.06-1.5.05-.96.13.09-.03.18.06-.03.1-.46.12-.54.03-.13.07-.27.12-.4.08-.22.05-.18-.08.14-.14.32-.16.37-.06.14.06-.14.13-.27.2-.4.28-.51.61-.97.96-1.44,1.42-1.89.37-5.11-1.61-6.16-2.36-1.25-4.64-.4-6.16,1.61-1.63,2.17-2.36,4.62-2.49,7.31-.06,1.21-.03,2.42-.03,3.63,0,2.46,0,4.91,0,7.37,2.26-1.3,4.51-2.59,6.77-3.89-12.12-9.2-28.92-10.06-42.19-2.83l6.61,5.08c.46-3.12,1.23-6.19,2.36-9.14.15-.38.3-.76.45-1.14-.3.73-.06.15.11-.21.34-.74.7-1.48,1.08-2.2.73-1.39,1.53-2.73,2.41-4.03.42-.62.87-1.22,1.31-1.83-.45.63-.1.13.15-.18s.51-.62.77-.93c1.01-1.18,2.09-2.31,3.22-3.37.55-.51,1.11-1.01,1.68-1.49.26-.22.53-.44.8-.66.13-.11.27-.22.41-.32-.46.37-.34.26.05-.03,1.21-.89,2.47-1.72,3.76-2.49.75-.44,1.52-.86,2.29-1.25.42-.21.83-.41,1.26-.61.16-.07.32-.15.48-.22.1-.04.81-.37.27-.12s.02,0,.11-.04c.27-.11.54-.22.82-.32.38-.15.77-.29,1.16-.42.89-.31,1.79-.59,2.7-.85,2.27-.64,3.89-3.22,3.14-5.54-.75-2.31-3.11-3.82-5.54-3.14h0Z"/><path class="cls-2" d="m33.18,146.64c-.75,0-1.51-.02-2.26-.07-.3-.02-.6-.04-.89-.07-.1,0-1.25-.13-.73-.07.49.06-.74-.12-.71-.11-.29-.05-.58-.1-.86-.16-.71-.14-1.42-.3-2.13-.49-1.26-.33-2.48-.74-3.69-1.2s.39.2-.31-.12c-.32-.15-.65-.29-.97-.44-.64-.31-1.27-.64-1.89-.98-1.61-.88-3.54-.77-5,.35-1.56,1.2-1.87,2.87-1.61,4.73,2.09,15.41,12.47,29.39,26.62,35.85,6.6,3.01,13.6,4.47,20.86,4.42l7.2-.04c2.91-.02,5.65-.12,8.33-1.51,5.03-2.61,7.49-8.72,6.08-14.12-1.42-5.45-6.55-9.16-12.11-9.19l3.18,1.32c-1.27-1.27-2.91-1.33-4.57-1.36-.52-.05-.46-.04.17.05-.22-.03-.45-.07-.67-.12-.44-.09-.88-.19-1.31-.32-.38-.11-.93-.21-1.26-.43.97.67-.16-.1-.42-.24-.68-.36-1.31-.78-1.93-1.23.98.73-.16-.18-.33-.35-.32-.3-.62-.61-.91-.93-.14-.16-.29-.33-.42-.5.37.48.4.53.11.13-.24-.37-.49-.72-.71-1.1-.17-.28-.32-.57-.47-.87-.1-.2-.19-.4-.28-.6.24.57.26.62.08.15-.21-.7-.81-1.85-.68-2.6.08.63.09.69.03.18-.02-.23-.04-.46-.05-.69-.01-.25-.01-.49-.02-.73,0-.2,0-.4,0-.6v-3.22c0-1.78,0-3.55,0-5.33,0-3.1-3.95-6.02-6.77-3.89-1.38,1.05-2.83,2.01-4.35,2.85-.82.46-1.67.87-2.52,1.26-1.2.55.82-.3-.42.18-.44.17-.89.34-1.34.49-1.69.58-3.41,1.03-5.17,1.35-.19.03-1.64.24-.66.12-.42.05-.84.1-1.26.13-.99.09-1.99.12-2.98.13-2.35.01-4.61,2.06-4.5,4.5.11,2.43,1.98,4.52,4.5,4.5,8.33-.05,16.6-2.69,23.25-7.74-2.26-1.3-4.51-2.59-6.77-3.89,0,3-.01,6.01,0,9.01.03,6.52,3.18,12.37,8.5,16.1,3.15,2.22,7.11,3.29,10.95,3.28-1.06-.44-2.12-.88-3.18-1.32.71.71,1.61,1.11,2.58,1.24.35.05.75.12,1.12.09.5-.04-.29,0-.35-.08.07.1,1.14.27,1.29.32.14.04.57.28.07.02-.61-.32.22.14.34.21.11.07.5.26.54.35.01.03-.61-.61-.28-.2.12.14.79.58.8.8,0-.2-.43-.68-.12-.14.11.19.23.36.34.55.08.14.13.31.22.43.27.37-.19-.78-.03,0,.04.23.25,1.32.2.71-.06-.66-.02.59-.01.78,0,.94.06-.12.05-.17.03.11-.13.59-.15.66-.04.16-.11.32-.15.48-.1.5.42-.7,0,0-.11.19-.62,1.16-.35.66s-.03.04-.16.18c-.11.12-.22.24-.34.35-.16.15-.32.29-.49.43.14-.12.78-.48.11-.13-.14.08-.29.16-.43.25-.59.36-.23.33.02.03-.19.23-.84.23-1.13.32-.6.19.81,0,.18-.02-.17,0-.35.02-.52.02-.15,0-.31,0-.46,0-.89,0-1.79.01-2.68.02-2.18.01-4.35.03-6.53.04-.83,0-1.65,0-2.48-.02s-1.64-.08-2.46-.16c-.41-.04-.81-.09-1.22-.13-.66-.07.81.13.16.02-.28-.05-.57-.09-.86-.13-1.63-.27-3.25-.65-4.84-1.11-.81-.24-1.62-.5-2.42-.79-.37-.13-.74-.27-1.11-.41-.16-.06-.31-.12-.47-.19-1.03-.41.57.27-.01,0-3.08-1.42-5.84-3.12-8.62-5.05-.52-.36.59.51.12.09-.12-.11-.26-.21-.39-.31-.34-.28-.68-.56-1.02-.85-.63-.54-1.24-1.1-1.83-1.68-1.19-1.16-2.31-2.38-3.36-3.67-.1-.13-.21-.26-.31-.39-.68-.84.35.51,0,0-.28-.41-.59-.8-.88-1.21-.51-.73-.99-1.47-1.45-2.23-.99-1.62-1.84-3.31-2.62-5.04-.09-.21-.3-.8.06.15-.08-.21-.17-.42-.25-.63-.18-.47-.36-.95-.53-1.43-.32-.91-.61-1.83-.86-2.76-.52-1.88-.9-3.8-1.16-5.74-2.2,1.69-4.41,3.39-6.61,5.08,5.84,3.2,12.33,4.9,18.99,4.94,2.35.02,4.61-2.08,4.5-4.5-.11-2.45-1.98-4.48-4.5-4.5Z"/><path class="cls-2" d="m146.11,33.18c0,.7-.02,1.4-.08,2.09-.02.34-.06.69-.09,1.03-.01.11-.08.7,0,.08s-.02.13-.04.25c-.23,1.39-.55,2.76-.98,4.1-.2.63-.44,1.26-.67,1.88-.31.81.31-.64-.07.14-.19.4-.37.8-.57,1.19-.62,1.22-1.33,2.39-2.12,3.51-.09.13-.69.95-.33.46s-.26.31-.36.44c-.45.54-.93,1.07-1.42,1.58-.45.47-.92.92-1.41,1.36-.24.22-.49.43-.74.64-.15.13-1.03.81-.56.47s-.33.24-.46.33c-.27.19-.54.37-.81.55-.59.39-1.2.76-1.82,1.1-.58.32-1.16.62-1.76.9-.42.2-.82.43-.14.08-.34.18-.73.29-1.08.42-1.37.5-2.77.89-4.2,1.18-.33.07-.67.13-1,.18-.05,0-.49.04-.51.08.01-.02.88-.1.35-.05-.75.06-1.49.14-2.24.17-1.46.05-2.89-.05-4.35-.17-.53-.04.34.03.35.05-.02-.04-.46-.07-.51-.08-.34-.05-.67-.12-1-.18-.72-.14-1.43-.31-2.13-.51-.64-.18-1.28-.38-1.91-.61-.31-.11-.62-.23-.93-.35-.1-.04-.61-.28-.07-.03.57.26-.11-.06-.22-.11-1.24-.59-2.44-1.23-3.6-1.98-.55-.36-1.08-.74-1.61-1.12.73.53.07.05-.24-.21-.29-.24-.58-.49-.86-.75-1.01-.91-1.95-1.89-2.82-2.94-.1-.13-.72-.93-.36-.44s-.24-.33-.33-.46c-.41-.58-.8-1.17-1.16-1.78-.34-.56-.66-1.14-.96-1.72-.15-.29-.3-.59-.43-.89-.07-.15-.13-.31-.21-.45-.29-.55.28.75.06.16-.48-1.31-.95-2.61-1.28-3.97-.16-.66-.3-1.32-.41-1.99-.03-.17-.05-.34-.08-.51-.09-.53.06.34.05.35.03-.01-.11-1.09-.12-1.2-.12-1.51-.12-3.02,0-4.53.03-.34.07-.69.1-1.03.04-.53-.03.34-.05.35.04-.02.07-.46.08-.51.12-.72.26-1.45.44-2.16.33-1.36.8-2.66,1.28-3.97.18-.48-.13.3-.13.31.03-.14.14-.32.2-.45.14-.3.28-.6.43-.89.32-.64.66-1.26,1.03-1.87.34-.56.69-1.11,1.07-1.65.19-.27.39-.53.58-.79-.51.73-.06.08.21-.24.87-1.04,1.81-2.03,2.82-2.94.24-.22.49-.43.74-.64.17-.14,1.03-.81.56-.47s.33-.24.46-.33c.31-.22.63-.44.95-.64,1.15-.75,2.36-1.39,3.6-1.98.13-.06.31-.17.45-.2-.01,0-.8.31-.31.13.31-.11.62-.24.93-.36.68-.25,1.37-.47,2.07-.67.65-.18,1.3-.34,1.96-.48.33-.07.67-.13,1-.19.17-.03.34-.05.51-.08.64-.11-.83.08-.18.03,1.45-.12,2.89-.22,4.35-.17.69.03,1.38.08,2.07.15.9.08-.72-.13.16.02.39.07.78.13,1.17.21,1.43.29,2.83.68,4.2,1.18.31.11.62.25.93.36.48.18-.3-.13-.31-.13.14.03.32.14.45.2.64.31,1.28.62,1.91.97.57.32,1.14.66,1.69,1.01.27.18.55.36.81.55.16.11,1.07.77.6.42s.31.26.44.36c.25.21.5.42.74.64.53.47,1.04.96,1.53,1.47.45.47.89.95,1.31,1.45.21.25.41.51.62.76-.57-.7-.06-.06.18.27.79,1.12,1.5,2.29,2.12,3.51.18.34.34.69.5,1.04.06.13.17.31.2.45,0-.01-.31-.8-.13-.31.25.68.52,1.34.74,2.03.43,1.34.76,2.71.98,4.1,0,.05.04.49.08.51-.02-.01-.1-.88-.05-.35.03.34.07.69.1,1.03.06.75.08,1.51.09,2.27.01,2.35,2.06,4.61,4.5,4.5s4.52-1.98,4.5-4.5c-.08-13.99-8.92-26.37-21.98-31.23s-27.92-.63-36.53,9.82c-4.5,5.46-7.16,11.92-7.75,18.97-.57,6.71,1.13,13.7,4.6,19.47,7.25,12.06,21.43,18.13,35.17,15.47,13.11-2.54,24.02-13.75,26.01-26.99.28-1.83.47-3.66.48-5.51.01-2.35-2.08-4.61-4.5-4.5s-4.48,1.98-4.5,4.5Z"/><path class="cls-2" d="m185.64,47.1c-3.5-13.74-13.38-25.71-26.43-31.39-3.86-1.68-7.82-2.93-12-3.54-1.85-.27-3.51.04-4.73,1.61-1.12,1.45-1.23,3.39-.35,5,.41.75.79,1.5,1.15,2.27.07.16.54,1.29.22.49.13.33.26.66.38,1,.57,1.56,1.02,3.15,1.36,4.77.07.36.14.71.21,1.07.03.16.2,1.35.15.92-.06-.53.06.62.07.72.04.44.07.89.09,1.34.09,1.66.05,3.34-.1,5-.03.35-.07.7-.11,1.05.12-.98-.07.37-.08.46-.13.75-.28,1.49-.46,2.23-.37,1.53-.86,3.01-1.42,4.48-.34.9.27-.54-.18.42-.14.3-.28.61-.43.91-.32.66-.66,1.32-1.03,1.96-.79,1.4-1.69,2.73-2.65,4-2.14,2.82.79,6.77,3.89,6.77h6.55c.75,0,1.5,0,2.24,0,.29,0,.58,0,.87.03.11,0,1.23.15.68.06-.48-.08.36.09.44.11.27.06.54.13.81.2.33.09.66.21.99.32.35.12.48.21.07.01.62.3,1.21.62,1.79.98,2,1.24,5.04.49,6.16-1.61,1.17-2.21.52-4.83-1.61-6.16-5.79-3.6-12.49-2.93-18.98-2.93l3.89,6.77c9.2-12.12,10.06-28.92,2.83-42.19-1.69,2.2-3.39,4.41-5.08,6.61,3.24.47,6.41,1.29,9.46,2.48.15.06,1.12.46.6.24s.02.01.11.05c.21.1.43.19.64.29.74.34,1.47.71,2.19,1.09,1.38.74,2.72,1.55,4,2.44.33.23.66.46.99.7s.81.61.19.13c.63.5,1.26,1.01,1.86,1.54,1.21,1.06,2.37,2.19,3.45,3.39.5.55.99,1.12,1.47,1.7.1.13.74.94.4.49s.01.02.07.09c.17.23.34.46.51.7.91,1.27,1.75,2.59,2.51,3.95.43.76.83,1.53,1.21,2.32.2.42.4.84.59,1.27.07.16.14.32.21.48-.14-.33-.24-.59-.05-.1.68,1.76,1.27,3.55,1.74,5.38.58,2.28,3.25,3.88,5.54,3.14s3.76-3.09,3.14-5.54h0Z"/><path class="cls-2" d="m97.56,33.18c0-.75.02-1.51.07-2.26.02-.3.04-.6.07-.89,0-.1.13-1.25.07-.73-.06.49.12-.74.11-.71.05-.29.1-.58.16-.86.14-.71.3-1.42.49-2.13.33-1.26.74-2.48,1.2-3.69s-.2.39.12-.31c.15-.32.29-.65.44-.97.31-.64.64-1.27.98-1.89.88-1.61.77-3.54-.35-5-1.2-1.56-2.87-1.87-4.73-1.61-10.52,1.43-20.52,6.72-27.71,14.53-7.43,8.07-11.83,18.46-12.49,29.41-.19,3.11-.06,6.26-.04,9.37,0,1.24,0,2.48.02,3.72.06,3,1.03,5.67,2.9,8,4.4,5.48,12.7,5.8,17.86,1.24,2.46-2.17,3.85-5.36,4.04-8.6.03-.52,0-1.04.03-1.56.01-.23-.04-.65.06-.86l-.08.52c.03-.22.07-.45.12-.67.11-.55.25-1.09.42-1.62.09-.28.17-.7.34-.94-.64.93.02,0,.16-.27.33-.63.71-1.22,1.11-1.81.45-.66-.01.03-.11.14.29-.32.57-.66.87-.97.23-.23.46-.46.71-.67.17-.15,1.03-.75.1-.12.59-.4,1.17-.8,1.79-1.14.24-.13.49-.25.73-.37.45-.2.4-.18-.16.06.21-.08.42-.16.63-.23.64-.22,1.29-.35,1.95-.51,1.11-.27-.99.05.16-.03.35-.02.69-.05,1.04-.06.2,0,.4,0,.6,0,2.98,0,5.95,0,8.93,0s6.02-3.95,3.89-6.77c-1.05-1.38-2.01-2.83-2.85-4.35-.46-.82-.87-1.67-1.26-2.52-.55-1.2.3.82-.18-.42-.17-.44-.34-.89-.49-1.34-.58-1.69-1.03-3.42-1.35-5.17-.03-.19-.24-1.64-.12-.66-.05-.42-.1-.84-.13-1.26-.09-.99-.12-1.99-.13-2.98-.01-2.35-2.06-4.61-4.5-4.5s-4.52,1.98-4.5,4.5c.05,8.33,2.69,16.6,7.74,23.25l3.89-6.77c-6.76,0-14.11-.83-19.95,3.32-4.92,3.49-7.93,8.71-8.4,14.73-.04.46-.03.93-.04,1.39,0,.07.06,1.18.02.43-.03-.68-.05.25-.09.4-.06.24-.13.75-.3.94.05-.05.5-.9.05-.19-.12.18-.31.73-.51.83l.31-.4c-.14.17-.28.32-.43.48-.21.21-.72.99-.07.14-.09.12-.43.29-.54.36-.24.14-.59.41-.86.46.99-.19.38-.15.15-.1-.25.05-.72.3-.97.23.62.15.62-.03.18-.05-.25-.01-.82.11-1.04-.02.63.1.69.1.18,0l-.33-.08c-.27-.07-1.26-.17-.18,0-.25-.04-.5-.28-.73-.38-.25-.12-.84-.62-.03.05-.21-.17-.41-.35-.61-.55s-.37-.4-.55-.6c.74.86.09.05-.04-.17-.08-.14-.3-.46-.3-.59.23.57.26.62.09.15-.07-.21-.13-.43-.18-.65-.12-.37-.33-.48,0,.18-.02-.05-.03-.66-.03-.71,0-.09,0-.17,0-.26,0-.53,0-1.06,0-1.59-.02-2.8-.04-5.59-.05-8.39,0-.81,0-1.62.05-2.43.03-.64.08-1.29.14-1.93.02-.23.05-.46.07-.7.03-.23.05-.46.08-.69-.08.56-.09.68-.04.34.4-2.43.92-4.82,1.7-7.16.18-.53.37-1.07.56-1.59.09-.23.8-1.91.3-.8.5-1.12,1.02-2.23,1.61-3.31.53-.98,1.09-1.93,1.7-2.87.3-.47.61-.93.93-1.38.19-.27.39-.54.58-.81.29-.39.56-.72.1-.15,1.67-2.07,3.47-4.01,5.47-5.76.5-.44,1.01-.85,1.53-1.27.88-.72-.78.55.14-.11.27-.19.54-.39.81-.59,1.09-.77,2.21-1.49,3.36-2.16s2.35-1.28,3.57-1.84c.2-.09.41-.18.61-.27.46-.2.41-.18-.15.06.21-.09.42-.17.63-.25.63-.25,1.27-.48,1.91-.69,2.61-.88,5.29-1.49,8.01-1.86-1.69-2.2-3.39-4.41-5.08-6.61-3.2,5.84-4.9,12.33-4.94,18.99-.02,2.35,2.08,4.61,4.5,4.5s4.48-1.98,4.5-4.5Z"/><path class="cls-1" d="m87.07,113.19c.1-5.52,2.18-10.91,6.89-15.12,3.41-3.05,7.43-4.65,12.03-4.51,4.89.14,8.87,2.31,12.18,5.83.98,1.04,1.86,2.17,2.62,3.39.26.43.37.35.61-.02,1.82-2.8,4.06-5.19,6.96-6.9,6.03-3.56,13.41-2.99,19.07,1.53,4.35,3.48,6.77,8.07,7.48,13.56.73,5.58-.59,10.79-3.07,15.75-2.58,5.15-6.19,9.51-10.35,13.45-5.37,5.09-11.42,9.23-17.81,12.9-.76.44-1.53.85-2.29,1.28-.19.11-.34.14-.55.03-8.08-4.45-15.69-9.54-22.14-16.21-3.88-4-7.15-8.44-9.33-13.61-1.43-3.4-2.25-6.93-2.28-11.35Z"/></g></svg>